<svg width="1092" height="586pt" viewBox="0 0 819 586" xmlns:xlink="http://www.w3.org/1999/xlink" xmlns="http://www.w3.org/2000/svg">
    <defs>
        <path d="M4.25.125c-.855 0-1.555-.191-2.094-.578-.543-.395-.812-.93-.812-1.61h1.39c0 .305.145.543.438.72.289.179.66.265 1.11.265h.624c.532 0 .926-.102 1.188-.313.258-.218.39-.507.39-.875 0-.351-.125-.629-.375-.828-.242-.207-.59-.347-1.046-.422l-1.125-.171c-.813-.145-1.418-.407-1.813-.782-.387-.383-.578-.91-.578-1.578 0-.75.238-1.32.719-1.719.488-.406 1.187-.609 2.093-.609h.579c.832 0 1.5.188 2 .563.507.375.765.875.765 1.5H6.328c0-.258-.133-.47-.39-.625-.25-.157-.594-.235-1.032-.235h-.578c-.469 0-.836.102-1.094.297-.25.2-.375.477-.375.828 0 .606.426.977 1.282 1.11l1.109.187c.883.137 1.531.398 1.938.781.406.375.609.922.609 1.64 0 .763-.246 1.36-.734 1.798-.481.437-1.211.656-2.188.656Zm0 0" id="a"/>
        <path d="M5.406 0c-.687 0-1.234-.195-1.64-.594-.407-.394-.61-.922-.61-1.578v-4.844H.828V-8.25h2.328v-2.328H4.5v2.328h3.297v1.234H4.5v4.844c0 .281.082.512.25.688.164.168.383.25.656.25h2.25V0Zm0 0" id="b"/>
        <path d="M3.781.156c-.875 0-1.562-.222-2.062-.672-.5-.445-.75-1.05-.75-1.812 0-.77.25-1.375.75-1.813.5-.437 1.176-.656 2.031-.656h2.547v-.828c0-.5-.152-.89-.453-1.172-.305-.281-.727-.422-1.266-.422-.48 0-.887.11-1.219.328-.336.211-.539.48-.609.813H1.39c.051-.457.22-.86.5-1.203.29-.352.665-.63 1.126-.828a4.021 4.021 0 0 1 1.562-.297c.945 0 1.695.246 2.25.734.55.492.828 1.156.828 2V0H6.328v-1.578h-.016c-.062.531-.324.953-.78 1.266C5.081 0 4.5.156 3.781.156ZM4.11-.922c.633 0 1.157-.156 1.563-.469.414-.32.625-.734.625-1.234v-1.172H3.78c-.449 0-.804.125-1.062.375-.262.25-.39.59-.39 1.016 0 .469.155.836.468 1.094.312.261.75.39 1.312.39Zm0 0" id="c"/>
        <path d="M1.281 0v-1.234h2.922v-5.782H1.578V-8.25h3.969v7.016h2.781V0ZM4.72-9.734c-.336 0-.594-.082-.782-.25-.187-.176-.28-.41-.28-.704a.93.93 0 0 1 .28-.703c.188-.175.446-.265.782-.265.332 0 .593.09.781.265a.93.93 0 0 1 .281.704c0 .292-.093.527-.281.703-.188.168-.45.25-.781.25Zm0 0" id="d"/>
        <path d="M4.563.156c-1 0-1.797-.281-2.391-.844-.594-.562-.89-1.332-.89-2.312v-2.25c0-.977.296-1.75.89-2.313.594-.562 1.39-.843 2.39-.843.946 0 1.708.258 2.282.765.582.512.89 1.211.922 2.094H6.422c-.031-.531-.211-.937-.531-1.219-.325-.289-.766-.437-1.329-.437-.593 0-1.07.172-1.421.516-.344.335-.516.808-.516 1.421V-3c0 .625.172 1.11.516 1.453.351.336.828.5 1.421.5.563 0 1.004-.144 1.329-.437.32-.29.5-.696.53-1.22h1.345c-.032.888-.34 1.587-.922 2.095-.574.511-1.336.765-2.282.765Zm0 0" id="e"/>
        <path d="M3.61 0 .75-8.25h1.39l1.922 5.547c.114.336.208.652.282.953.082.305.144.543.187.719.051-.176.11-.414.172-.719.07-.3.164-.617.281-.953l1.86-5.547H8.25L5.39 0Zm0 0" id="f"/>
        <path d="M4.5.125c-1 0-1.79-.281-2.36-.844-.574-.57-.859-1.344-.859-2.312V-5.22c0-.976.285-1.75.86-2.312.57-.563 1.359-.844 2.359-.844s1.785.281 2.36.844c.57.562.859 1.328.859 2.297v2.203c0 .969-.29 1.742-.86 2.312C6.285-.156 5.5.125 4.5.125Zm0-1.203c.594 0 1.05-.16 1.375-.484.332-.333.5-.82.5-1.47v-2.187c0-.644-.168-1.129-.5-1.453-.324-.332-.781-.5-1.375-.5-.586 0-1.043.168-1.375.5-.336.324-.5.809-.5 1.453v2.188c0 .648.164 1.136.5 1.469.332.324.79.484 1.375.484Zm0 0" id="g"/>
        <path d="M4.016.156c-.813 0-1.477-.273-1.985-.828-.5-.55-.75-1.297-.75-2.234v-2.422c0-.945.25-1.695.75-2.25.5-.55 1.16-.828 1.985-.828.625 0 1.132.156 1.53.469.407.312.641.734.704 1.265h.047l-.031-1.875v-2.406h1.359V0h-1.36v-1.578H6.25c-.063.543-.297.969-.703 1.281-.399.3-.906.453-1.531.453Zm.453-1.172c.562 0 1-.171 1.312-.515.32-.352.485-.844.485-1.469v-2.25c0-.625-.164-1.11-.485-1.453-.312-.352-.75-.531-1.312-.531-.574 0-1.028.171-1.36.515-.324.344-.484.836-.484 1.469V-3c0 .637.16 1.125.484 1.469.332.343.786.515 1.36.515Zm0 0" id="h"/>
        <path d="M2.688 2.703 3.905-.516.75-8.25h1.469l2.015 5.094c.063.18.125.386.188.625.07.23.129.422.172.578.039-.156.093-.348.156-.578.07-.239.145-.446.219-.625L6.844-8.25H8.25L4.094 2.703Zm0 0" id="i"/>
        <path d="M.906 1.5V.375h7.188V1.5Zm0 0" id="j"/>
        <path d="M1.64 0v-8.25h1.344v1.578H3c.07-.55.297-.976.672-1.281.383-.3.89-.453 1.515-.453.864 0 1.551.277 2.063.828.508.543.766 1.277.766 2.203v.578h-1.36v-.453c0-.625-.164-1.11-.484-1.453-.313-.352-.777-.531-1.39-.531-1.2 0-1.798.664-1.798 1.984V0Zm0 0" id="k"/>
        <path d="M1.375 0v-8.25h1.36v1.578h.015c.063-.55.281-.976.656-1.281.383-.3.895-.453 1.531-.453.833 0 1.493.258 1.985.765.488.512.734 1.211.734 2.094V0h-1.36v-5.406c0-.582-.155-1.032-.468-1.344-.312-.32-.742-.484-1.281-.484-.563 0-1.008.171-1.328.515-.324.344-.485.836-.485 1.469V0Zm0 0" id="l"/>
        <path d="M2.422 2.703V1.47h2.625c.8 0 1.203-.39 1.203-1.172V-.75l.031-1.5H6.25c-.043.531-.262.953-.656 1.266-.399.304-.907.453-1.532.453-.843 0-1.515-.274-2.015-.828-.492-.551-.735-1.297-.735-2.235v-1.75c0-.937.243-1.68.735-2.234.5-.55 1.172-.828 2.015-.828.625 0 1.133.156 1.532.469.394.312.613.734.656 1.265h.016V-8.25h1.343V.297c0 .738-.23 1.32-.687 1.75-.461.437-1.09.656-1.89.656Zm2.047-4.39c.562 0 1-.176 1.312-.532.32-.351.485-.836.485-1.453V-5.25c0-.625-.164-1.11-.485-1.453-.312-.352-.75-.531-1.312-.531-.574 0-1.016.171-1.328.515-.313.344-.47.836-.47 1.469v1.578c0 .637.157 1.125.47 1.469.312.344.754.515 1.328.515Zm0 0" id="m"/>
        <path d="M4.984.156c-.625 0-1.14-.152-1.546-.453-.399-.312-.626-.738-.688-1.281h-.016V0H1.375v-10.953h1.36v2.406l-.032 1.875h.047c.063-.531.29-.953.688-1.266.406-.312.921-.468 1.546-.468.82 0 1.485.277 1.985.828.5.555.75 1.305.75 2.25v2.422c0 .937-.25 1.683-.75 2.234-.5.555-1.164.828-1.985.828Zm-.453-1.172c.57 0 1.02-.171 1.344-.515.332-.344.5-.832.5-1.469v-2.25c0-.633-.168-1.125-.5-1.469-.324-.343-.773-.515-1.344-.515-.554 0-.992.18-1.312.53-.324.345-.485.829-.485 1.454V-3c0 .625.16 1.117.485 1.469.32.343.758.515 1.312.515Zm0 0" id="n"/>
        <path d="M4.5.156c-.648 0-1.215-.133-1.703-.39a2.636 2.636 0 0 1-1.125-1.11C1.41-1.82 1.282-2.375 1.282-3v-2.25c0-.633.128-1.188.39-1.656a2.68 2.68 0 0 1 1.125-1.11c.488-.257 1.055-.39 1.703-.39.645 0 1.21.133 1.703.39.488.262.863.633 1.125 1.11.258.468.39 1.023.39 1.656v1.453H2.595V-3c0 .648.16 1.148.484 1.5.332.344.805.516 1.422.516.52 0 .938-.094 1.25-.282.32-.187.52-.46.594-.828h1.343c-.085.688-.417 1.235-1 1.64-.585.407-1.312.61-2.187.61ZM2.594-4.812h3.812v-.438c0-.645-.164-1.145-.484-1.5-.324-.352-.797-.531-1.422-.531-.617 0-1.09.18-1.422.531-.324.355-.484.855-.484 1.5Zm0 0" id="o"/>
        <path d="M5.703 0c-.73 0-1.312-.21-1.75-.64-.437-.426-.656-.989-.656-1.688v-7.39H.453v-1.235h4.203v8.625c0 .344.094.617.282.812.187.188.44.282.765.282H8.25V0Zm0 0" id="p"/>
        <path d="M7.281 1.797C5.851 1.453 4.742.766 3.953-.266c-.781-1.03-1.172-2.289-1.172-3.78V-6.75c0-.977.18-1.863.547-2.656.363-.801.879-1.473 1.547-2.016.676-.55 1.477-.941 2.406-1.172v1.266a3.744 3.744 0 0 0-1.672.875 4.209 4.209 0 0 0-1.093 1.578c-.262.625-.391 1.336-.391 2.125v2.703c0 .774.125 1.477.375 2.11A4.181 4.181 0 0 0 5.594-.375C6.07.031 6.633.313 7.28.469Zm0 0" id="r"/>
        <path d="M4.484.156c-.949 0-1.71-.281-2.28-.844-.575-.57-.86-1.343-.86-2.312v-5.25h1.36V-3c0 .625.155 1.11.468 1.453.32.344.758.516 1.312.516.563 0 1.004-.172 1.329-.516.32-.344.484-.828.484-1.453v-5.25h1.36V-3c0 .969-.294 1.742-.876 2.313-.586.562-1.351.843-2.297.843Zm0 0" id="s"/>
        <path d="M3.297 0v-6.188H.907v-1.234h2.39v-1.422c0-.656.203-1.172.61-1.547.413-.375.984-.562 1.702-.562h2.422v1.234H5.61c-.636 0-.953.293-.953.875v1.422h3.375v1.234H4.656V0Zm0 0" id="t"/>
        <path d="M.906 0v-8.25h1.172v.984h.094a1.44 1.44 0 0 1 .469-.812c.25-.219.554-.328.921-.328.32 0 .602.105.844.312.239.211.41.485.516.828h.094c.062-.332.218-.601.468-.812.25-.219.563-.328.938-.328.5 0 .898.199 1.203.594.313.398.469.914.469 1.546V0H6.859v-6.281c0-.352-.078-.617-.234-.797-.156-.188-.383-.281-.672-.281-.293 0-.516.093-.672.28-.156.18-.234.438-.234.782V0H3.953v-6.281c0-.352-.086-.617-.25-.797-.156-.188-.383-.281-.672-.281-.281 0-.5.093-.656.28-.156.18-.234.438-.234.782V0Zm0 0" id="u"/>
        <path d="m2.719-1.406-1.078-.75.796-1.172c.208-.281.454-.555.735-.828.289-.282.547-.508.765-.688l-.03-.11c-.282-.019-.622-.054-1.016-.109a5.46 5.46 0 0 1-1.047-.265L.53-5.812.97-7.048l1.328.484c.32.106.648.266.984.485.344.21.63.402.86.578l.078-.063a35.57 35.57 0 0 1-.25-1.03 5.558 5.558 0 0 1-.125-1.126v-1.437h1.312v1.437c0 .336-.047.711-.14 1.125-.086.407-.168.75-.25 1.032l.078.062c.226-.176.515-.367.86-.578a4.57 4.57 0 0 1 .984-.484l1.343-.485.438 1.234-1.328.485a5.536 5.536 0 0 1-1.047.266c-.375.054-.711.09-1 .109l-.047.125c.226.18.484.406.766.687.28.274.519.543.718.813l.813 1.172-1.078.75-.829-1.172a5.294 5.294 0 0 1-.515-.953 16.52 16.52 0 0 1-.375-.969h-.11a16.52 16.52 0 0 1-.375.969 4.865 4.865 0 0 1-.53.953Zm0 0" id="v"/>
        <path d="M1.719 1.797V.469a3.915 3.915 0 0 0 1.687-.844 4.061 4.061 0 0 0 1.078-1.563c.258-.632.391-1.335.391-2.109V-6.75c0-.79-.133-1.5-.39-2.125a4.254 4.254 0 0 0-1.094-1.578 3.765 3.765 0 0 0-1.672-.875v-1.266c.937.23 1.738.621 2.406 1.172a5.556 5.556 0 0 1 1.547 2.016c.363.793.547 1.68.547 2.656v2.703c0 1.492-.399 2.75-1.188 3.781C4.25.766 3.145 1.454 1.72 1.797Zm0 0" id="w"/>
        <path d="M6.906 1.656c-.886 0-1.59-.218-2.11-.656-.523-.438-.745-1.05-.671-1.844l.219-2.453c.05-.531-.024-.91-.219-1.14-.2-.239-.625-.36-1.281-.36H1.125V-6h1.719c.656 0 1.082-.113 1.281-.344.195-.238.27-.625.219-1.156l-.219-2.453c-.074-.79.148-1.406.672-1.844.52-.437 1.223-.656 2.11-.656h.671v1.203h-.672c-.48 0-.851.11-1.11.328-.25.211-.359.531-.327.969L5.703-7.5c.05.574-.062 1.04-.344 1.39-.273.356-.656.575-1.156.657.5.086.883.324 1.156.719.282.386.395.867.344 1.437L5.47-.844c-.032.438.078.762.328.969.258.219.629.328 1.11.328h.671v1.203Zm0 0" id="x"/>
        <path d="M1.39 2.703V-8.25h1.36v1.578h.016c.062-.539.296-.96.703-1.266.406-.312.922-.468 1.547-.468.82 0 1.476.277 1.968.828.5.543.75 1.289.75 2.234v2.422c0 .95-.25 1.7-.75 2.25-.492.555-1.148.828-1.968.828C4.39.156 3.875 0 3.469-.313c-.399-.312-.633-.734-.703-1.265h-.047L2.75.297v2.406Zm3.173-3.719c.57 0 1.019-.171 1.343-.515.32-.344.485-.832.485-1.469v-2.25c0-.633-.164-1.125-.485-1.469-.324-.343-.773-.515-1.343-.515-.555 0-.997.18-1.329.53-.324.345-.484.829-.484 1.454V-3c0 .625.16 1.117.484 1.469.332.343.774.515 1.329.515Zm0 0" id="y"/>
        <path d="M1.281-6.156v-1.188H7.72v1.188Zm0 3.61V-3.75H7.72v1.203Zm0 0" id="z"/>
        <path d="M1.422 0v-10.953h6.453v1.234H2.75v3.625h4.734v1.235H2.781V0Zm0 0" id="A"/>
        <path d="M1.375 0v-10.953h3.39c.657 0 1.227.137 1.72.406.488.262.867.625 1.14 1.094.27.469.406 1.023.406 1.656 0 .742-.195 1.375-.578 1.906a2.912 2.912 0 0 1-1.578 1.094L8.172 0H6.578L4.484-4.656h-1.75V0Zm1.36-5.86h2.03c.563 0 1.008-.175 1.344-.53.344-.364.516-.833.516-1.407 0-.594-.172-1.062-.516-1.406-.336-.352-.78-.531-1.343-.531H2.734Zm0 0" id="B"/>
        <path d="m.75 0 2.844-10.953h1.828L8.25 0H6.89l-.718-2.906H2.844L2.125 0Zm2.375-4.047h2.75l-.828-3.375a42.178 42.178 0 0 1-.39-1.61 18.087 18.087 0 0 1-.157-.843c-.023.137-.078.418-.172.844-.086.43-.21.96-.375 1.594Zm0 0" id="C"/>
        <path d="M1.14 0v-10.953h1.766l1.172 3.547c.113.312.207.633.281.953.07.312.13.555.172.719l.172-.72c.082-.32.176-.644.281-.968l1.11-3.531h1.765V0H6.547v-5.172c0-.894.035-1.77.11-2.625.081-.863.175-1.691.28-2.484L5.141-4.797H3.859L2.063-10.28c.101.761.19 1.558.265 2.39.082.836.125 1.743.125 2.72V0Zm0 0" id="D"/>
        <path d="M1.5 0v-10.953h6.297v1.234H2.828v3.39h4.453v1.204H2.828v3.89h4.969V0Zm0 0" id="E"/>
        <path d="M3.828 0v-9.719h-3v-1.234h7.344v1.234h-3V0Zm0 0" id="F"/>
        <path d="M3.828 0v-4.094l-3.297-6.86h1.39l2.173 4.5c.125.25.218.466.281.641.07.18.117.305.14.375.02-.07.067-.195.141-.375.07-.175.172-.39.297-.64l2.125-4.5h1.39l-3.296 6.86V0Zm0 0" id="G"/>
        <path d="M4.344-6.156a1.12 1.12 0 0 1-.813-.313c-.21-.207-.312-.476-.312-.812 0-.313.11-.578.328-.797.219-.219.484-.328.797-.328h.312c.313 0 .578.11.797.328.219.219.328.484.328.797 0 .336-.11.605-.328.812-.21.211-.476.313-.797.313ZM2.547 2.406 3.75-2.266h1.953L3.75 2.406Zm0 0" id="H"/>
        <path d="M4.5.156c-.98 0-1.758-.281-2.328-.844-.574-.562-.86-1.332-.86-2.312v-4.953c0-.977.286-1.742.86-2.297.57-.563 1.348-.844 2.328-.844.977 0 1.754.278 2.328.828.57.555.86 1.32.86 2.297V-3c0 .98-.29 1.75-.86 2.313-.574.562-1.351.843-2.328.843Zm0-1.218c.594 0 1.047-.165 1.36-.5.312-.333.468-.813.468-1.438v-4.953c0-.613-.156-1.086-.469-1.422-.312-.344-.765-.516-1.359-.516-.586 0-1.04.172-1.36.516-.312.336-.468.809-.468 1.422V-3c0 .625.156 1.105.469 1.438.32.335.773.5 1.359.5Zm0 0" id="K"/>
        <path d="M4.5.156c-1.023 0-1.805-.281-2.344-.844-.543-.57-.812-1.343-.812-2.312v-7.953h1.36V-3c0 .605.144 1.086.437 1.438.289.343.742.515 1.359.515.602 0 1.05-.172 1.344-.516.3-.351.453-.832.453-1.437v-7.953h1.36V-3c0 .98-.274 1.75-.813 2.313C6.312-.125 5.53.155 4.5.155Zm0 0" id="L"/>
        <path d="M1.375 0v-10.953h3.531c1.02 0 1.832.297 2.438.89.601.586.906 1.368.906 2.344 0 .98-.305 1.762-.906 2.344-.606.586-1.418.875-2.438.875H2.734V0Zm1.36-5.719h2.171c.594 0 1.067-.18 1.422-.547.352-.363.531-.847.531-1.453 0-.625-.18-1.113-.53-1.468-.356-.364-.829-.547-1.423-.547H2.734Zm0 0" id="M"/>
        <path d="m2.469 2.406 1.203-4.672h1.953L3.672 2.406Zm0 0" id="N"/>
        <path d="M4.563.156C3.5.156 2.647-.117 2.015-.672c-.625-.55-.938-1.285-.938-2.203h1.36c0 .543.19.984.578 1.328.382.336.898.5 1.546.5.614 0 1.102-.164 1.47-.5.374-.344.562-.785.562-1.328a1.94 1.94 0 0 0-.344-1.14 1.714 1.714 0 0 0-.906-.673l-1.625-.5c-.73-.226-1.305-.609-1.719-1.14a2.893 2.893 0 0 1-.625-1.844c0-.894.29-1.601.875-2.125.594-.531 1.375-.797 2.344-.797.968 0 1.738.266 2.312.797.582.524.875 1.23.875 2.125H6.438c0-.531-.168-.953-.5-1.265-.336-.313-.782-.47-1.344-.47-.574 0-1.032.157-1.375.47-.344.312-.516.726-.516 1.234 0 .398.113.742.344 1.031.226.293.539.5.937.625L5.672-6a3.14 3.14 0 0 1 1.64 1.172c.407.562.61 1.215.61 1.953 0 .918-.309 1.652-.922 2.203-.605.555-1.418.828-2.438.828Zm0 0" id="O"/>
        <path d="M3.453.156C2.63.156 1.984-.062 1.516-.5 1.055-.945.828-1.555.828-2.328v-1.875c0-.531.133-.977.406-1.344.282-.363.676-.617 1.188-.766l-.11-.156c-.312-.414-.542-.8-.687-1.156a3.077 3.077 0 0 1-.203-1.094c0-.719.242-1.289.734-1.719.5-.437 1.156-.656 1.969-.656.875 0 1.563.23 2.063.688.507.46.765 1.086.765 1.875H5.61c0-.438-.136-.781-.406-1.031-.262-.25-.621-.376-1.078-.376-.406 0-.734.118-.984.344-.243.23-.36.531-.36.906 0 .25.051.524.156.813.102.293.25.57.438.828L5.953-3.5l1.063-1.906h1.421L6.734-2.422 8.484 0H7l-.938-1.313C5.32-.332 4.454.157 3.454.157Zm.078-1.203c.332 0 .656-.11.969-.328.32-.227.594-.547.813-.953L3.108-5.375c-.625.117-.937.508-.937 1.172v1.875c0 .406.113.726.344.953.238.219.578.328 1.015.328Zm0 0" id="P"/>
        <path d="M3.094-3.078v-2.703h.75c.633 0 1.14-.176 1.515-.532.375-.351.563-.82.563-1.406 0-.593-.188-1.066-.563-1.422-.375-.351-.886-.53-1.53-.53H1.952v-1.282h1.875c.695 0 1.3.137 1.813.406.52.262.921.633 1.203 1.11.289.48.437 1.054.437 1.718 0 .563-.12 1.074-.36 1.532-.241.46-.573.824-1 1.093-.429.274-.921.418-1.484.438v1.578ZM3.53.078a.911.911 0 0 1-.656-.25.911.911 0 0 1-.25-.656c0-.258.082-.473.25-.64a.928.928 0 0 1 .656-.25h.438c.289 0 .515.085.672.25.156.155.234.366.234.624 0 .262-.09.48-.266.656a.837.837 0 0 1-.64.266Zm0 0" id="Q"/>
        <path d="M4.5-6.156c-.375 0-.68-.098-.906-.297-.23-.207-.344-.484-.344-.828 0-.332.113-.602.344-.813.226-.207.531-.312.906-.312s.676.105.906.312c.227.211.344.48.344.813 0 .343-.117.62-.344.828-.23.2-.531.297-.906.297Zm0 6.312c-.375 0-.68-.105-.906-.312-.23-.207-.344-.477-.344-.813 0-.344.113-.613.344-.812.226-.207.531-.313.906-.313s.676.106.906.313c.227.199.344.468.344.812 0 .336-.117.606-.344.813-.23.207-.531.312-.906.312Zm0 0" id="R"/>
        <path d="M1.375 0v-10.953h1.36v4.281h.015c.063-.55.281-.976.656-1.281.383-.3.895-.453 1.531-.453.833 0 1.493.258 1.985.765.488.512.734 1.211.734 2.094V0h-1.36v-5.406c0-.582-.155-1.035-.468-1.36-.312-.332-.742-.5-1.281-.5-.563 0-1.008.18-1.328.532-.324.355-.485.851-.485 1.484V0Zm0 0" id="S"/>
        <path d="M1.422 1.656V.453h.672c.476 0 .844-.11 1.094-.328.257-.207.374-.531.343-.969l-.234-2.453c-.055-.57.055-1.055.328-1.453.281-.395.672-.633 1.172-.719-.5-.082-.89-.297-1.172-.64-.273-.352-.383-.817-.328-1.391l.234-2.453c.031-.438-.086-.758-.344-.969-.25-.219-.617-.328-1.093-.328h-.672v-1.203h.672c.894 0 1.601.219 2.125.656.52.438.738 1.055.656 1.844L4.656-7.5c-.043.531.032.918.219 1.156.195.23.625.344 1.281.344h1.719v1.203H6.156c-.648 0-1.07.121-1.265.36-.2.23-.278.609-.235 1.14l.219 2.453C4.957-.05 4.738.562 4.219 1c-.524.438-1.23.656-2.125.656Zm0 0" id="T"/>
        <path d="m1.125 1.656 5.328-14.11h1.422L2.547 1.657Zm0 0" id="U"/>
        <path d="M1.953 0v-10.953h1.344v9.719H8.25V0Zm0 0" id="al"/>
        <path d="M1.047 2.703v-1.25h2.156c.625 0 1.11-.168 1.453-.5.344-.336.516-.808.516-1.422v-6.547H1.344V-8.25H6.53v7.781c0 .969-.304 1.739-.906 2.313-.605.57-1.414.86-2.422.86ZM5.78-9.734c-.336 0-.593-.082-.781-.25-.188-.176-.281-.41-.281-.704A.93.93 0 0 1 5-11.39c.188-.175.445-.265.781-.265.332 0 .594.09.782.265a.93.93 0 0 1 .28.704c0 .292-.093.527-.28.703-.188.168-.45.25-.782.25Zm0 0" id="am"/>
        <path d="m4.016-3.219-.313-5.937v-1.797h1.594v1.797L4.984-3.22ZM4.28.078a.911.911 0 0 1-.656-.25.911.911 0 0 1-.25-.656c0-.258.082-.473.25-.64a.928.928 0 0 1 .656-.25h.438c.289 0 .515.085.672.25.156.155.234.366.234.624 0 .262-.09.48-.266.656a.837.837 0 0 1-.64.266Zm0 0" id="aQ"/>
        <path d="M2.094-4.344v-1.203h4.812v1.203Zm0 0" id="ba"/>
        <path d="M4.5.156c-.375 0-.68-.11-.906-.328-.23-.226-.344-.523-.344-.89 0-.395.113-.708.344-.938.226-.227.531-.344.906-.344s.676.117.906.344c.227.23.344.543.344.938 0 .367-.117.664-.344.89-.23.219-.531.328-.906.328Zm0 0" id="bb"/>
        <path d="M1.344 0v-1.234h2.968v-8.594L1.345-7.61v-1.5l2.484-1.844h1.844v9.719h2.422V0Zm0 0" id="bc"/>
        <path d="M6 0v-2.406H1.047v-2.11l4-6.437H6.53L2.406-4.25v.625H6v-2.672h1.344V0Zm0 0" id="bd"/>
        <path d="M4.5.156c-.7 0-1.313-.12-1.844-.36-.531-.25-.945-.593-1.234-1.03-.293-.438-.438-.942-.438-1.516 0-.613.196-1.188.594-1.719.395-.539.926-.96 1.594-1.265-.656-.313-1.149-.692-1.469-1.141a2.458 2.458 0 0 1-.469-1.438c0-.55.141-1.035.422-1.453a2.92 2.92 0 0 1 1.157-.984c.5-.238 1.062-.36 1.687-.36s1.188.122 1.688.36c.5.242.882.57 1.156.984.281.418.422.903.422 1.454 0 .5-.164.976-.485 1.421-.312.45-.797.836-1.453 1.157.664.304 1.195.726 1.594 1.265.394.532.594 1.106.594 1.719 0 .574-.149 1.078-.438 1.516-.293.437-.703.78-1.234 1.03-.524.24-1.137.36-1.844.36Zm-.438-6.562.438.172.375-.157c.469-.175.848-.43 1.14-.765.29-.344.438-.711.438-1.11 0-.488-.183-.882-.547-1.187-.355-.313-.824-.469-1.406-.469-.586 0-1.059.156-1.422.469-.355.312-.531.71-.531 1.187 0 .407.14.778.422 1.11a2.52 2.52 0 0 0 1.094.75Zm.438 5.36c.656 0 1.18-.173 1.578-.516.406-.344.61-.797.61-1.36 0-.437-.137-.832-.407-1.187-.273-.364-.652-.641-1.14-.829l-.641-.25-.688.266c-.48.188-.851.465-1.109.828a1.93 1.93 0 0 0-.39 1.172c0 .563.195 1.016.593 1.36.406.343.938.515 1.594.515Zm0 0" id="be"/>
        <path d="M1.375 0v-1.328l3.5-3.813c.52-.562.895-1.062 1.125-1.5.238-.445.36-.879.36-1.296 0-.594-.18-1.067-.532-1.422-.344-.364-.82-.547-1.422-.547-.605 0-1.086.183-1.437.547-.356.367-.531.859-.531 1.484h-1.36c.031-.988.344-1.77.938-2.344.601-.582 1.398-.875 2.39-.875 1.008 0 1.813.29 2.407.86.593.562.89 1.336.89 2.312 0 .524-.152 1.07-.453 1.64-.305.563-.793 1.22-1.469 1.97l-2.86 3.078h4.97V0Zm0 0" id="bf"/>
        <path d="M2.86 0 6.78-9.719H2.547v1.766H1.203v-3h6.969v1.265L4.344 0Zm0 0" id="bg"/>
        <path d="M2.328-6C1.691-6 1.18-6.176.797-6.531c-.375-.364-.563-.864-.563-1.5V-9c0-.625.188-1.117.563-1.484.383-.364.894-.547 1.531-.547.625 0 1.125.183 1.5.547.383.367.578.859.578 1.484v.969c0 .636-.195 1.136-.578 1.5-.375.355-.875.531-1.5.531ZM.203 0l7.484-10.953h1.11L1.312 0Zm2.125-7.016c.645 0 .969-.336.969-1.015V-9c0-.664-.324-1-.969-1-.656 0-.984.336-.984 1v.969c0 .68.328 1.015.984 1.015ZM6.672.078c-.625 0-1.133-.176-1.516-.531-.375-.363-.562-.863-.562-1.5v-.969c0-.633.187-1.129.562-1.484.383-.364.89-.547 1.516-.547.633 0 1.14.183 1.516.547.382.355.578.851.578 1.484v.969c0 .637-.196 1.137-.579 1.5-.374.355-.882.531-1.515.531Zm0-1.031c.656 0 .984-.332.984-1v-.969c0-.676-.328-1.015-.984-1.015-.649 0-.969.34-.969 1.015v.969c0 .668.32 1 .969 1Zm0 0" id="bh"/>
        <path d="M4.563.156c-1 0-1.793-.281-2.375-.844C1.602-1.25 1.312-2.02 1.312-3v-4.953c0-.977.29-1.742.875-2.297.583-.563 1.376-.844 2.376-.844.976 0 1.753.281 2.328.844.582.563.875 1.328.875 2.297H6.422c0-.613-.168-1.086-.5-1.422-.324-.344-.777-.516-1.36-.516-.593 0-1.058.168-1.39.5-.336.336-.5.809-.5 1.422V-3c0 .625.164 1.105.5 1.438.332.335.797.5 1.39.5.583 0 1.036-.165 1.36-.5.332-.333.5-.813.5-1.438h1.344c0 .969-.293 1.742-.875 2.313-.575.562-1.352.843-2.329.843Zm0 0" id="bi"/>
        <path d="M4.563.156c-1 0-1.793-.281-2.375-.844C1.602-1.25 1.312-2.02 1.312-3v-4.953c0-.977.29-1.742.875-2.297.583-.563 1.376-.844 2.376-.844.976 0 1.753.281 2.328.844.582.563.875 1.328.875 2.297H6.422c0-.613-.168-1.086-.5-1.422-.324-.344-.777-.516-1.36-.516-.593 0-1.058.168-1.39.5-.336.336-.5.809-.5 1.422V-3c0 .625.164 1.11.5 1.453.332.336.797.5 1.39.5.583 0 1.036-.164 1.36-.5.332-.344.5-.828.5-1.453v-1.344H4.203v-1.234h3.563V-3c0 .969-.293 1.742-.875 2.313-.575.562-1.352.843-2.329.843Zm0 0" id="bj"/>
        <path d="M2.813-9.375h1.593l3.469 4.422L4.391-.531H2.812l2.86-3.578.094-.125a1.36 1.36 0 0 1 .093-.11H-7.719v-1.203H5.86c-.03-.05-.07-.101-.109-.156a1.195 1.195 0 0 0-.14-.14Zm0 0" id="J"/>
        <path d="M3.875.156C2.801.156 2-.109 1.469-.64.937-1.18.739-1.914.875-2.844h1.344c-.094.543.02.977.344 1.297.332.324.832.484 1.5.484.632 0 1.148-.156 1.546-.468.407-.313.657-.739.75-1.282.07-.476.016-.878-.171-1.203-.188-.332-.481-.562-.875-.687l-1.407-.469c-.71-.226-1.23-.61-1.562-1.14-.324-.532-.434-1.157-.328-1.875.093-.594.304-1.102.64-1.532a3.364 3.364 0 0 1 1.266-1.015c.52-.25 1.11-.375 1.765-.375.958 0 1.68.265 2.172.796.5.532.688 1.247.563 2.141h-1.36c.094-.539 0-.96-.28-1.265-.274-.313-.704-.47-1.298-.47-.574 0-1.046.141-1.421.423-.368.28-.59.671-.672 1.171-.075.461-.016.86.171 1.204.188.343.485.586.891.718l1.422.485c.695.23 1.203.617 1.516 1.156.32.543.425 1.18.312 1.906a3.326 3.326 0 0 1-.656 1.578c-.356.45-.809.797-1.36 1.047a4.287 4.287 0 0 1-1.812.375Zm0 0" id="V"/>
        <path d="M3.813.156c-.97 0-1.696-.285-2.172-.86C1.16-1.284.992-2.05 1.14-3l.343-2.25c.114-.633.336-1.188.672-1.656a3.424 3.424 0 0 1 1.266-1.11 3.88 3.88 0 0 1 1.75-.39c.976 0 1.707.293 2.187.875.477.574.641 1.336.485 2.281l-.219 1.453H2.578L2.453-3c-.094.648-.015 1.148.235 1.5.257.344.69.516 1.296.516 1.051 0 1.711-.368 1.985-1.11h1.343c-.187.688-.605 1.235-1.25 1.64-.636.407-1.386.61-2.25.61ZM2.75-4.812h3.719l.062-.438c.102-.645.024-1.145-.234-1.5-.25-.352-.684-.531-1.297-.531-.617 0-1.11.18-1.484.531-.368.355-.602.855-.704 1.5Zm0 0" id="W"/>
        <path d="M4.734 0c-.71 0-1.23-.188-1.562-.563-.336-.382-.45-.921-.344-1.609l.766-4.844H1.28L1.47-8.25h2.328l.36-2.25H5.5l-.36 2.25h3.298L8.25-7.016H4.953l-.766 4.844c-.105.625.145.938.75.938h2.25L6.984 0Zm0 0" id="X"/>
        <path d="M3.797.156c-.95 0-1.664-.281-2.14-.844-.481-.57-.641-1.343-.485-2.312L2-8.25h1.344L2.516-3c-.094.625-.012 1.11.25 1.453.27.344.675.516 1.218.516.563 0 1.032-.172 1.407-.516.382-.344.629-.828.734-1.453l.813-5.25h1.359L7.469-3a3.904 3.904 0 0 1-.672 1.672c-.336.48-.762.851-1.281 1.11a3.867 3.867 0 0 1-1.72.374Zm0 0" id="Z"/>
        <path d="M.281 2.703 2.031-8.25h1.344l-.25 1.578h.031c.145-.539.442-.96.89-1.266.458-.312 1-.468 1.626-.468.832 0 1.441.277 1.828.828.383.543.504 1.289.36 2.234l-.376 2.422c-.148.95-.507 1.7-1.078 2.25-.574.555-1.273.828-2.093.828-.625 0-1.118-.156-1.47-.469-.355-.312-.523-.734-.5-1.265h-.046L2.03.297l-.39 2.406Zm3.766-3.719c.57 0 1.039-.171 1.406-.515.363-.344.598-.832.703-1.469L6.5-5.25c.102-.633.023-1.125-.234-1.469-.262-.343-.672-.515-1.235-.515-.554 0-1.023.18-1.406.53-.375.345-.621.829-.734 1.454L2.547-3c-.094.625-.008 1.117.265 1.469.27.343.68.515 1.235.515Zm0 0" id="aa"/>
        <path d="m1 0 1.313-8.25h1.312l-.234 1.5c.437-1.102 1.25-1.656 2.437-1.656.875 0 1.524.277 1.953.828.426.543.567 1.277.422 2.203l-.094.5H6.766l.062-.375c.102-.645.024-1.14-.234-1.484-.262-.352-.68-.532-1.25-.532-.574 0-1.055.18-1.438.532-.375.355-.617.851-.719 1.484L2.36 0Zm0 0" id="ab"/>
        <path d="m.328 0 1.313-8.25h1.171l-.156.984h.11c.101-.343.285-.617.546-.828.27-.207.586-.312.954-.312.707 0 1.097.383 1.171 1.14H5.5c.113-.343.305-.617.578-.828.281-.207.598-.312.953-.312.52 0 .89.199 1.11.594.226.386.296.902.203 1.546L7.344 0H6.109l.985-6.281c.05-.344.02-.61-.094-.797-.117-.188-.313-.281-.594-.281-.531 0-.867.304-1 .906-.011.055-.023.105-.031.156L4.375 0H3.297l1-6.281c.039-.352 0-.617-.125-.797-.125-.188-.328-.281-.61-.281a.879.879 0 0 0-.671.28c-.168.18-.278.438-.329.782L1.579 0Zm0 0" id="ac"/>
        <path d="M3.875.156c-1 0-1.746-.281-2.234-.844C1.148-1.25.984-2.02 1.14-3l.343-2.25c.157-.977.567-1.75 1.235-2.313.676-.562 1.515-.843 2.515-.843.946 0 1.672.258 2.172.765.5.512.696 1.211.594 2.094H6.64c.051-.531-.062-.937-.343-1.219-.281-.289-.7-.437-1.25-.437-.594 0-1.086.172-1.469.516-.387.335-.633.808-.734 1.421L2.484-3c-.093.625 0 1.11.282 1.453.28.336.71.5 1.296.5.563 0 1.024-.144 1.391-.437.375-.29.617-.696.734-1.22h1.36c-.168.888-.586 1.587-1.25 2.095-.668.511-1.477.765-2.422.765Zm0 0" id="ad"/>
        <path d="M3.344.156c-.824 0-1.434-.273-1.828-.828-.399-.55-.524-1.297-.375-2.234l.375-2.422c.144-.945.504-1.695 1.078-2.25.582-.55 1.285-.828 2.11-.828.624 0 1.109.156 1.452.469.352.312.52.734.5 1.265h.047l.234-1.578h1.344L6.97 0H5.625l.25-1.578h-.031a2.233 2.233 0 0 1-.89 1.281c-.45.3-.985.453-1.61.453Zm.64-1.172c.563 0 1.032-.171 1.407-.515.375-.352.613-.844.718-1.469l.344-2.25c.094-.625.008-1.11-.25-1.453-.262-.352-.672-.531-1.234-.531-.574 0-1.047.171-1.422.515-.367.344-.602.836-.703 1.469L2.5-3c-.094.637-.012 1.125.25 1.469.258.343.672.515 1.234.515Zm0 0" id="ae"/>
        <path d="M3.813.156c-.981 0-1.711-.281-2.188-.844C1.145-1.25.985-2.02 1.141-3l.343-2.25c.157-.977.563-1.75 1.22-2.313.663-.562 1.487-.843 2.468-.843.976 0 1.707.281 2.187.844.477.554.645 1.32.5 2.296L7.5-3c-.156.98-.57 1.75-1.234 2.313-.657.562-1.477.843-2.454.843ZM4-1.047c.594 0 1.07-.164 1.438-.5.375-.332.613-.816.718-1.453L6.5-5.25c.102-.633.02-1.117-.25-1.453-.262-.332-.684-.5-1.266-.5-.586 0-1.062.168-1.437.5-.367.336-.606.82-.719 1.453L2.484-3c-.093.637-.011 1.121.25 1.453.27.336.692.5 1.266.5Zm0 0" id="af"/>
        <path d="M3.344.156c-.824 0-1.434-.273-1.828-.828-.399-.55-.524-1.297-.375-2.234l.375-2.422c.144-.945.504-1.695 1.078-2.25.582-.55 1.285-.828 2.11-.828.624 0 1.109.156 1.452.469.352.312.52.734.5 1.265h.047l.266-1.875.39-2.406h1.36L6.969 0H5.625l.25-1.578h-.031a2.233 2.233 0 0 1-.89 1.281c-.45.3-.985.453-1.61.453Zm.64-1.172c.563 0 1.032-.171 1.407-.515.375-.352.613-.844.718-1.469l.344-2.25c.102-.625.02-1.11-.25-1.453-.262-.352-.672-.531-1.234-.531-.574 0-1.043.171-1.407.515-.367.344-.605.836-.718 1.469L2.5-3c-.094.637-.012 1.125.25 1.469.258.343.672.515 1.234.515Zm0 0" id="ag"/>
        <path d="M3.484.156c-.855 0-1.5-.195-1.937-.594-.438-.394-.64-.925-.61-1.593h1.344c.02.293.145.531.375.719.239.18.578.265 1.016.265h.64c.52 0 .926-.11 1.22-.328.3-.227.484-.523.546-.89.094-.696-.305-1.126-1.187-1.282l-1.079-.172c-.792-.133-1.359-.379-1.703-.734-.336-.363-.449-.895-.343-1.594.113-.738.441-1.316.984-1.734.54-.414 1.281-.625 2.219-.625h.562c.79 0 1.395.195 1.813.578.426.375.64.883.64 1.516H6.625a.88.88 0 0 0-.36-.641c-.21-.164-.515-.25-.921-.25h-.578c-.512 0-.903.105-1.172.312-.262.2-.418.485-.469.86-.055.343.004.601.172.765.164.168.457.29.875.36l1.078.187c.863.137 1.473.39 1.828.766.352.367.473.906.36 1.625-.125.762-.47 1.367-1.032 1.812-.554.45-1.32.672-2.297.672Zm0 0" id="ah"/>
        <path d="M0 2.703.188 1.47h1.125c.8 0 1.269-.39 1.406-1.172L3.78-6.187H1.22l.187-1.235H3.97l.187-1.125c.114-.738.43-1.32.953-1.75.532-.437 1.204-.656 2.016-.656H9L8.812-9.72h-1.89c-.824 0-1.297.39-1.422 1.172l-.172 1.125h3.203l-.187 1.234H5.125L4.062.298c-.117.738-.437 1.32-.968 1.75-.524.437-1.188.656-2 .656Zm0 0" id="ai"/>
        <path d="m.844 0 1.734-10.953h6.297L8.687-9.72H3.72l-.531 3.39h4.437l-.203 1.22H2.984l-.609 3.875h4.953L7.141 0Zm0 0" id="aj"/>
        <path d="M3.813.156c-.387 0-.672-.11-.86-.328-.187-.226-.25-.523-.187-.89.05-.395.207-.708.468-.938.27-.227.598-.344.985-.344.375 0 .656.117.843.344.188.23.25.543.188.938a1.479 1.479 0 0 1-.484.89 1.435 1.435 0 0 1-.954.328Zm0 0" id="ak"/>
        <path d="M3.813.156c-1.024 0-1.758-.281-2.204-.844C1.16-1.257 1.016-2.03 1.172-3l1.266-7.953H3.78L2.516-3c-.094.605-.024 1.086.218 1.438.239.343.66.515 1.266.515.602 0 1.082-.172 1.438-.516.351-.351.582-.832.687-1.437l1.25-7.953h1.36L7.468-3c-.157.98-.547 1.75-1.172 2.313-.625.562-1.453.843-2.484.843Zm0 0" id="an"/>
        <path d="M.719 0 2.03-8.25h1.344l-.25 1.578h.031c.145-.55.43-.976.86-1.281.437-.3.968-.453 1.593-.453.832 0 1.454.258 1.86.765.406.512.539 1.211.406 2.094L6.985 0H5.64L6.5-5.406c.082-.582-.008-1.035-.266-1.36-.261-.332-.656-.5-1.187-.5-.563 0-1.04.18-1.422.532-.375.355-.621.851-.734 1.484L2.062 0Zm0 0" id="ao"/>
        <path d="M4.813 0c-.731 0-1.278-.21-1.641-.64-.367-.426-.492-.989-.375-1.688l1.156-7.39H1.484l.204-1.235H5.5L4.14-2.328c-.054.344 0 .617.157.812.156.188.394.282.719.282H7.78L7.594 0Zm0 0" id="ap"/>
        <path d="m1.344 2.703.203-1.234h2.625c.82 0 1.289-.39 1.406-1.172l.438-2.625h-.032c-.148.555-.437.98-.875 1.281-.43.305-.953.453-1.578.453-.824 0-1.445-.254-1.86-.765-.417-.508-.554-1.207-.405-2.094L2.03-8.25h1.344l-.734 4.656c-.106.574-.028 1.028.234 1.36.27.336.676.5 1.219.5.562 0 1.035-.176 1.422-.532.382-.351.625-.847.718-1.484l.704-4.5h1.359L6.937.297c-.117.738-.437 1.32-.968 1.75-.532.437-1.203.656-2.016.656Zm0 0" id="aq"/>
        <path d="m.547 0 .187-1.234h2.922l.922-5.782H2.031L2.22-8.25h3.906l-1.11 7.016h2.766L7.594 0Zm5.062-9.734c-.336 0-.586-.082-.75-.25-.156-.176-.214-.41-.171-.704.05-.289.18-.523.39-.703.219-.175.492-.265.828-.265.332 0 .578.09.735.265.164.18.222.414.171.704a.99.99 0 0 1-.39.703c-.219.168-.492.25-.813.25Zm0 0" id="ar"/>
        <path d="M.766 0 2.5-10.953h1.36l-.985 6.11h1.422L7.234-8.25h1.579L5.421-4.281 7.547 0H6L4.187-3.672H2.704L2.11 0Zm0 0" id="as"/>
        <path d="M3.875.156c-1 0-1.746-.281-2.234-.844C1.148-1.25.984-2.02 1.14-3l.78-4.953c.157-.977.567-1.742 1.235-2.297.664-.563 1.5-.844 2.5-.844.977 0 1.711.281 2.203.844.489.563.66 1.328.516 2.297h-1.36c.102-.613.016-1.086-.265-1.422-.273-.344-.703-.516-1.297-.516-.586 0-1.07.168-1.453.5-.387.336-.633.809-.734 1.422L2.484-3c-.093.625 0 1.105.282 1.438.28.335.71.5 1.296.5.594 0 1.079-.165 1.454-.5.382-.333.625-.813.718-1.438h1.36c-.168.969-.586 1.742-1.25 2.313-.668.562-1.492.843-2.469.843Zm0 0" id="at"/>
        <path d="m.719 0 1.734-10.953h2.844c1.062 0 1.851.297 2.375.89.531.594.719 1.391.562 2.391l-.687 4.375a3.982 3.982 0 0 1-.703 1.75 3.698 3.698 0 0 1-1.39 1.14C4.897-.132 4.27 0 3.562 0Zm1.547-1.203H3.75c.656 0 1.203-.18 1.64-.547.438-.375.704-.89.798-1.547l.703-4.375c.101-.644-.008-1.148-.329-1.516-.312-.374-.804-.562-1.468-.562H3.609Zm0 0" id="au"/>
        <path d="m.719 0 1.734-10.953h3.39c.657 0 1.204.137 1.641.406.446.262.77.625.97 1.094.194.469.241 1.023.14 1.656a3.486 3.486 0 0 1-.89 1.922c-.481.531-1.071.898-1.766 1.094L7.516 0H5.984L4.563-4.656h-1.75L2.063 0ZM3-5.86h2.047a2.06 2.06 0 0 0 1.422-.53c.394-.364.64-.833.734-1.407.094-.594 0-1.062-.281-1.406-.281-.352-.703-.531-1.266-.531H3.61Zm0 0" id="av"/>
        <path d="M0 1.5.188.375h7.187L7.203 1.5Zm0 0" id="aw"/>
        <path d="m.094 0 4.593-10.953H6.5L7.594 0H6.266l-.25-2.906H2.703L1.516 0Zm3.062-4.047h2.75l-.312-3.375a32.814 32.814 0 0 1-.125-1.61 17.442 17.442 0 0 1-.032-.843 9.029 9.029 0 0 1-.28.844c-.157.43-.368.96-.626 1.594Zm0 0" id="ax"/>
        <path d="M.766 0 2.5-10.953h6.453L8.766-9.72H3.625l-.578 3.625H7.78l-.187 1.235H2.875L2.109 0Zm0 0" id="ay"/>
        <path d="m5.172 2.703.39-2.406.329-1.875h-.063a2.235 2.235 0 0 1-.89 1.266c-.45.312-.985.468-1.61.468-.836 0-1.45-.273-1.844-.828-.386-.55-.507-1.3-.359-2.25L1.5-5.344c.145-.945.508-1.691 1.094-2.234a2.943 2.943 0 0 1 2.094-.828c.632 0 1.125.156 1.468.469.344.312.504.734.485 1.265h.015l.266-1.578h1.344L6.53 2.703ZM3.969-1.016c.562 0 1.031-.171 1.406-.515.375-.352.613-.844.719-1.469l.343-2.25c.102-.625.02-1.11-.25-1.453-.261-.352-.671-.531-1.234-.531-.574 0-1.043.171-1.406.515-.367.344-.606.836-.719 1.469L2.484-3c-.093.637-.011 1.125.25 1.469.258.343.672.515 1.235.515Zm0 0" id="az"/>
        <path d="M2.922 0 1.547-8.25h1.328l.89 5.547c.051.336.094.652.126.953l.093.719c.07-.176.176-.414.313-.719.144-.3.297-.617.453-.953L7.328-8.25H8.75L4.75 0Zm0 0" id="aA"/>
        <path d="m1.344 2.703.203-1.234h2.625c.812 0 1.281-.39 1.406-1.172L5.75-.75l.266-1.5h-.032c-.136.531-.43.953-.875 1.266-.437.304-.964.453-1.578.453-.855 0-1.484-.274-1.89-.828-.407-.551-.532-1.297-.375-2.235l.265-1.75c.145-.937.508-1.68 1.094-2.234.582-.55 1.297-.828 2.14-.828.633 0 1.118.156 1.454.469.343.312.5.734.468 1.265l.25-1.578h1.344L6.937.297c-.125.738-.453 1.32-.984 1.75-.523.437-1.187.656-2 .656Zm2.765-4.39c.563 0 1.032-.176 1.407-.532.375-.351.609-.836.703-1.453l.25-1.578c.101-.625.02-1.11-.25-1.453-.274-.352-.684-.531-1.235-.531-.574 0-1.043.171-1.406.515-.367.344-.605.836-.719 1.469l-.234 1.578c-.105.637-.027 1.125.234 1.469.258.344.676.515 1.25.515Zm0 0" id="aB"/>
        <path d="m1.406 2.406 1.938-4.672h2.015L2.672 2.406Zm0 0" id="aC"/>
        <path d="m.719 0 1.734-10.953h1.36L3.374-8.25l-.25 1.578h.031c.145-.55.43-.976.86-1.281.437-.3.968-.453 1.593-.453.832 0 1.454.258 1.86.765.406.512.539 1.211.406 2.094L6.985 0H5.64L6.5-5.406c.082-.582-.008-1.035-.266-1.36-.261-.332-.656-.5-1.187-.5-.563 0-1.04.18-1.422.532-.375.355-.621.851-.734 1.484L2.062 0Zm0 0" id="aD"/>
        <path d="m5.828-6.453.328-3.14.219-1.36h1.453l-.219 1.36-.671 3.14Zm-3.031 0 .312-3.14.22-1.36H4.78l-.218 1.36-.657 3.14Zm0 0" id="aE"/>
        <path d="M3.875.156c-1 0-1.746-.281-2.234-.844C1.148-1.25.984-2.02 1.14-3l.78-4.953c.157-.977.567-1.742 1.235-2.297.664-.563 1.5-.844 2.5-.844.977 0 1.711.281 2.203.844.489.563.66 1.328.516 2.297h-1.36c.102-.613.016-1.086-.265-1.422-.273-.344-.703-.516-1.297-.516-.586 0-1.07.168-1.453.5-.387.336-.633.809-.734 1.422L2.484-3c-.093.625 0 1.11.282 1.453.28.336.71.5 1.296.5.594 0 1.079-.164 1.454-.5.382-.344.625-.828.718-1.453l.22-1.344h-2.22l.188-1.234H8L7.594-3a3.904 3.904 0 0 1-.672 1.672c-.336.48-.762.851-1.281 1.11-.524.25-1.11.374-1.766.374Zm0 0" id="aF"/>
        <path d="m1.188 0-.016-8.25h1.156l-.11 5.844c-.011.23-.015.469-.015.719s-.008.464-.015.64c.05-.176.113-.39.187-.64.082-.25.16-.489.234-.72L4.47-8.25h1.328L5.78-2.406v.719c.008.25.008.464 0 .64.04-.176.102-.39.188-.64.082-.25.156-.489.218-.72L7.984-8.25h1.141L6.437 0H4.954l.016-5.703v-1.5a10.2 10.2 0 0 1-.203.672c-.086.273-.172.547-.266.828L2.672 0Zm0 0" id="aG"/>
        <path d="M6.313 1.875C4.957 1.52 3.96.832 3.328-.188c-.625-1.03-.82-2.289-.578-3.78l.438-2.86a7.269 7.269 0 0 1 .984-2.656A6.792 6.792 0 0 1 6.047-11.5a7.186 7.186 0 0 1 2.578-1.172l-.203 1.266a4.575 4.575 0 0 0-1.813.875c-.53.418-.98.945-1.343 1.578a6.239 6.239 0 0 0-.72 2.125l-.452 2.86c-.117.773-.102 1.468.047 2.093.156.625.437 1.148.843 1.563.407.414.922.703 1.547.859Zm0 0" id="aH"/>
        <path d="M.734 0 2.47-10.953h3.11c1 0 1.737.25 2.218.75.488.5.664 1.2.531 2.094-.094.593-.32 1.093-.672 1.5a2.658 2.658 0 0 1-1.36.828c.571.168.99.492 1.25.968.259.481.333 1.07.22 1.766-.149.938-.555 1.684-1.22 2.235C5.892-.27 5.063 0 4.063 0Zm2.313-6.281h1.765c.583 0 1.067-.157 1.454-.469.382-.313.617-.734.703-1.266.082-.53-.016-.945-.297-1.25-.281-.312-.711-.468-1.281-.468H3.594ZM2.25-1.22h1.86c.632 0 1.156-.164 1.562-.5.414-.332.676-.789.781-1.375.082-.594-.027-1.078-.328-1.453-.305-.375-.773-.562-1.406-.562h-1.86Zm0 0" id="aI"/>
        <path d="m.563 0 1.046-3H.344L.5-3.969h1.438l1.015-3H1.5l.156-.984h1.625l1.031-3h1.11l-1.047 3h2.344l1.031-3h1.094l-1.031 3h1.265l-.156.984H7.484l-1.015 3h1.453L7.766-3H6.14L5.094 0H4l1.047-3H2.703L1.672 0ZM3.03-3.969h2.344l1.016-3H4.047Zm0 0" id="aJ"/>
        <path d="M.688 0 .89-1.234h2.968l1.36-8.594L1.89-7.61l.234-1.5 2.781-1.844H6.75L5.203-1.234h2.438L7.437 0Zm0 0" id="aK"/>
        <path d="m2.203 0 5.438-9.719H3.437l-.28 1.766h-1.36l.484-3H9.25l-.203 1.265L3.719 0Zm0 0" id="aL"/>
        <path d="m5.344 0 .375-2.406H.766l.343-2.11 5.016-6.437h1.484l-5.203 6.75-.094.578h3.594l.438-2.672h1.343L6.688 0Zm0 0" id="aM"/>
        <path d="M3.813.156C2.8.156 2.038-.133 1.53-.719c-.5-.594-.672-1.379-.515-2.36l.765-4.796c.114-.656.336-1.223.672-1.703a3.404 3.404 0 0 1 1.328-1.125 4.153 4.153 0 0 1 1.813-.39c1.008 0 1.765.292 2.265.874.508.586.688 1.367.532 2.344l-.766 4.797a3.979 3.979 0 0 1-.688 1.719A3.57 3.57 0 0 1 5.61-.234a4.072 4.072 0 0 1-1.796.39ZM4-1c.602 0 1.113-.191 1.531-.578.426-.383.688-.883.782-1.5l.765-4.797c.102-.613 0-1.11-.312-1.484-.305-.383-.75-.579-1.344-.579-.606 0-1.121.196-1.547.579-.43.375-.688.87-.781 1.484l-.766 4.797c-.105.617 0 1.117.313 1.5C2.953-1.191 3.406-1 4-1Zm.703-3.594a.856.856 0 0 1-.64-.25c-.168-.164-.25-.39-.25-.672 0-.27.082-.488.25-.656a.871.871 0 0 1 .64-.25c.27 0 .488.086.656.25.164.168.25.387.25.656 0 .282-.086.508-.25.672-.168.168-.386.25-.656.25Zm0 0" id="aN"/>
        <path d="M3.844.156c-.711 0-1.309-.148-1.797-.437-.492-.301-.844-.711-1.063-1.235-.21-.53-.257-1.14-.14-1.828.07-.476.226-.969.469-1.469.25-.507.57-1.039.968-1.593l3.344-4.547h1.484L3.344-5.891l.047.047c.226-.27.52-.484.875-.64.351-.164.742-.25 1.171-.25.602 0 1.11.14 1.516.421.414.282.707.672.875 1.172.176.493.211 1.07.11 1.735a4.435 4.435 0 0 1-.75 1.875c-.375.531-.852.949-1.422 1.25a4.215 4.215 0 0 1-1.922.437Zm.172-1.203c.656 0 1.218-.21 1.687-.64.469-.426.754-.989.86-1.688.113-.695.003-1.258-.329-1.688-.336-.425-.828-.64-1.484-.64-.648 0-1.21.215-1.688.64-.468.43-.761.993-.874 1.688-.106.7.007 1.262.343 1.688.344.43.836.64 1.485.64Zm0 0" id="aO"/>
        <path d="M.766 1.875.969.547a4.604 4.604 0 0 0 1.812-.86 5.452 5.452 0 0 0 1.344-1.562c.363-.625.602-1.32.719-2.094l.453-2.86c.125-.788.11-1.5-.047-2.124-.156-.633-.438-1.16-.844-1.578-.406-.426-.922-.719-1.547-.875l.22-1.266c.882.23 1.616.621 2.202 1.172a4.395 4.395 0 0 1 1.25 2.016c.239.793.274 1.68.11 2.656l-.454 2.86a7.317 7.317 0 0 1-.953 2.671 6.728 6.728 0 0 1-1.859 2c-.75.54-1.621.93-2.61 1.172Zm0 0" id="aP"/>
        <clipPath id="aR">
            <path d="M8 525h18v3H8Zm0 0"/>
        </clipPath>
        <clipPath id="aS">
            <path d="M26 525h54v3H26Zm0 0"/>
        </clipPath>
        <clipPath id="aT">
            <path d="M80 525h9v3h-9Zm0 0"/>
        </clipPath>
        <clipPath id="aU">
            <path d="M89 525h144v3H89Zm0 0"/>
        </clipPath>
        <clipPath id="aV">
            <path d="M233 525h18v3h-18Zm0 0"/>
        </clipPath>
        <clipPath id="aW">
            <path d="M251 525h27v3h-27Zm0 0"/>
        </clipPath>
        <clipPath id="aX">
            <path d="M278 525h99v3h-99Zm0 0"/>
        </clipPath>
        <clipPath id="aY">
            <path d="M377 525h18v3h-18Zm0 0"/>
        </clipPath>
        <clipPath id="aZ">
            <path d="M395 525h162v3H395Zm0 0"/>
        </clipPath>
    </defs>
    <path fill="#292929" style="stroke-width:.833333" d="M0 0h819v586H0z"/>
    <path fill="#292929" d="M251 210h9v21h-9ZM8 0h54v21H8Zm0 0"/>
    <g fill="#72ACE5">
        <use xlink:href="#a" x="8" y="16"/>
        <use xlink:href="#b" x="17" y="16"/>
        <use xlink:href="#c" x="26" y="16"/>
        <use xlink:href="#b" x="35" y="16"/>
        <use xlink:href="#d" x="44" y="16"/>
        <use xlink:href="#e" x="53" y="16"/>
    </g>
    <path fill="#292929" d="M62 0h9v21h-9ZM71 0h36v21H71Zm0 0"/>
    <g fill="#B49CE2">
        <use xlink:href="#f" x="71" y="16"/>
        <use xlink:href="#g" x="80" y="16"/>
        <use xlink:href="#d" x="89" y="16"/>
        <use xlink:href="#h" x="98" y="16"/>
    </g>
    <path fill="#292929" d="M107 0h9v21h-9ZM8 21h117v21H8Zm0 0"/>
    <g fill="#E59E8D">
        <use xlink:href="#b" x="8" y="37"/>
        <use xlink:href="#b" x="17" y="37"/>
        <use xlink:href="#i" x="26" y="37"/>
        <use xlink:href="#j" x="35" y="37"/>
        <use xlink:href="#k" x="44" y="37"/>
        <use xlink:href="#d" x="53" y="37"/>
        <use xlink:href="#l" x="62" y="37"/>
        <use xlink:href="#m" x="71" y="37"/>
        <use xlink:href="#j" x="80" y="37"/>
        <use xlink:href="#n" x="89" y="37"/>
        <use xlink:href="#o" x="98" y="37"/>
        <use xlink:href="#p" x="107" y="37"/>
        <use xlink:href="#p" x="116" y="37"/>
    </g>
    <path fill="#292929" d="M125 21h18v21h-18Zm0 0"/>
    <g fill="#D8D8D8">
        <use xlink:href="#q" x="125" y="37"/>
        <use xlink:href="#r" x="134" y="37"/>
    </g>
    <path fill="#292929" d="M143 21h54v21h-54Zm0 0"/>
    <g fill="#72ACE5">
        <use xlink:href="#a" x="143" y="37"/>
        <use xlink:href="#b" x="152" y="37"/>
        <use xlink:href="#k" x="161" y="37"/>
        <use xlink:href="#s" x="170" y="37"/>
        <use xlink:href="#e" x="179" y="37"/>
        <use xlink:href="#b" x="188" y="37"/>
    </g>
    <path fill="#292929" d="M197 21h9v21h-9ZM206 21h45v21h-45Zm0 0"/>
    <g fill="#B49CE2">
        <use xlink:href="#t" x="206" y="37"/>
        <use xlink:href="#k" x="215" y="37"/>
        <use xlink:href="#c" x="224" y="37"/>
        <use xlink:href="#u" x="233" y="37"/>
        <use xlink:href="#o" x="242" y="37"/>
    </g>
    <path fill="#292929" d="M251 21h18v21h-18Zm0 0"/>
    <g fill="#D8D8D8">
        <use xlink:href="#q" x="251" y="37"/>
        <use xlink:href="#v" x="260" y="37"/>
    </g>
    <path fill="#292929" d="M269 21h9v21h-9Zm0 0"/>
    <use xlink:href="#t" x="269" y="37" fill="#E7CC99"/>
    <path fill="#292929" d="M278 21h18v21h-18Zm0 0"/>
    <g fill="#D8D8D8">
        <use xlink:href="#w" x="278" y="37"/>
        <use xlink:href="#q" x="287" y="37"/>
    </g>
    <path fill="#292929" d="M8 42h18v21H8Zm0 0"/>
    <g fill="#D8D8D8">
        <use xlink:href="#x" x="8" y="58"/>
        <use xlink:href="#q" x="17" y="58"/>
    </g>
    <path fill="#292929" d="M8 63h18v21H8ZM26 63h54v21H26Zm0 0"/>
    <g fill="#72ACE5">
        <use xlink:href="#a" x="26" y="79"/>
        <use xlink:href="#b" x="35" y="79"/>
        <use xlink:href="#k" x="44" y="79"/>
        <use xlink:href="#s" x="53" y="79"/>
        <use xlink:href="#e" x="62" y="79"/>
        <use xlink:href="#b" x="71" y="79"/>
    </g>
    <path fill="#292929" d="M80 63h9v21h-9ZM89 63h144v21H89Zm0 0"/>
    <g fill="#B49CE2">
        <use xlink:href="#b" x="89" y="79"/>
        <use xlink:href="#b" x="98" y="79"/>
        <use xlink:href="#i" x="107" y="79"/>
        <use xlink:href="#j" x="116" y="79"/>
        <use xlink:href="#h" x="125" y="79"/>
        <use xlink:href="#d" x="134" y="79"/>
        <use xlink:href="#a" x="143" y="79"/>
        <use xlink:href="#y" x="152" y="79"/>
        <use xlink:href="#p" x="161" y="79"/>
        <use xlink:href="#c" x="170" y="79"/>
        <use xlink:href="#i" x="179" y="79"/>
        <use xlink:href="#j" x="188" y="79"/>
        <use xlink:href="#d" x="197" y="79"/>
        <use xlink:href="#l" x="206" y="79"/>
        <use xlink:href="#t" x="215" y="79"/>
        <use xlink:href="#g" x="224" y="79"/>
    </g>
    <path fill="#292929" d="M233 63h18v21h-18Zm0 0"/>
    <g fill="#D8D8D8">
        <use xlink:href="#q" x="233" y="79"/>
        <use xlink:href="#v" x="242" y="79"/>
    </g>
    <path fill="#292929" d="M251 63h27v21h-27Zm0 0"/>
    <g fill="#E7CC99">
        <use xlink:href="#b" x="251" y="79"/>
        <use xlink:href="#b" x="260" y="79"/>
        <use xlink:href="#i" x="269" y="79"/>
    </g>
    <path fill="#292929" d="M278 63h162v21H278Zm0 0"/>
    <g fill="#D8D8D8">
        <use xlink:href="#q" x="278" y="79"/>
        <use xlink:href="#z" x="287" y="79"/>
        <use xlink:href="#q" x="296" y="79"/>
        <use xlink:href="#A" x="305" y="79"/>
        <use xlink:href="#B" x="314" y="79"/>
        <use xlink:href="#C" x="323" y="79"/>
        <use xlink:href="#D" x="332" y="79"/>
        <use xlink:href="#E" x="341" y="79"/>
        <use xlink:href="#j" x="350" y="79"/>
        <use xlink:href="#F" x="359" y="79"/>
        <use xlink:href="#F" x="368" y="79"/>
        <use xlink:href="#G" x="377" y="79"/>
        <use xlink:href="#q" x="386" y="79"/>
        <use xlink:href="#r" x="395" y="79"/>
        <use xlink:href="#t" x="404" y="79"/>
        <use xlink:href="#w" x="413" y="79"/>
        <use xlink:href="#H" x="422" y="79"/>
        <use xlink:href="#q" x="431" y="79"/>
    </g>
    <path fill="#292929" d="M8 84h9v21H8ZM8 105h18v21H8ZM26 105h18v21H26Zm0 0"/>
    <g fill="#72ACE5">
        <use xlink:href="#d" x="26" y="121"/>
        <use xlink:href="#t" x="35" y="121"/>
    </g>
    <path fill="#292929" d="M44 105h45v21H44Zm0 0"/>
    <g fill="#D8D8D8">
        <use xlink:href="#q" x="44" y="121"/>
        <use xlink:href="#r" x="53" y="121"/>
        <use xlink:href="#b" x="62" y="121"/>
        <use xlink:href="#b" x="71" y="121"/>
        <use xlink:href="#i" x="80" y="121"/>
    </g>
    <path fill="#292929" d="M89 105h18v21H89Zm0 0"/>
    <g fill="#D8D8D8">
        <use xlink:href="#I" x="89" y="121"/>
        <use xlink:href="#J" x="98" y="121"/>
    </g>
    <path fill="#292929" d="M107 105h72v21h-72Zm0 0"/>
    <g fill="#D8D8D8">
        <use xlink:href="#g" x="107" y="121"/>
        <use xlink:href="#s" x="116" y="121"/>
        <use xlink:href="#b" x="125" y="121"/>
        <use xlink:href="#y" x="134" y="121"/>
        <use xlink:href="#s" x="143" y="121"/>
        <use xlink:href="#b" x="152" y="121"/>
        <use xlink:href="#w" x="161" y="121"/>
        <use xlink:href="#q" x="170" y="121"/>
    </g>
    <path fill="#292929" d="M8 126h54v21H8Zm0 0"/>
    <g fill="#D8D8D8">
        <use xlink:href="#q" x="8" y="142"/>
        <use xlink:href="#q" x="17" y="142"/>
        <use xlink:href="#q" x="26" y="142"/>
        <use xlink:href="#q" x="35" y="142"/>
        <use xlink:href="#x" x="44" y="142"/>
        <use xlink:href="#q" x="53" y="142"/>
    </g>
    <path fill="#292929" d="M8 147h207v21H8Zm0 0"/>
    <g fill="#D8D8D8">
        <use xlink:href="#q" x="8" y="163"/>
        <use xlink:href="#q" x="17" y="163"/>
        <use xlink:href="#q" x="26" y="163"/>
        <use xlink:href="#q" x="35" y="163"/>
        <use xlink:href="#q" x="44" y="163"/>
        <use xlink:href="#q" x="53" y="163"/>
        <use xlink:href="#K" x="62" y="163"/>
        <use xlink:href="#L" x="71" y="163"/>
        <use xlink:href="#F" x="80" y="163"/>
        <use xlink:href="#M" x="89" y="163"/>
        <use xlink:href="#L" x="98" y="163"/>
        <use xlink:href="#F" x="107" y="163"/>
        <use xlink:href="#q" x="116" y="163"/>
        <use xlink:href="#r" x="125" y="163"/>
        <use xlink:href="#b" x="134" y="163"/>
        <use xlink:href="#b" x="143" y="163"/>
        <use xlink:href="#i" x="152" y="163"/>
        <use xlink:href="#N" x="161" y="163"/>
        <use xlink:href="#q" x="170" y="163"/>
        <use xlink:href="#r" x="179" y="163"/>
        <use xlink:href="#b" x="188" y="163"/>
        <use xlink:href="#b" x="197" y="163"/>
        <use xlink:href="#i" x="206" y="163"/>
    </g>
    <path fill="#292929" d="M215 147h18v21h-18Zm0 0"/>
    <g fill="#D8D8D8">
        <use xlink:href="#I" x="215" y="163"/>
        <use xlink:href="#J" x="224" y="163"/>
    </g>
    <path fill="#292929" d="M233 147h288v21H233Zm0 0"/>
    <g fill="#D8D8D8">
        <use xlink:href="#F" x="233" y="163"/>
        <use xlink:href="#O" x="242" y="163"/>
        <use xlink:href="#j" x="251" y="163"/>
        <use xlink:href="#f" x="260" y="163"/>
        <use xlink:href="#d" x="269" y="163"/>
        <use xlink:href="#a" x="278" y="163"/>
        <use xlink:href="#d" x="287" y="163"/>
        <use xlink:href="#n" x="296" y="163"/>
        <use xlink:href="#p" x="305" y="163"/>
        <use xlink:href="#o" x="314" y="163"/>
        <use xlink:href="#j" x="323" y="163"/>
        <use xlink:href="#n" x="332" y="163"/>
        <use xlink:href="#o" x="341" y="163"/>
        <use xlink:href="#p" x="350" y="163"/>
        <use xlink:href="#p" x="359" y="163"/>
        <use xlink:href="#q" x="368" y="163"/>
        <use xlink:href="#P" x="377" y="163"/>
        <use xlink:href="#P" x="386" y="163"/>
        <use xlink:href="#q" x="395" y="163"/>
        <use xlink:href="#f" x="404" y="163"/>
        <use xlink:href="#d" x="413" y="163"/>
        <use xlink:href="#a" x="422" y="163"/>
        <use xlink:href="#d" x="431" y="163"/>
        <use xlink:href="#n" x="440" y="163"/>
        <use xlink:href="#p" x="449" y="163"/>
        <use xlink:href="#o" x="458" y="163"/>
        <use xlink:href="#j" x="467" y="163"/>
        <use xlink:href="#n" x="476" y="163"/>
        <use xlink:href="#o" x="485" y="163"/>
        <use xlink:href="#p" x="494" y="163"/>
        <use xlink:href="#p" x="503" y="163"/>
        <use xlink:href="#q" x="512" y="163"/>
    </g>
    <path fill="#292929" d="M8 168h225v21H8Zm0 0"/>
    <g fill="#D8D8D8">
        <use xlink:href="#q" x="8" y="184"/>
        <use xlink:href="#q" x="17" y="184"/>
        <use xlink:href="#q" x="26" y="184"/>
        <use xlink:href="#q" x="35" y="184"/>
        <use xlink:href="#q" x="44" y="184"/>
        <use xlink:href="#q" x="53" y="184"/>
        <use xlink:href="#q" x="62" y="184"/>
        <use xlink:href="#q" x="71" y="184"/>
        <use xlink:href="#q" x="80" y="184"/>
        <use xlink:href="#q" x="89" y="184"/>
        <use xlink:href="#q" x="98" y="184"/>
        <use xlink:href="#q" x="107" y="184"/>
        <use xlink:href="#q" x="116" y="184"/>
        <use xlink:href="#q" x="125" y="184"/>
        <use xlink:href="#q" x="134" y="184"/>
        <use xlink:href="#q" x="143" y="184"/>
        <use xlink:href="#q" x="152" y="184"/>
        <use xlink:href="#q" x="161" y="184"/>
        <use xlink:href="#q" x="170" y="184"/>
        <use xlink:href="#q" x="179" y="184"/>
        <use xlink:href="#Q" x="188" y="184"/>
        <use xlink:href="#q" x="197" y="184"/>
        <use xlink:href="#b" x="206" y="184"/>
        <use xlink:href="#b" x="215" y="184"/>
        <use xlink:href="#i" x="224" y="184"/>
    </g>
    <path fill="#292929" d="M233 168h18v21h-18Zm0 0"/>
    <g fill="#D8D8D8">
        <use xlink:href="#I" x="233" y="184"/>
        <use xlink:href="#J" x="242" y="184"/>
    </g>
    <path fill="#292929" d="M251 168h144v21H251Zm0 0"/>
    <g fill="#D8D8D8">
        <use xlink:href="#F" x="251" y="184"/>
        <use xlink:href="#O" x="260" y="184"/>
        <use xlink:href="#j" x="269" y="184"/>
        <use xlink:href="#f" x="278" y="184"/>
        <use xlink:href="#d" x="287" y="184"/>
        <use xlink:href="#a" x="296" y="184"/>
        <use xlink:href="#d" x="305" y="184"/>
        <use xlink:href="#n" x="314" y="184"/>
        <use xlink:href="#p" x="323" y="184"/>
        <use xlink:href="#o" x="332" y="184"/>
        <use xlink:href="#j" x="341" y="184"/>
        <use xlink:href="#n" x="350" y="184"/>
        <use xlink:href="#o" x="359" y="184"/>
        <use xlink:href="#p" x="368" y="184"/>
        <use xlink:href="#p" x="377" y="184"/>
        <use xlink:href="#q" x="386" y="184"/>
    </g>
    <path fill="#292929" d="M8 189h225v21H8Zm0 0"/>
    <g fill="#D8D8D8">
        <use xlink:href="#q" x="8" y="205"/>
        <use xlink:href="#q" x="17" y="205"/>
        <use xlink:href="#q" x="26" y="205"/>
        <use xlink:href="#q" x="35" y="205"/>
        <use xlink:href="#q" x="44" y="205"/>
        <use xlink:href="#q" x="53" y="205"/>
        <use xlink:href="#q" x="62" y="205"/>
        <use xlink:href="#q" x="71" y="205"/>
        <use xlink:href="#q" x="80" y="205"/>
        <use xlink:href="#q" x="89" y="205"/>
        <use xlink:href="#q" x="98" y="205"/>
        <use xlink:href="#q" x="107" y="205"/>
        <use xlink:href="#q" x="116" y="205"/>
        <use xlink:href="#q" x="125" y="205"/>
        <use xlink:href="#q" x="134" y="205"/>
        <use xlink:href="#q" x="143" y="205"/>
        <use xlink:href="#q" x="152" y="205"/>
        <use xlink:href="#q" x="161" y="205"/>
        <use xlink:href="#q" x="170" y="205"/>
        <use xlink:href="#q" x="179" y="205"/>
        <use xlink:href="#R" x="188" y="205"/>
        <use xlink:href="#q" x="197" y="205"/>
        <use xlink:href="#b" x="206" y="205"/>
        <use xlink:href="#b" x="215" y="205"/>
        <use xlink:href="#i" x="224" y="205"/>
    </g>
    <path fill="#292929" d="M233 189h18v21h-18Zm0 0"/>
    <g fill="#D8D8D8">
        <use xlink:href="#I" x="233" y="205"/>
        <use xlink:href="#J" x="242" y="205"/>
    </g>
    <path fill="#292929" d="M251 189h99v21h-99Zm0 0"/>
    <g fill="#D8D8D8">
        <use xlink:href="#F" x="251" y="205"/>
        <use xlink:href="#O" x="260" y="205"/>
        <use xlink:href="#j" x="269" y="205"/>
        <use xlink:href="#n" x="278" y="205"/>
        <use xlink:href="#o" x="287" y="205"/>
        <use xlink:href="#p" x="296" y="205"/>
        <use xlink:href="#p" x="305" y="205"/>
        <use xlink:href="#w" x="314" y="205"/>
        <use xlink:href="#w" x="323" y="205"/>
        <use xlink:href="#H" x="332" y="205"/>
        <use xlink:href="#q" x="341" y="205"/>
    </g>
    <path fill="#292929" d="M8 210h153v21H8Zm0 0"/>
    <g fill="#D8D8D8">
        <use xlink:href="#q" x="8" y="226"/>
        <use xlink:href="#q" x="17" y="226"/>
        <use xlink:href="#q" x="26" y="226"/>
        <use xlink:href="#q" x="35" y="226"/>
        <use xlink:href="#q" x="44" y="226"/>
        <use xlink:href="#q" x="53" y="226"/>
        <use xlink:href="#t" x="62" y="226"/>
        <use xlink:href="#t" x="71" y="226"/>
        <use xlink:href="#p" x="80" y="226"/>
        <use xlink:href="#s" x="89" y="226"/>
        <use xlink:href="#a" x="98" y="226"/>
        <use xlink:href="#S" x="107" y="226"/>
        <use xlink:href="#q" x="116" y="226"/>
        <use xlink:href="#r" x="125" y="226"/>
        <use xlink:href="#b" x="134" y="226"/>
        <use xlink:href="#b" x="143" y="226"/>
        <use xlink:href="#i" x="152" y="226"/>
    </g>
    <path fill="#292929" d="M161 210h18v21h-18Zm0 0"/>
    <g fill="#D8D8D8">
        <use xlink:href="#I" x="161" y="226"/>
        <use xlink:href="#J" x="170" y="226"/>
    </g>
    <path fill="#292929" d="M179 210h81v21h-81Zm0 0"/>
    <g fill="#D8D8D8">
        <use xlink:href="#g" x="179" y="226"/>
        <use xlink:href="#s" x="188" y="226"/>
        <use xlink:href="#b" x="197" y="226"/>
        <use xlink:href="#y" x="206" y="226"/>
        <use xlink:href="#s" x="215" y="226"/>
        <use xlink:href="#b" x="224" y="226"/>
        <use xlink:href="#w" x="233" y="226"/>
        <use xlink:href="#H" x="242" y="226"/>
        <use xlink:href="#q" x="251" y="226"/>
    </g>
    <path fill="#292929" d="M8 231h54v21H8Zm0 0"/>
    <g fill="#D8D8D8">
        <use xlink:href="#q" x="8" y="247"/>
        <use xlink:href="#q" x="17" y="247"/>
        <use xlink:href="#q" x="26" y="247"/>
        <use xlink:href="#q" x="35" y="247"/>
        <use xlink:href="#T" x="44" y="247"/>
        <use xlink:href="#q" x="53" y="247"/>
    </g>
    <path fill="#292929" d="M8 252h18v21H8Zm0 0"/>
    <g fill="#D8D8D8">
        <use xlink:href="#T" x="8" y="268"/>
        <use xlink:href="#q" x="17" y="268"/>
    </g>
    <path fill="#292929" d="M8 273h9v21H8ZM8 294h27v21H8Zm0 0"/>
    <g fill="#6F6F6F">
        <use xlink:href="#U" x="8" y="310"/>
        <use xlink:href="#v" x="17" y="310"/>
        <use xlink:href="#q" x="26" y="310"/>
    </g>
    <path fill="#292929" d="M35 294h279v21H35Zm0 0"/>
    <g fill="#6F6F6F">
        <use xlink:href="#V" x="35" y="310"/>
        <use xlink:href="#W" x="44" y="310"/>
        <use xlink:href="#X" x="53" y="310"/>
        <use xlink:href="#Y" x="62" y="310"/>
        <use xlink:href="#Z" x="71" y="310"/>
        <use xlink:href="#aa" x="80" y="310"/>
        <use xlink:href="#Y" x="89" y="310"/>
        <use xlink:href="#X" x="98" y="310"/>
        <use xlink:href="#W" x="107" y="310"/>
        <use xlink:href="#ab" x="116" y="310"/>
        <use xlink:href="#ac" x="125" y="310"/>
        <use xlink:href="#ad" x="134" y="310"/>
        <use xlink:href="#ae" x="143" y="310"/>
        <use xlink:href="#aa" x="152" y="310"/>
        <use xlink:href="#Y" x="161" y="310"/>
        <use xlink:href="#ac" x="170" y="310"/>
        <use xlink:href="#af" x="179" y="310"/>
        <use xlink:href="#ag" x="188" y="310"/>
        <use xlink:href="#W" x="197" y="310"/>
        <use xlink:href="#ah" x="206" y="310"/>
        <use xlink:href="#Y" x="215" y="310"/>
        <use xlink:href="#ai" x="224" y="310"/>
        <use xlink:href="#af" x="233" y="310"/>
        <use xlink:href="#ab" x="242" y="310"/>
        <use xlink:href="#Y" x="251" y="310"/>
        <use xlink:href="#aj" x="260" y="310"/>
        <use xlink:href="#ac" x="269" y="310"/>
        <use xlink:href="#ae" x="278" y="310"/>
        <use xlink:href="#ad" x="287" y="310"/>
        <use xlink:href="#ah" x="296" y="310"/>
        <use xlink:href="#ak" x="305" y="310"/>
    </g>
    <path fill="#292929" d="M314 294h27v21h-27Zm0 0"/>
    <g fill="#6F6F6F">
        <use xlink:href="#q" x="314" y="310"/>
        <use xlink:href="#v" x="323" y="310"/>
        <use xlink:href="#U" x="332" y="310"/>
    </g>
    <path fill="#292929" d="M341 294h9v21h-9ZM8 315h9v21H8ZM8 336h54v21H8Zm0 0"/>
    <g fill="#72ACE5">
        <use xlink:href="#a" x="8" y="352"/>
        <use xlink:href="#b" x="17" y="352"/>
        <use xlink:href="#c" x="26" y="352"/>
        <use xlink:href="#b" x="35" y="352"/>
        <use xlink:href="#d" x="44" y="352"/>
        <use xlink:href="#e" x="53" y="352"/>
    </g>
    <path fill="#292929" d="M62 336h9v21h-9ZM71 336h36v21H71Zm0 0"/>
    <g fill="#B49CE2">
        <use xlink:href="#f" x="71" y="352"/>
        <use xlink:href="#g" x="80" y="352"/>
        <use xlink:href="#d" x="89" y="352"/>
        <use xlink:href="#h" x="98" y="352"/>
    </g>
    <path fill="#292929" d="M107 336h9v21h-9ZM8 357h243v21H8Zm0 0"/>
    <g fill="#E59E8D">
        <use xlink:href="#b" x="8" y="373"/>
        <use xlink:href="#b" x="17" y="373"/>
        <use xlink:href="#i" x="26" y="373"/>
        <use xlink:href="#j" x="35" y="373"/>
        <use xlink:href="#a" x="44" y="373"/>
        <use xlink:href="#o" x="53" y="373"/>
        <use xlink:href="#l" x="62" y="373"/>
        <use xlink:href="#h" x="71" y="373"/>
        <use xlink:href="#j" x="80" y="373"/>
        <use xlink:href="#c" x="89" y="373"/>
        <use xlink:href="#h" x="98" y="373"/>
        <use xlink:href="#h" x="107" y="373"/>
        <use xlink:href="#d" x="116" y="373"/>
        <use xlink:href="#b" x="125" y="373"/>
        <use xlink:href="#d" x="134" y="373"/>
        <use xlink:href="#g" x="143" y="373"/>
        <use xlink:href="#l" x="152" y="373"/>
        <use xlink:href="#c" x="161" y="373"/>
        <use xlink:href="#p" x="170" y="373"/>
        <use xlink:href="#j" x="179" y="373"/>
        <use xlink:href="#a" x="188" y="373"/>
        <use xlink:href="#b" x="197" y="373"/>
        <use xlink:href="#k" x="206" y="373"/>
        <use xlink:href="#d" x="215" y="373"/>
        <use xlink:href="#l" x="224" y="373"/>
        <use xlink:href="#m" x="233" y="373"/>
        <use xlink:href="#a" x="242" y="373"/>
    </g>
    <path fill="#292929" d="M251 357h18v21h-18Zm0 0"/>
    <g fill="#D8D8D8">
        <use xlink:href="#q" x="251" y="373"/>
        <use xlink:href="#r" x="260" y="373"/>
    </g>
    <path fill="#292929" d="M269 357h54v21h-54Zm0 0"/>
    <g fill="#72ACE5">
        <use xlink:href="#a" x="269" y="373"/>
        <use xlink:href="#b" x="278" y="373"/>
        <use xlink:href="#k" x="287" y="373"/>
        <use xlink:href="#s" x="296" y="373"/>
        <use xlink:href="#e" x="305" y="373"/>
        <use xlink:href="#b" x="314" y="373"/>
    </g>
    <path fill="#292929" d="M323 357h9v21h-9ZM332 357h72v21h-72Zm0 0"/>
    <g fill="#B49CE2">
        <use xlink:href="#b" x="332" y="373"/>
        <use xlink:href="#o" x="341" y="373"/>
        <use xlink:href="#k" x="350" y="373"/>
        <use xlink:href="#u" x="359" y="373"/>
        <use xlink:href="#d" x="368" y="373"/>
        <use xlink:href="#l" x="377" y="373"/>
        <use xlink:href="#c" x="386" y="373"/>
        <use xlink:href="#p" x="395" y="373"/>
    </g>
    <path fill="#292929" d="M404 357h18v21h-18Zm0 0"/>
    <g fill="#D8D8D8">
        <use xlink:href="#q" x="404" y="373"/>
        <use xlink:href="#v" x="413" y="373"/>
    </g>
    <path fill="#292929" d="M422 357h72v21h-72Zm0 0"/>
    <g fill="#E7CC99">
        <use xlink:href="#b" x="422" y="373"/>
        <use xlink:href="#o" x="431" y="373"/>
        <use xlink:href="#k" x="440" y="373"/>
        <use xlink:href="#u" x="449" y="373"/>
        <use xlink:href="#d" x="458" y="373"/>
        <use xlink:href="#l" x="467" y="373"/>
        <use xlink:href="#c" x="476" y="373"/>
        <use xlink:href="#p" x="485" y="373"/>
    </g>
    <path fill="#292929" d="M494 357h18v21h-18Zm0 0"/>
    <g fill="#D8D8D8">
        <use xlink:href="#N" x="494" y="373"/>
        <use xlink:href="#q" x="503" y="373"/>
    </g>
    <path fill="#292929" d="M512 357h99v21h-99Zm0 0"/>
    <g fill="#B49CE2">
        <use xlink:href="#al" x="512" y="373"/>
        <use xlink:href="#d" x="521" y="373"/>
        <use xlink:href="#a" x="530" y="373"/>
        <use xlink:href="#y" x="539" y="373"/>
        <use xlink:href="#j" x="548" y="373"/>
        <use xlink:href="#K" x="557" y="373"/>
        <use xlink:href="#n" x="566" y="373"/>
        <use xlink:href="#am" x="575" y="373"/>
        <use xlink:href="#o" x="584" y="373"/>
        <use xlink:href="#e" x="593" y="373"/>
        <use xlink:href="#b" x="602" y="373"/>
    </g>
    <path fill="#292929" d="M611 357h9v21h-9ZM620 357h27v21h-27Zm0 0"/>
    <g fill="#E7CC99">
        <use xlink:href="#a" x="620" y="373"/>
        <use xlink:href="#i" x="629" y="373"/>
        <use xlink:href="#u" x="638" y="373"/>
    </g>
    <path fill="#292929" d="M647 357h18v21h-18Zm0 0"/>
    <g fill="#D8D8D8">
        <use xlink:href="#w" x="647" y="373"/>
        <use xlink:href="#q" x="656" y="373"/>
    </g>
    <path fill="#292929" d="M8 378h18v21H8Zm0 0"/>
    <g fill="#D8D8D8">
        <use xlink:href="#x" x="8" y="394"/>
        <use xlink:href="#q" x="17" y="394"/>
    </g>
    <path fill="#292929" d="M8 399h18v21H8ZM26 399h27v21H26Zm0 0"/>
    <g fill="#6F6F6F">
        <use xlink:href="#U" x="26" y="415"/>
        <use xlink:href="#v" x="35" y="415"/>
        <use xlink:href="#q" x="44" y="415"/>
    </g>
    <path fill="#292929" d="M53 399h567v21H53Zm0 0"/>
    <g fill="#6F6F6F">
        <use xlink:href="#an" x="53" y="415"/>
        <use xlink:href="#ah" x="62" y="415"/>
        <use xlink:href="#W" x="71" y="415"/>
        <use xlink:href="#Y" x="80" y="415"/>
        <use xlink:href="#af" x="89" y="415"/>
        <use xlink:href="#ao" x="98" y="415"/>
        <use xlink:href="#ap" x="107" y="415"/>
        <use xlink:href="#aq" x="116" y="415"/>
        <use xlink:href="#Y" x="125" y="415"/>
        <use xlink:href="#ae" x="134" y="415"/>
        <use xlink:href="#ad" x="143" y="415"/>
        <use xlink:href="#ad" x="152" y="415"/>
        <use xlink:href="#W" x="161" y="415"/>
        <use xlink:href="#ah" x="170" y="415"/>
        <use xlink:href="#ah" x="179" y="415"/>
        <use xlink:href="#af" x="188" y="415"/>
        <use xlink:href="#ab" x="197" y="415"/>
        <use xlink:href="#ah" x="206" y="415"/>
        <use xlink:href="#Y" x="215" y="415"/>
        <use xlink:href="#ap" x="224" y="415"/>
        <use xlink:href="#ar" x="233" y="415"/>
        <use xlink:href="#as" x="242" y="415"/>
        <use xlink:href="#W" x="251" y="415"/>
        <use xlink:href="#Y" x="260" y="415"/>
        <use xlink:href="#at" x="269" y="415"/>
        <use xlink:href="#au" x="278" y="415"/>
        <use xlink:href="#av" x="287" y="415"/>
        <use xlink:href="#aw" x="296" y="415"/>
        <use xlink:href="#V" x="305" y="415"/>
        <use xlink:href="#ax" x="314" y="415"/>
        <use xlink:href="#ay" x="323" y="415"/>
        <use xlink:href="#aj" x="332" y="415"/>
        <use xlink:href="#Y" x="341" y="415"/>
        <use xlink:href="#ae" x="350" y="415"/>
        <use xlink:href="#ao" x="359" y="415"/>
        <use xlink:href="#ag" x="368" y="415"/>
        <use xlink:href="#Y" x="377" y="415"/>
        <use xlink:href="#ae" x="386" y="415"/>
        <use xlink:href="#ah" x="395" y="415"/>
        <use xlink:href="#ah" x="404" y="415"/>
        <use xlink:href="#az" x="413" y="415"/>
        <use xlink:href="#aw" x="422" y="415"/>
        <use xlink:href="#ao" x="431" y="415"/>
        <use xlink:href="#af" x="440" y="415"/>
        <use xlink:href="#aw" x="449" y="415"/>
        <use xlink:href="#az" x="458" y="415"/>
        <use xlink:href="#Z" x="467" y="415"/>
        <use xlink:href="#ar" x="476" y="415"/>
        <use xlink:href="#X" x="485" y="415"/>
        <use xlink:href="#Y" x="494" y="415"/>
        <use xlink:href="#X" x="503" y="415"/>
        <use xlink:href="#af" x="512" y="415"/>
        <use xlink:href="#Y" x="521" y="415"/>
        <use xlink:href="#ae" x="530" y="415"/>
        <use xlink:href="#aA" x="539" y="415"/>
        <use xlink:href="#af" x="548" y="415"/>
        <use xlink:href="#ar" x="557" y="415"/>
        <use xlink:href="#ag" x="566" y="415"/>
        <use xlink:href="#Y" x="575" y="415"/>
        <use xlink:href="#ae" x="584" y="415"/>
        <use xlink:href="#ao" x="593" y="415"/>
        <use xlink:href="#aq" x="602" y="415"/>
        <use xlink:href="#Y" x="611" y="415"/>
    </g>
    <path fill="#292929" d="M8 420h621v21H8Zm0 0"/>
    <g fill="#6F6F6F">
        <use xlink:href="#Y" x="8" y="436"/>
        <use xlink:href="#Y" x="17" y="436"/>
        <use xlink:href="#Y" x="26" y="436"/>
        <use xlink:href="#Y" x="35" y="436"/>
        <use xlink:href="#Y" x="44" y="436"/>
        <use xlink:href="#ai" x="53" y="436"/>
        <use xlink:href="#af" x="62" y="436"/>
        <use xlink:href="#ab" x="71" y="436"/>
        <use xlink:href="#ac" x="80" y="436"/>
        <use xlink:href="#Y" x="89" y="436"/>
        <use xlink:href="#af" x="98" y="436"/>
        <use xlink:href="#ai" x="107" y="436"/>
        <use xlink:href="#Y" x="116" y="436"/>
        <use xlink:href="#az" x="125" y="436"/>
        <use xlink:href="#Z" x="134" y="436"/>
        <use xlink:href="#ar" x="143" y="436"/>
        <use xlink:href="#X" x="152" y="436"/>
        <use xlink:href="#X" x="161" y="436"/>
        <use xlink:href="#ar" x="170" y="436"/>
        <use xlink:href="#ao" x="179" y="436"/>
        <use xlink:href="#aB" x="188" y="436"/>
        <use xlink:href="#Y" x="197" y="436"/>
        <use xlink:href="#af" x="206" y="436"/>
        <use xlink:href="#ab" x="215" y="436"/>
        <use xlink:href="#Y" x="224" y="436"/>
        <use xlink:href="#ah" x="233" y="436"/>
        <use xlink:href="#ar" x="242" y="436"/>
        <use xlink:href="#aB" x="251" y="436"/>
        <use xlink:href="#ao" x="260" y="436"/>
        <use xlink:href="#ae" x="269" y="436"/>
        <use xlink:href="#ap" x="278" y="436"/>
        <use xlink:href="#ar" x="287" y="436"/>
        <use xlink:href="#ao" x="296" y="436"/>
        <use xlink:href="#aB" x="305" y="436"/>
        <use xlink:href="#Y" x="314" y="436"/>
        <use xlink:href="#ae" x="323" y="436"/>
        <use xlink:href="#ao" x="332" y="436"/>
        <use xlink:href="#Y" x="341" y="436"/>
        <use xlink:href="#W" x="350" y="436"/>
        <use xlink:href="#ab" x="359" y="436"/>
        <use xlink:href="#ab" x="368" y="436"/>
        <use xlink:href="#af" x="377" y="436"/>
        <use xlink:href="#ab" x="386" y="436"/>
        <use xlink:href="#aC" x="395" y="436"/>
        <use xlink:href="#Y" x="404" y="436"/>
        <use xlink:href="#ah" x="413" y="436"/>
        <use xlink:href="#ar" x="422" y="436"/>
        <use xlink:href="#ao" x="431" y="436"/>
        <use xlink:href="#ad" x="440" y="436"/>
        <use xlink:href="#W" x="449" y="436"/>
        <use xlink:href="#Y" x="458" y="436"/>
        <use xlink:href="#X" x="467" y="436"/>
        <use xlink:href="#aD" x="476" y="436"/>
        <use xlink:href="#ar" x="485" y="436"/>
        <use xlink:href="#ah" x="494" y="436"/>
        <use xlink:href="#Y" x="503" y="436"/>
        <use xlink:href="#ai" x="512" y="436"/>
        <use xlink:href="#Z" x="521" y="436"/>
        <use xlink:href="#ao" x="530" y="436"/>
        <use xlink:href="#ad" x="539" y="436"/>
        <use xlink:href="#X" x="548" y="436"/>
        <use xlink:href="#ar" x="557" y="436"/>
        <use xlink:href="#af" x="566" y="436"/>
        <use xlink:href="#ao" x="575" y="436"/>
        <use xlink:href="#Y" x="584" y="436"/>
        <use xlink:href="#ad" x="593" y="436"/>
        <use xlink:href="#ae" x="602" y="436"/>
        <use xlink:href="#ao" x="611" y="436"/>
        <use xlink:href="#Y" x="620" y="436"/>
    </g>
    <path fill="#292929" d="M8 441h612v21H8Zm0 0"/>
    <g fill="#6F6F6F">
        <use xlink:href="#Y" x="8" y="457"/>
        <use xlink:href="#Y" x="17" y="457"/>
        <use xlink:href="#Y" x="26" y="457"/>
        <use xlink:href="#Y" x="35" y="457"/>
        <use xlink:href="#Y" x="44" y="457"/>
        <use xlink:href="#ab" x="53" y="457"/>
        <use xlink:href="#Z" x="62" y="457"/>
        <use xlink:href="#ao" x="71" y="457"/>
        <use xlink:href="#Y" x="80" y="457"/>
        <use xlink:href="#ae" x="89" y="457"/>
        <use xlink:href="#ah" x="98" y="457"/>
        <use xlink:href="#Y" x="107" y="457"/>
        <use xlink:href="#aa" x="116" y="457"/>
        <use xlink:href="#ae" x="125" y="457"/>
        <use xlink:href="#ab" x="134" y="457"/>
        <use xlink:href="#X" x="143" y="457"/>
        <use xlink:href="#Y" x="152" y="457"/>
        <use xlink:href="#af" x="161" y="457"/>
        <use xlink:href="#ai" x="170" y="457"/>
        <use xlink:href="#Y" x="179" y="457"/>
        <use xlink:href="#X" x="188" y="457"/>
        <use xlink:href="#aD" x="197" y="457"/>
        <use xlink:href="#W" x="206" y="457"/>
        <use xlink:href="#Y" x="215" y="457"/>
        <use xlink:href="#aE" x="224" y="457"/>
        <use xlink:href="#W" x="233" y="457"/>
        <use xlink:href="#ac" x="242" y="457"/>
        <use xlink:href="#W" x="251" y="457"/>
        <use xlink:href="#ab" x="260" y="457"/>
        <use xlink:href="#aB" x="269" y="457"/>
        <use xlink:href="#W" x="278" y="457"/>
        <use xlink:href="#ao" x="287" y="457"/>
        <use xlink:href="#ad" x="296" y="457"/>
        <use xlink:href="#aq" x="305" y="457"/>
        <use xlink:href="#Y" x="314" y="457"/>
        <use xlink:href="#W" x="323" y="457"/>
        <use xlink:href="#ah" x="332" y="457"/>
        <use xlink:href="#ad" x="341" y="457"/>
        <use xlink:href="#ae" x="350" y="457"/>
        <use xlink:href="#aa" x="359" y="457"/>
        <use xlink:href="#W" x="368" y="457"/>
        <use xlink:href="#aE" x="377" y="457"/>
        <use xlink:href="#Y" x="386" y="457"/>
        <use xlink:href="#aa" x="395" y="457"/>
        <use xlink:href="#ab" x="404" y="457"/>
        <use xlink:href="#af" x="413" y="457"/>
        <use xlink:href="#ad" x="422" y="457"/>
        <use xlink:href="#W" x="431" y="457"/>
        <use xlink:href="#ag" x="440" y="457"/>
        <use xlink:href="#Z" x="449" y="457"/>
        <use xlink:href="#ab" x="458" y="457"/>
        <use xlink:href="#W" x="467" y="457"/>
        <use xlink:href="#Y" x="476" y="457"/>
        <use xlink:href="#ar" x="485" y="457"/>
        <use xlink:href="#ao" x="494" y="457"/>
        <use xlink:href="#aA" x="503" y="457"/>
        <use xlink:href="#af" x="512" y="457"/>
        <use xlink:href="#as" x="521" y="457"/>
        <use xlink:href="#W" x="530" y="457"/>
        <use xlink:href="#ag" x="539" y="457"/>
        <use xlink:href="#Y" x="548" y="457"/>
        <use xlink:href="#ar" x="557" y="457"/>
        <use xlink:href="#ao" x="566" y="457"/>
        <use xlink:href="#Y" x="575" y="457"/>
        <use xlink:href="#X" x="584" y="457"/>
        <use xlink:href="#aD" x="593" y="457"/>
        <use xlink:href="#W" x="602" y="457"/>
        <use xlink:href="#Y" x="611" y="457"/>
    </g>
    <path fill="#292929" d="M8 462h450v21H8Zm0 0"/>
    <g fill="#6F6F6F">
        <use xlink:href="#Y" x="8" y="478"/>
        <use xlink:href="#Y" x="17" y="478"/>
        <use xlink:href="#Y" x="26" y="478"/>
        <use xlink:href="#Y" x="35" y="478"/>
        <use xlink:href="#Y" x="44" y="478"/>
        <use xlink:href="#ac" x="53" y="478"/>
        <use xlink:href="#ar" x="62" y="478"/>
        <use xlink:href="#ag" x="71" y="478"/>
        <use xlink:href="#ag" x="80" y="478"/>
        <use xlink:href="#ap" x="89" y="478"/>
        <use xlink:href="#W" x="98" y="478"/>
        <use xlink:href="#Y" x="107" y="478"/>
        <use xlink:href="#af" x="116" y="478"/>
        <use xlink:href="#ai" x="125" y="478"/>
        <use xlink:href="#Y" x="134" y="478"/>
        <use xlink:href="#aF" x="143" y="478"/>
        <use xlink:href="#at" x="152" y="478"/>
        <use xlink:href="#aC" x="161" y="478"/>
        <use xlink:href="#Y" x="170" y="478"/>
        <use xlink:href="#aG" x="179" y="478"/>
        <use xlink:href="#aD" x="188" y="478"/>
        <use xlink:href="#W" x="197" y="478"/>
        <use xlink:href="#ab" x="206" y="478"/>
        <use xlink:href="#W" x="215" y="478"/>
        <use xlink:href="#Y" x="224" y="478"/>
        <use xlink:href="#az" x="233" y="478"/>
        <use xlink:href="#Z" x="242" y="478"/>
        <use xlink:href="#ar" x="251" y="478"/>
        <use xlink:href="#X" x="260" y="478"/>
        <use xlink:href="#X" x="269" y="478"/>
        <use xlink:href="#ar" x="278" y="478"/>
        <use xlink:href="#ao" x="287" y="478"/>
        <use xlink:href="#aB" x="296" y="478"/>
        <use xlink:href="#Y" x="305" y="478"/>
        <use xlink:href="#ac" x="314" y="478"/>
        <use xlink:href="#W" x="323" y="478"/>
        <use xlink:href="#ae" x="332" y="478"/>
        <use xlink:href="#ao" x="341" y="478"/>
        <use xlink:href="#ah" x="350" y="478"/>
        <use xlink:href="#Y" x="359" y="478"/>
        <use xlink:href="#ad" x="368" y="478"/>
        <use xlink:href="#ab" x="377" y="478"/>
        <use xlink:href="#ae" x="386" y="478"/>
        <use xlink:href="#ah" x="395" y="478"/>
        <use xlink:href="#aD" x="404" y="478"/>
        <use xlink:href="#ar" x="413" y="478"/>
        <use xlink:href="#ao" x="422" y="478"/>
        <use xlink:href="#aB" x="431" y="478"/>
        <use xlink:href="#Y" x="440" y="478"/>
        <use xlink:href="#aH" x="449" y="478"/>
    </g>
    <path fill="#292929" d="M458 462h81v21h-81Zm0 0"/>
    <g fill="#72ACE5">
        <use xlink:href="#aI" x="458" y="478"/>
        <use xlink:href="#Z" x="467" y="478"/>
        <use xlink:href="#aB" x="476" y="478"/>
        <use xlink:href="#aJ" x="485" y="478"/>
        <use xlink:href="#aK" x="494" y="478"/>
        <use xlink:href="#aL" x="503" y="478"/>
        <use xlink:href="#aM" x="512" y="478"/>
        <use xlink:href="#aN" x="521" y="478"/>
        <use xlink:href="#aO" x="530" y="478"/>
    </g>
    <path fill="#72ACE5" d="M458 480h81v1h-81Zm0 0"/>
    <path fill="#292929" d="M539 462h18v21h-18Zm0 0"/>
    <g fill="#6F6F6F">
        <use xlink:href="#aP" x="539" y="478"/>
        <use xlink:href="#ak" x="548" y="478"/>
    </g>
    <path fill="#292929" d="M557 462h36v21h-36Zm0 0"/>
    <g fill="#6F6F6F">
        <use xlink:href="#q" x="557" y="478"/>
        <use xlink:href="#q" x="566" y="478"/>
        <use xlink:href="#v" x="575" y="478"/>
        <use xlink:href="#U" x="584" y="478"/>
    </g>
    <path fill="#292929" d="M593 462h9v21h-9ZM8 483h18v21H8ZM26 483h18v21H26Zm0 0"/>
    <g fill="#72ACE5">
        <use xlink:href="#d" x="26" y="499"/>
        <use xlink:href="#t" x="35" y="499"/>
    </g>
    <path fill="#292929" d="M44 483h18v21H44Zm0 0"/>
    <g fill="#D8D8D8">
        <use xlink:href="#q" x="44" y="499"/>
        <use xlink:href="#r" x="53" y="499"/>
    </g>
    <path fill="#292929" d="M62 483h9v21h-9Zm0 0"/>
    <use xlink:href="#aQ" x="62" y="499" fill="#E59E8D"/>
    <path fill="#292929" d="M71 483h81v21H71Zm0 0"/>
    <g fill="#D8D8D8">
        <use xlink:href="#q" x="71" y="499"/>
        <use xlink:href="#b" x="80" y="499"/>
        <use xlink:href="#o" x="89" y="499"/>
        <use xlink:href="#k" x="98" y="499"/>
        <use xlink:href="#u" x="107" y="499"/>
        <use xlink:href="#d" x="116" y="499"/>
        <use xlink:href="#l" x="125" y="499"/>
        <use xlink:href="#c" x="134" y="499"/>
        <use xlink:href="#p" x="143" y="499"/>
    </g>
    <path fill="#292929" d="M152 483h18v21h-18Zm0 0"/>
    <g fill="#D8D8D8">
        <use xlink:href="#I" x="152" y="499"/>
        <use xlink:href="#J" x="161" y="499"/>
    </g>
    <path fill="#292929" d="M170 483h54v21h-54Zm0 0"/>
    <g fill="#D8D8D8">
        <use xlink:href="#l" x="170" y="499"/>
        <use xlink:href="#c" x="179" y="499"/>
        <use xlink:href="#u" x="188" y="499"/>
        <use xlink:href="#o" x="197" y="499"/>
        <use xlink:href="#w" x="206" y="499"/>
        <use xlink:href="#q" x="215" y="499"/>
    </g>
    <path fill="#292929" d="M8 504h36v21H8ZM44 504h54v21H44Zm0 0"/>
    <g fill="#72ACE5">
        <use xlink:href="#k" x="44" y="520"/>
        <use xlink:href="#o" x="53" y="520"/>
        <use xlink:href="#b" x="62" y="520"/>
        <use xlink:href="#s" x="71" y="520"/>
        <use xlink:href="#k" x="80" y="520"/>
        <use xlink:href="#l" x="89" y="520"/>
    </g>
    <path fill="#292929" d="M98 504h18v21H98Zm0 0"/>
    <g fill="#D8D8D8">
        <use xlink:href="#H" x="98" y="520"/>
        <use xlink:href="#q" x="107" y="520"/>
    </g>
    <g clip-path="url(#aR)">
        <path fill="#292929" d="M8 525h18v21H8Zm0 0"/>
    </g>
    <g clip-path="url(#aS)">
        <path fill="#292929" d="M26 525h54v21H26Zm0 0"/>
    </g>
    <g clip-path="url(#aT)">
        <path fill="#292929" d="M80 525h9v21h-9Zm0 0"/>
    </g>
    <g clip-path="url(#aU)">
        <path fill="#292929" d="M89 525h144v21H89Zm0 0"/>
    </g>
    <g clip-path="url(#aV)">
        <path fill="#292929" d="M233 525h18v21h-18Zm0 0"/>
    </g>
    <g clip-path="url(#aW)">
        <path fill="#292929" d="M251 525h27v21h-27Zm0 0"/>
    </g>
    <g clip-path="url(#aX)">
        <path fill="#292929" d="M278 525h99v21h-99Zm0 0"/>
    </g>
    <g clip-path="url(#aY)">
        <path fill="#292929" d="M377 525h18v21h-18Zm0 0"/>
    </g>
    <g clip-path="url(#aZ)">
        <path fill="#292929" d="M395 525h162v21H395Zm0 0"/>
    </g>
    <path d="M0 528v37h819v-37H71z" style="fill:#3d4a74;fill-opacity:1"/>
    <g fill="#9A9FB0">
        <use xlink:href="#q" x="8" y="552"/>
        <use xlink:href="#ba" x="17" y="552"/>
        <use xlink:href="#q" x="26" y="552"/>
        <use xlink:href="#ba" x="35" y="552"/>
        <use xlink:href="#R" x="44" y="552"/>
        <use xlink:href="#q" x="53" y="552"/>
        <use xlink:href="#q" x="62" y="552"/>
    </g>
    <g fill="#D8D8D8">
        <use xlink:href="#b" x="71" y="552"/>
        <use xlink:href="#o" x="80" y="552"/>
        <use xlink:href="#k" x="89" y="552"/>
        <use xlink:href="#u" x="98" y="552"/>
        <use xlink:href="#bb" x="107" y="552"/>
        <use xlink:href="#e" x="116" y="552"/>
        <use xlink:href="#q" x="125" y="552"/>
    </g>
    <g fill="#9A9FB0">
        <use xlink:href="#q" x="134" y="552"/>
        <use xlink:href="#q" x="143" y="552"/>
        <use xlink:href="#q" x="152" y="552"/>
        <use xlink:href="#bc" x="161" y="552"/>
        <use xlink:href="#bd" x="170" y="552"/>
        <use xlink:href="#be" x="179" y="552"/>
        <use xlink:href="#R" x="188" y="552"/>
        <use xlink:href="#bf" x="197" y="552"/>
        <use xlink:href="#bg" x="206" y="552"/>
        <use xlink:href="#q" x="215" y="552"/>
        <use xlink:href="#q" x="224" y="552"/>
        <use xlink:href="#q" x="233" y="552"/>
        <use xlink:href="#q" x="242" y="552"/>
        <use xlink:href="#bd" x="251" y="552"/>
        <use xlink:href="#bh" x="260" y="552"/>
        <use xlink:href="#q" x="269" y="552"/>
        <use xlink:href="#q" x="278" y="552"/>
        <use xlink:href="#q" x="287" y="552"/>
        <use xlink:href="#bi" x="296" y="552"/>
        <use xlink:href="#U" x="305" y="552"/>
        <use xlink:href="#v" x="314" y="552"/>
        <use xlink:href="#p" x="323" y="552"/>
        <use xlink:href="#q" x="332" y="552"/>
        <use xlink:href="#q" x="341" y="552"/>
        <use xlink:href="#q" x="350" y="552"/>
        <use xlink:href="#q" x="359" y="552"/>
        <use xlink:href="#q" x="368" y="552"/>
        <use xlink:href="#q" x="377" y="552"/>
        <use xlink:href="#q" x="386" y="552"/>
        <use xlink:href="#q" x="395" y="552"/>
    </g>
    <g fill="#9A9FB0">
        <use xlink:href="#q" x="708" y="552"/>
        <use xlink:href="#bj" x="717" y="552"/>
        <use xlink:href="#d" x="726" y="552"/>
        <use xlink:href="#b" x="735" y="552"/>
        <use xlink:href="#ba" x="744" y="552"/>
        <use xlink:href="#u" x="753" y="552"/>
        <use xlink:href="#c" x="762" y="552"/>
        <use xlink:href="#a" x="771" y="552"/>
        <use xlink:href="#b" x="780" y="552"/>
        <use xlink:href="#o" x="789" y="552"/>
        <use xlink:href="#k" x="798" y="552"/>
        <use xlink:href="#q" x="807" y="552"/>
        <use xlink:href="#q" x="816" y="552"/>
    </g>
    <path fill="#72ACE5" d="M251 210h9v21h-9Zm0 0"/>
</svg>
