<svg height="792pt" viewBox="0 0 926 792" width="926pt" xmlns="http://www.w3.org/2000/svg" xmlns:xlink="http://www.w3.org/1999/xlink">
  <clipPath id="a">
    <path d="m31 723h6v5h-6zm0 0"/>
  </clipPath>
  <clipPath id="b">
    <path d="m38 725h29v3h-29zm0 0"/>
  </clipPath>
  <clipPath id="c">
    <path d="m81 723h6v5h-6zm0 0"/>
  </clipPath>
  <clipPath id="d">
    <path d="m91 723h6v5h-6zm0 0"/>
  </clipPath>
  <clipPath id="e">
    <path d="m99 725h59v3h-59zm0 0"/>
  </clipPath>
  <clipPath id="f">
    <path d="m171 723h6v5h-6zm0 0"/>
  </clipPath>
  <clipPath id="g">
    <path d="m179 725h239v3h-239zm0 0"/>
  </clipPath>
  <clipPath id="h">
    <path d="m419 723h7v5h-7zm0 0"/>
  </clipPath>
  <clipPath id="i">
    <path d="m429 723h7v5h-7zm0 0"/>
  </clipPath>
  <symbol id="j" overflow="visible">
    <path d="m8.25 2.04688c-1.61719-.40625-2.87109-1.19532-3.76562-2.35938-.89844-1.16406-1.34375-2.59375-1.34375-4.28125v-3.0625c0-1.10156.20703-2.10156.625-3 .41406-.90625 1.0039-1.67188 1.76562-2.29688.76953-.625 1.67578-1.0664 2.71875-1.32812v1.45312c-.73047.16797-1.35937.49219-1.89062.96875-.53125.48047-.94922 1.07813-1.25 1.79688-.29297.71094-.4375 1.51172-.4375 2.40625v3.0625c0 .875.14453 1.67187.4375 2.39062.28906.71094.70312 1.29688 1.23437 1.76563.53906.46875 1.17578.78906 1.90625.96875zm0 0"/>
  </symbol>
  <symbol id="k" overflow="visible">
    <path d="m4.5625.17188c-.9375 0-1.69531-.31251-2.26562-.93751-.57422-.625-.85938-1.46875-.85938-2.53125v-2.73437c0-1.08203.28125-1.92969.84375-2.54688.57031-.625 1.33203-.9375 2.28125-.9375.69531 0 1.26953.17969 1.71875.53125.45703.34375.72656.82032.8125 1.42188h.04688l-.03125-2.125v-2.71875h1.53125v12.40625h-1.53125v-1.78125h-.01563c-.08594.61719-.35547 1.09375-.8125 1.4375-.44922.34375-1.02344.51563-1.71875.51563zm.5-1.32813c.63281 0 1.13281-.19531 1.5-.59375.36328-.39453.54688-.94531.54688-1.65625v-2.54688c0-.69531-.1836-1.24218-.54688-1.64062-.36719-.39453-.86719-.59375-1.5-.59375-.64844 0-1.15625.19531-1.53125.57812-.375.38672-.5625.9375-.5625 1.65625v2.54688c0 .73047.1875 1.28906.5625 1.67187.375.38672.88281.57813 1.53125.57813zm0 0"/>
  </symbol>
  <symbol id="l" overflow="visible">
    <path d="m5.09375.17188c-.73047 0-1.37109-.14844-1.92187-.43751-.55469-.30078-.98047-.71875-1.28125-1.25-.30469-.53906-.45313-1.17187-.45313-1.89062v-2.54688c0-.71875.14844-1.34375.45313-1.875.30078-.53906.72656-.95703 1.28125-1.25.55078-.28906 1.1914-.4375 1.92187-.4375.73828 0 1.38281.14844 1.9375.4375.55078.29297.97266.71094 1.26563 1.25.30078.53125.45312 1.15625.45312 1.875v1.65625h-5.8125v.89063c0 .74219.1875 1.30859.5625 1.70312.375.38672.90625.57813 1.59375.57813.59375 0 1.07031-.10156 1.4375-.3125.36328-.20703.58203-.51953.65625-.9375h1.53125c-.10547.78125-.49219 1.40234-1.15625 1.85937-.65625.46094-1.48047.68751-2.46875.68751zm-2.15625-5.62501h4.32813v-.5c0-.73828-.1875-1.30468-.5625-1.70312-.36719-.39453-.90235-.59375-1.60938-.59375-.6875 0-1.21875.19922-1.59375.59375-.375.39844-.5625.96484-.5625 1.70312zm0 0"/>
  </symbol>
  <symbol id="m" overflow="visible">
    <path d="m3.73438 0v-7.01563h-2.71875v-1.40625h2.71875v-1.60937c0-.73828.23437-1.31641.70312-1.73438.46875-.42578 1.10938-.64062 1.92188-.64062h2.73437v1.39062h-2.73437c-.73047 0-1.09375.32813-1.09375.98438v1.60937h3.82812v1.40625h-3.82812v7.01563zm0 0"/>
  </symbol>
  <symbol id="n" overflow="visible">
    <path d="m6.125 0c-.77344 0-1.39062-.22266-1.85937-.67188-.46875-.44531-.70313-1.04687-.70313-1.79687v-5.48438h-2.625v-1.39062h2.625v-2.64063h1.53125v2.64063h3.75v1.39062h-3.75v5.48438c0 .32422.09375.58594.28125.78125.1875.19922.4375.29687.75.29687h2.54688v1.39063zm0 0"/>
  </symbol>
  <symbol id="o" overflow="visible">
    <path d="m1.5625 0v-12.40625h1.53125v4.84375h.01563c.08203-.625.33593-1.10156.76562-1.4375.42578-.34375 1-.51563 1.71875-.51563.9375 0 1.67969.29297 2.23438.875.5625.57422.84375 1.35547.84375 2.34375v6.29688h-1.53125v-6.125c0-.66406-.1836-1.17969-.54688-1.54688-.35547-.375-.83594-.5625-1.4375-.5625-.63672 0-1.14062.20313-1.51562.60938-.36719.39844-.54688.95312-.54688 1.67187v5.95313zm0 0"/>
  </symbol>
  <symbol id="p" overflow="visible">
    <path d="m1.01563 0v-9.34375h1.34375v1.10937h.10937c.07031-.38281.25-.6914.53125-.92187.28125-.23828.625-.35938 1.03125-.35938.375 0 .69531.11719.96875.34375.26953.23047.46094.54297.57813.9375h.09375c.08203-.38281.26562-.6914.54687-.92187.28125-.23828.63281-.35938 1.0625-.35938.5625 0 1.01953.22657 1.375.67188.35156.44922.53125 1.02734.53125 1.73437v7.10938h-1.42187v-7.125c0-.39453-.08985-.69531-.26563-.90625-.17969-.20703-.42969-.3125-.75-.3125-.33594 0-.58984.10547-.76562.3125-.17969.21094-.26563.50781-.26563.89062v7.14063h-1.23437v-7.125c0-.39453-.09375-.69531-.28125-.90625-.1875-.20703-.44532-.3125-.76563-.3125-.32422 0-.57422.10547-.75.3125-.16797.21094-.25.50781-.25.89062v7.14063zm0 0"/>
  </symbol>
  <symbol id="q" overflow="visible">
    <path d="m4.28125.17188c-.98047 0-1.75781-.25001-2.32812-.75001-.5625-.50781-.84375-1.19531-.84375-2.0625 0-.86328.28125-1.54687.84375-2.04687.57031-.5 1.33593-.75 2.29687-.75h2.89063v-.9375c0-.5625-.17188-1-.51563-1.3125-.34375-.32031-.82422-.48438-1.4375-.48438-.54297 0-1 .1211-1.375.35938-.375.23047-.60937.53906-.70312.92187h-1.53125c.0625-.51953.2539-.97656.57812-1.375.32031-.39453.74219-.70312 1.26563-.92187.53125-.21875 1.11718-.32813 1.76562-.32813 1.07031 0 1.92188.27735 2.54688.82813.625.55469.9375 1.30859.9375 2.26562v6.42188h-1.5v-1.78125h-.01563c-.0625.59375-.35547 1.07031-.875 1.42187-.51172.35547-1.17969.53126-2 .53126zm.375-1.20313c.72656 0 1.32031-.17969 1.78125-.54688.46875-.36328.70313-.82812.70313-1.39062v-1.32813h-2.85938c-.51172 0-.91406.14063-1.20312.42188-.29297.28125-.4375.66797-.4375 1.15625 0 .52344.17578.93359.53125 1.23437.35156.30469.84765.45313 1.48437.45313zm0 0"/>
  </symbol>
  <symbol id="r" overflow="visible">
    <path d="m1.5625 0v-9.34375h1.53125v1.78125h.01563c.08203-.625.33593-1.10156.76562-1.4375.42578-.34375 1-.51563 1.71875-.51563.9375 0 1.67969.29297 2.23438.875.5625.57422.84375 1.35547.84375 2.34375v6.29688h-1.53125v-6.125c0-.66406-.1836-1.17578-.54688-1.53125-.35547-.35156-.83594-.53125-1.4375-.53125-.63672 0-1.14062.19531-1.51562.57812-.36719.38672-.54688.9375-.54688 1.65625v5.95313zm0 0"/>
  </symbol>
  <symbol id="s" overflow="visible">
    <path d="m5.09375.14063c-1.125 0-2.01562-.31641-2.67187-.95313-.65625-.64453-.98438-1.51953-.98438-2.625v-2.48438c0-1.10156.32813-1.97265.98438-2.60937.65625-.63281 1.54687-.95313 2.67187-.95313 1.13281 0 2.02344.32032 2.67188.95313.65625.63672.98437 1.5.98437 2.59375v2.5c0 1.10547-.32812 1.98047-.98437 2.625-.64844.63672-1.53907.95313-2.67188.95313zm0-1.35938c.67578 0 1.19531-.1875 1.5625-.5625.375-.375.5625-.92578.5625-1.65625v-2.48438c0-.71875-.1875-1.26562-.5625-1.64062-.36719-.375-.88672-.5625-1.5625-.5625-.65625 0-1.17969.1875-1.5625.5625-.375.375-.5625.92187-.5625 1.64062v2.48438c0 .73047.1875 1.28125.5625 1.65625.38281.375.90625.5625 1.5625.5625zm0 0"/>
  </symbol>
  <symbol id="t" overflow="visible">
    <path d="m4.09375 0-3.25-9.34375h1.59375l2.17188 6.28125c.125.375.22656.73437.3125 1.07812.09375.34375.16406.61719.21875.8125.05078-.19531.11328-.46875.1875-.8125.08203-.34375.1875-.70312.3125-1.07812l2.10937-6.28125h1.59375l-3.23437 9.34375zm0 0"/>
  </symbol>
  <symbol id="u" overflow="visible">
    <path d="m1.85938 0v-9.34375h1.53125v1.78125h.01562c.07031-.625.32031-1.10156.75-1.4375.4375-.34375 1.00781-.51563 1.71875-.51563.97656 0 1.75391.3086 2.32813.92188.58203.61719.875 1.44922.875 2.5v.65625h-1.53125v-.51563c0-.70703-.1836-1.2539-.54688-1.64062-.36719-.39453-.89062-.59375-1.57812-.59375-1.35547 0-2.03125.74609-2.03125 2.23437v5.95313zm0 0"/>
  </symbol>
  <symbol id="v" overflow="visible">
    <path d="m2.375-4.9375v-1.35938h5.4375v1.35938zm0 0"/>
  </symbol>
  <symbol id="w" overflow="visible">
    <path d="m1.4375 0v-1.39063h3.32813v-6.5625h-2.98438v-1.39062h4.51563v7.95312h3.14062v1.39063zm3.92188-11.03125c-.375 0-.67188-.09375-.89063-.28125-.21875-.19531-.32812-.46094-.32812-.79688 0-.33203.10937-.59765.32812-.79687.21875-.19531.51563-.29688.89063-.29688s.66406.10157.875.29688c.21875.19922.32812.46484.32812.79687 0 .33594-.10937.60157-.32812.79688-.21094.1875-.5.28125-.875.28125zm0 0"/>
  </symbol>
  <symbol id="x" overflow="visible">
    <path d="m2.73438 3.0625v-1.39062h2.98437c.91406 0 1.375-.44532 1.375-1.32813v-1.1875l.03125-1.70313h-.03125c-.0625.59375-.32031 1.07032-.76562 1.42188-.44922.35547-1.02344.53125-1.71875.53125-.96875 0-1.73047-.3125-2.28125-.9375-.55469-.63281-.82813-1.48438-.82813-2.54688v-1.96875c0-1.07031.27344-1.91406.82813-2.53125.55078-.625 1.3125-.9375 2.28125-.9375.69531 0 1.26953.17969 1.71875.53125.44531.34375.70312.82032.76562 1.42188h.01563v-1.78125h1.51562v9.6875c0 .83203-.26172 1.49219-.78125 1.98438-.51172.48828-1.23047.73437-2.15625.73437zm2.32812-4.98438c.63281 0 1.13281-.19531 1.5-.59375.36328-.39453.54688-.94531.54688-1.65625v-1.78125c0-.69531-.1836-1.24218-.54688-1.64062-.36719-.39453-.86719-.59375-1.5-.59375-.64844 0-1.14844.19531-1.5.57812-.35547.38672-.53125.9375-.53125 1.65625v1.78125c0 .73047.17578 1.28907.53125 1.67188.35156.38672.85156.57812 1.5.57812zm0 0"/>
  </symbol>
  <symbol id="y" overflow="visible">
    <path d="m6.20313-7.3125-.20313-3.5625v-1.53125h1.65625v1.53125l-.1875 3.5625zm-3.45313 0-.20312-3.5625v-1.53125h1.65625v1.53125l-.1875 3.5625zm0 0"/>
  </symbol>
  <symbol id="z" overflow="visible">
    <path d="m.84375 0 3.23438-12.40625h2.0625l3.20312 12.40625h-1.54687l-.8125-3.29688h-3.75l-.82813 3.29688zm2.6875-4.59375h3.125l-.9375-3.82813c-.1875-.71875-.33594-1.32031-.4375-1.8125-.09375-.48828-.15625-.80468-.1875-.95312-.02344.14844-.08594.46484-.1875.95312-.09375.49219-.23437 1.08985-.42187 1.79688zm0 0"/>
  </symbol>
  <symbol id="A" overflow="visible"/>
  <symbol id="B" overflow="visible">
    <path d="m1.60938 0v-12.40625h1.53125v6.92187h1.8125l2.71875-3.85937h1.75l-3.15625 4.45312 3.20312 4.89063h-1.78125l-2.71875-4.17188h-1.82812v4.17188zm0 0"/>
  </symbol>
  <symbol id="C" overflow="visible">
    <path d="m2.09375 0-1.5-9.34375h1.32813l.9375 6.625c.03125.25.0625.52344.09375.8125.03906.28125.0664.52344.07812.71875h.0625c.01953-.19531.04688-.4375.07813-.71875.03906-.28906.08203-.5625.125-.8125l1.03125-6.625h1.53125l1.04687 6.625c.03906.25.08203.52344.125.8125.03906.28125.06641.52344.07813.71875h.0625c.01953-.19531.05078-.4375.09375-.71875.03906-.28906.07812-.5625.10937-.8125l.96875-6.625h1.26563l-1.5625 9.34375h-1.6875l-1-6.45313c-.05469-.32031-.10157-.64062-.14063-.95312-.04297-.32031-.07812-.57031-.10937-.75h-.0625c-.01172.17969-.03907.42969-.07813.75-.04297.3125-.08984.63281-.14062.95312l-1.04688 6.45313zm0 0"/>
  </symbol>
  <symbol id="D" overflow="visible">
    <path d="m5.17188.17188c-1.13672 0-2.04297-.31641-2.71875-.95313-.67969-.63281-1.01563-1.50781-1.01563-2.625v-2.54688c0-1.10156.33594-1.97265 1.01563-2.60937.67578-.63281 1.58203-.95313 2.71875-.95313 1.07031 0 1.9375.29297 2.59375.875.65625.57422 1.0039 1.35547 1.04687 2.34375h-1.53125c-.04297-.59375-.24609-1.05078-.60937-1.375-.36719-.32031-.86719-.48437-1.5-.48437-.66797 0-1.20313.19531-1.60938.57812-.39844.375-.59375.91407-.59375 1.60938v2.5625c0 .71094.19531 1.25781.59375 1.64062.40625.38672.94141.57813 1.60938.57813.63281 0 1.13281-.16016 1.5-.48438.36328-.33203.5664-.79687.60937-1.39062h1.53125c-.04297 1-.39062 1.79297-1.04687 2.375-.65625.57422-1.52344.85938-2.59375.85938zm0 0"/>
  </symbol>
  <symbol id="E" overflow="visible">
    <path d="m4.8125.14063c-.96875 0-1.76172-.21876-2.375-.65626-.60547-.44531-.90625-1.05468-.90625-1.82812h1.5625c0 .35547.16406.63281.5.82812.33203.19922.75.29688 1.25.29688h.71875c.59375 0 1.03516-.11719 1.32813-.35938.30078-.25.45312-.57812.45312-.98437 0-.39453-.14062-.70703-.42187-.9375-.27344-.23828-.66797-.39844-1.1875-.48438l-1.26563-.20312c-.92969-.15625-1.61719-.44531-2.0625-.875-.4375-.4375-.65625-1.03125-.65625-1.78125 0-.85156.27344-1.50391.82813-1.95313.55078-.45703 1.34375-.6875 2.375-.6875h.64062c.94531 0 1.70703.21485 2.28125.64063.57031.41797.85938.98047.85938 1.6875h-1.5625c0-.28906-.14844-.52344-.4375-.70313-.28125-.17578-.67188-.26562-1.17188-.26562h-.65625c-.53125 0-.94531.10937-1.23437.32812-.28125.21875-.42188.53907-.42188.95313 0 .67969.47656 1.09375 1.4375 1.25l1.26563.20312c1.00781.15625 1.74218.45313 2.20312.89063.45703.42969.6875 1.04687.6875 1.85937 0 .86719-.27734 1.54688-.82812 2.04688-.55469.49219-1.38282.73438-2.48438.73438zm0 0"/>
  </symbol>
  <symbol id="F" overflow="visible">
    <path d="m5.09375.17188c-.42969 0-.77344-.125-1.03125-.37501-.25-.25-.375-.58203-.375-1 0-.44531.125-.80078.375-1.0625.25781-.25781.60156-.39062 1.03125-.39062.4375 0 .78125.13281 1.03125.39062.25781.26172.39063.61719.39063 1.0625 0 .41797-.13282.75-.39063 1-.25.25001-.59375.37501-1.03125.37501zm0 0"/>
  </symbol>
  <symbol id="G" overflow="visible">
    <path d="m1.95313 2.04688v-1.51563c.73828-.17969 1.375-.5 1.90625-.96875s.9414-1.05469 1.23437-1.76563c.28906-.71875.4375-1.51562.4375-2.39062v-3.0625c0-.89453-.15234-1.69531-.45312-2.40625-.29297-.71875-.70313-1.31641-1.23438-1.79688-.53125-.47656-1.16406-.80078-1.89062-.96875v-1.45312c1.05078.26172 1.95703.70312 2.71875 1.32812.75781.625 1.34765 1.39063 1.76562 2.29688.41406.89844.625 1.89844.625 3v3.0625c0 1.6875-.44922 3.11719-1.34375 4.28125-.89844 1.16406-2.15234 1.95313-3.76562 2.35938zm0 0"/>
  </symbol>
  <symbol id="H" overflow="visible">
    <path d="m5.07813.17188c-1.07422 0-1.9336-.31641-2.57813-.95313-.64844-.64453-.96875-1.51953-.96875-2.625v-5.9375h1.53125v5.9375c0 .71094.17578 1.26172.53125 1.65625.36328.38672.85938.57812 1.48438.57812.63281 0 1.13281-.1914 1.5-.57812.375-.39453.5625-.94531.5625-1.65625v-5.9375h1.53125v5.9375c0 1.10547-.32813 1.98047-.98438 2.625-.65625.63672-1.52734.95313-2.60937.95313zm0 0"/>
  </symbol>
  <symbol id="I" overflow="visible">
    <path d="m1.57813 3.0625v-12.40625h1.53125v1.78125h.01562c.08203-.61328.35156-1.09375.8125-1.4375.45703-.34375 1.03516-.51563 1.73438-.51563.94531 0 1.69531.3086 2.25.92188.5625.61719.84375 1.46484.84375 2.54687v2.73438c0 1.07422-.28125 1.92187-.84375 2.54687-.55469.625-1.30469.93751-2.25.93751-.69922 0-1.27735-.17579-1.73438-.53126-.44922-.35156-.71875-.82812-.8125-1.42187h-.04687l.03125 2.125v2.71875zm3.59375-4.21875c.64453 0 1.14843-.19141 1.51562-.57813.36328-.38281.54688-.9414.54688-1.67187v-2.54688c0-.71875-.1836-1.26953-.54688-1.65625-.36719-.38281-.87109-.57812-1.51562-.57812-.625 0-1.125.19922-1.5.59375-.375.39844-.5625.94531-.5625 1.64062v2.54688c0 .71094.1875 1.26172.5625 1.65625.375.39844.875.59375 1.5.59375zm0 0"/>
  </symbol>
  <symbol id="J" overflow="visible">
    <path d="m6.45313 0c-.82422 0-1.48438-.23828-1.98438-.71875-.49219-.47656-.73437-1.11719-.73437-1.92188v-8.375h-3.21875v-1.39062h4.75v9.76562c0 .38672.10937.69532.32812.92188.21875.21875.50391.32812.85938.32812h2.89062v1.39063zm0 0"/>
  </symbol>
  <symbol id="K" overflow="visible">
    <path d="m1.57813 0v-12.40625h1.53125v5.29687h3.98437v-5.29687h1.53125v12.40625h-1.53125v-5.71875h-3.98437v5.71875zm0 0"/>
  </symbol>
  <symbol id="L" overflow="visible">
    <path d="m1.53125 0v-1.53125l5.23438-6.42188h-5.09375v-1.39062h6.8125v1.53125l-5.34375 6.42187h5.53125v1.39063zm0 0"/>
  </symbol>
  <symbol id="M" overflow="visible">
    <path d="m5.09375-6.96875c-.41797 0-.75781-.11328-1.01562-.34375-.26172-.23828-.39063-.55078-.39063-.9375 0-.38281.12891-.69141.39063-.92188.25781-.22656.59765-.34375 1.01562-.34375.4375 0 .78125.11719 1.03125.34375.25781.23047.39063.53907.39063.92188 0 .38672-.13282.69922-.39063.9375-.25.23047-.59375.34375-1.03125.34375zm0 7.14063c-.41797 0-.75781-.11719-1.01562-.34376-.26172-.23828-.39063-.55078-.39063-.9375 0-.38281.12891-.6914.39063-.92187.25781-.22656.59765-.34375 1.01562-.34375.4375 0 .78125.11719 1.03125.34375.25781.23047.39063.53906.39063.92187 0 .38672-.13282.69922-.39063.9375-.25.22657-.59375.34376-1.03125.34376zm0 0"/>
  </symbol>
  <symbol id="N" overflow="visible">
    <path d="m4.39063-7.3125-.20313-2.54688v-2.54687h1.64063v2.54687l-.1875 2.54688zm0 0"/>
  </symbol>
  <symbol id="O" overflow="visible">
    <path d="m5.64063.17188c-.69922 0-1.27735-.17188-1.73438-.51563-.44922-.34375-.71484-.82031-.79687-1.4375h-.01563v1.78125h-1.53125v-12.40625h1.53125v2.71875l-.03125 2.125h.04688c.08203-.60156.34765-1.07813.79687-1.42188.45703-.35156 1.03516-.53125 1.73438-.53125.94531 0 1.70312.3125 2.26562.9375.5625.61719.84375 1.46485.84375 2.54688v2.73437c0 1.0625-.28125 1.90625-.84375 2.53125s-1.32031.93751-2.26562.93751zm-.5-1.32813c.64453 0 1.14843-.19141 1.51562-.57813.375-.38281.5625-.9414.5625-1.67187v-2.54688c0-.71875-.1875-1.26953-.5625-1.65625-.36719-.38281-.87109-.57812-1.51562-.57812-.625 0-1.125.19922-1.5.59375-.36719.39844-.54688.94531-.54688 1.64062v2.54688c0 .71094.17969 1.26172.54688 1.65625.375.39844.875.59375 1.5.59375zm0 0"/>
  </symbol>
  <symbol id="P" overflow="visible">
    <path d="m.84375 0 3.32813-4.8125-3.125-4.53125h1.8125l1.84375 2.89062c.08203.125.16015.26172.23437.40625.07031.14844.12891.26563.17188.35938.03906-.09375.09765-.21094.17187-.35938.07031-.14453.14844-.28125.23438-.40625l1.85937-2.89062h1.78125l-3.10937 4.54687 3.29687 4.79688h-1.79687l-2-3.0625c-.08594-.125-.16407-.26563-.23438-.42188-.07422-.16406-.14062-.30078-.20312-.40625-.04297.10547-.10547.24219-.1875.40625-.08594.15625-.17188.29688-.26563.42188l-2.01562 3.0625zm0 0"/>
  </symbol>
  <symbol id="Q" overflow="visible">
    <path d="m5.09375.17188c-.79297 0-1.49219-.13672-2.09375-.40626-.59375-.28125-1.05859-.66406-1.39062-1.15625-.32422-.5-.48438-1.07031-.48438-1.71875 0-.70703.22266-1.36328.67188-1.96875.44531-.60156 1.04687-1.07812 1.79687-1.42187-.74219-.35156-1.29297-.78125-1.65625-1.28125-.36719-.50781-.54687-1.05469-.54687-1.64063 0-.625.16015-1.17187.48437-1.64062.32031-.47656.75781-.85156 1.3125-1.125.5625-.26953 1.19531-.40625 1.90625-.40625.71875 0 1.35938.13672 1.92188.40625.5625.27344 1 .64844 1.3125 1.125.32031.46875.48437 1.01562.48437 1.64062 0 .57422-.18359 1.10938-.54687 1.60938-.36719.5-.91797.9375-1.65625 1.3125.75.34375 1.34765.82031 1.79687 1.42187.44531.60547.67188 1.26172.67188 1.96875 0 .64844-.16797 1.21875-.5 1.71875-.32422.49219-.78125.875-1.375 1.15625-.59375.26954-1.29688.40626-2.10938.40626zm-.48437-7.43751.48437.1875.4375-.15625c.53125-.20703.95703-.5 1.28125-.875.33203-.38281.5-.80078.5-1.25 0-.5625-.20312-1.01562-.60937-1.35937s-.94532-.51563-1.60938-.51563c-.65625 0-1.1875.17969-1.59375.53125-.40625.34375-.60937.79297-.60937 1.34375 0 .46094.15625.875.46875 1.25.32031.375.73828.65625 1.25.84375zm.48437 6.07813c.75 0 1.34766-.19141 1.79688-.57813.45703-.39453.6875-.91015.6875-1.54687 0-.5-.15625-.94531-.46875-1.34375-.30469-.40625-.73047-.71875-1.28125-.9375l-.73438-.28125-.78125.29687c-.54297.21875-.96094.53125-1.25.9375-.29297.39844-.4375.83985-.4375 1.32813 0 .63672.22266 1.15234.67188 1.54687.45703.38672 1.05468.57813 1.79687.57813zm0 0"/>
  </symbol>
  <symbol id="R" overflow="visible">
    <path d="m1.5625 0v-12.40625h3.21875c.80078 0 1.49219.15625 2.07813.46875.58203.30469 1.03515.73047 1.35937 1.28125.32031.55469.48438 1.21094.48438 1.96875v4.95312c0 .76172-.16407 1.42188-.48438 1.98438-.32422.55469-.77734.98437-1.35937 1.29687-.58594.30469-1.27735.45313-2.07813.45313zm1.53125-1.35938h1.6875c.75 0 1.33203-.20703 1.75-.625.42578-.42578.64063-1.00781.64063-1.75v-4.95312c0-.73828-.21485-1.31641-.64063-1.73438-.41797-.41406-1-.625-1.75-.625h-1.6875zm0 0"/>
  </symbol>
  <symbol id="S" overflow="visible">
    <path d="m5.17188.17188c-1.21094 0-2.17188-.31251-2.89063-.93751-.71094-.625-1.0625-1.45703-1.0625-2.5h1.53125c0 .625.21875 1.13282.65625 1.51563.44531.375 1.03516.5625 1.76563.5625.69531 0 1.2539-.1875 1.67187-.5625.42578-.38281.64063-.89063.64063-1.51563 0-.48828-.13282-.91406-.39063-1.28125-.25-.36328-.60156-.61328-1.04687-.75l-1.82813-.57812c-.83594-.25781-1.48437-.69141-1.95312-1.29688-.46875-.60156-.70313-1.30078-.70313-2.09375 0-1.00781.32813-1.8125.98438-2.40625.66406-.60156 1.55078-.90625 2.65625-.90625 1.09375 0 1.96875.30469 2.625.90625.66406.59375 1 1.39844 1 2.40625h-1.53125c0-.60156-.19532-1.07812-.57813-1.42187-.375-.35156-.88281-.53125-1.51562-.53125-.64844 0-1.16797.17969-1.5625.53125-.38672.34375-.57813.80859-.57813 1.39062 0 .44922.12891.83985.39063 1.17188.25781.32422.61328.5625 1.0625.71875l1.90625.60937c.78125.25 1.39843.69532 1.85937 1.32813.45703.63672.6875 1.37109.6875 2.20312 0 1.04297-.34375 1.875-1.03125 2.5s-1.60937.93751-2.76562.93751zm0 0"/>
  </symbol>
  <symbol id="T" overflow="visible">
    <path d="m5.09375.17188c-1.13672 0-2.04297-.32813-2.71875-.98438-.67969-.66406-1.01562-1.55469-1.01562-2.67188v-5.4375c0-1.11328.33593-2 1.01562-2.65625.67578-.66406 1.58203-1 2.71875-1 1.14453 0 2.05469.33594 2.73438 1 .67578.65625 1.01562 1.54297 1.01562 2.65625v5.4375c0 .74219-.15625 1.38672-.46875 1.9375-.30469.54297-.73437.96485-1.29687 1.26563-.5625.30078-1.22657.45313-1.98438.45313zm0-1.31251c.6875 0 1.23438-.21875 1.64063-.65625.41406-.4375.625-1 .625-1.6875v-5.4375c0-.69531-.21094-1.25781-.625-1.6875-.40625-.4375-.95313-.65625-1.64063-.65625-.67969 0-1.22656.21875-1.64062.65625-.40625.42969-.60938.99219-.60938 1.6875v5.4375c0 .6875.20313 1.25.60938 1.6875.41406.4375.96093.65625 1.64062.65625zm0-4.0625c-.30469 0-.54687-.09375-.73437-.28125-.1875-.19531-.28125-.45312-.28125-.76562s.09375-.5625.28125-.75.42968-.28125.73437-.28125c.3125 0 .5625.09375.75.28125s.28125.4375.28125.75-.09375.57031-.28125.76562c-.1875.1875-.4375.28125-.75.28125zm0 0"/>
  </symbol>
  <symbol id="U" overflow="visible">
    <path d="m1.53125 0v-1.39063h3.35938v-9.75l-3.35938 2.51563v-1.6875l2.79688-2.09375h2.09375v11.01562h2.76562v1.39063zm0 0"/>
  </symbol>
  <symbol id="V" overflow="visible">
    <path d="m3.04688 3.0625 1.375-3.64063-3.57813-8.76562h1.67188l2.28125 5.78125c.07031.1875.14453.41797.21875.6875.08203.26172.14453.48437.1875.67187.03906-.1875.10156-.41015.1875-.67187.08203-.26953.16015-.5.23437-.6875l2.125-5.78125h1.59375l-4.70312 12.40625zm0 0"/>
  </symbol>
  <symbol id="W" overflow="visible">
    <path d="m1.5625 0v-1.51563l3.96875-4.3125c.58203-.63281 1.00391-1.20312 1.26563-1.70312.26953-.5.40625-.98828.40625-1.46875 0-.67578-.19922-1.21094-.59375-1.60938-.39844-.40625-.9336-.60937-1.60938-.60937-.6875 0-1.23437.21094-1.64062.625-.40625.40625-.60938.96484-.60938 1.67187h-1.53125c.03906-1.125.39844-2.01562 1.07813-2.67187.67578-.65625 1.57812-.98438 2.70312-.98438 1.14453 0 2.05078.32422 2.71875.96875.67578.64844 1.01563 1.52735 1.01563 2.64063 0 .58594-.17188 1.19922-.51563 1.84375-.34375.64844-.90234 1.39062-1.67187 2.23437l-3.23438 3.5h5.625v1.39063zm0 0"/>
  </symbol>
  <symbol id="X" overflow="visible">
    <path d="m1.29688 0v-12.40625h2l1.32812 4.01562c.125.35547.22656.71485.3125 1.07813.08203.35547.14844.625.20313.8125.03906-.1875.10156-.45703.1875-.8125.09375-.36328.19531-.73438.3125-1.10938l1.26562-3.98437h2v12.40625h-1.5v-5.85938c0-1.00781.04688-2 .14063-2.96875.09375-.97656.19531-1.91406.3125-2.8125l-2.03125 6.20313h-1.45313l-2.04687-6.20313c.125.85547.22656 1.75782.3125 2.70313.09375.9375.14062 1.96484.14062 3.07812v5.85938zm0 0"/>
  </symbol>
  <symbol id="Y" overflow="visible">
    <path d="m5.17188.17188c-1.13672 0-2.03125-.31641-2.6875-.95313-.65625-.63281-.98438-1.50781-.98438-2.625v-5.60938c0-1.10156.32813-1.97265.98438-2.60937.65625-.63281 1.55078-.95313 2.6875-.95313 1.10156 0 1.98437.32422 2.64062.96875.66406.63672 1 1.5 1 2.59375h-1.53125c0-.69531-.1875-1.23437-.5625-1.60937-.36719-.38281-.88281-.57813-1.54687-.57813-.66797 0-1.19532.1875-1.57813.5625-.375.375-.5625.91407-.5625 1.60938v5.625c0 .71094.1875 1.25781.5625 1.64062.38281.375.91016.5625 1.57813.5625.66406 0 1.17968-.1875 1.54687-.5625.375-.38281.5625-.92968.5625-1.64062h1.53125c0 1.10547-.33594 1.98047-1 2.625-.65625.63672-1.53906.95313-2.64062.95313zm0 0"/>
  </symbol>
  <symbol id="Z" overflow="visible">
    <path d="m5.09375.17188c-1.10547 0-1.98047-.31641-2.625-.95313-.64844-.63281-.96875-1.50781-.96875-2.625v-5.60938c0-1.10156.32031-1.97265.96875-2.60937.64453-.63281 1.51953-.95313 2.625-.95313 1.11328 0 1.99219.32032 2.64063.95313.64453.625.96875 1.49219.96875 2.59375v5.625c0 1.11719-.32422 1.99219-.96875 2.625-.64844.63672-1.52735.95313-2.64063.95313zm0-1.37501c.67578 0 1.19141-.1875 1.54688-.5625.35156-.38281.53125-.92968.53125-1.64062v-5.60938c0-.69531-.17969-1.23437-.53125-1.60937-.35547-.38281-.8711-.57813-1.54688-.57813-.65625 0-1.16797.19532-1.53125.57813-.35547.375-.53125.91406-.53125 1.60937v5.60938c0 .71094.17578 1.25781.53125 1.64062.36328.375.875.5625 1.53125.5625zm0 0"/>
  </symbol>
  <symbol id="aa" overflow="visible">
    <path d="m2.20313 0v-12.40625h1.53125v11.01562h5.60937v1.39063zm0 0"/>
  </symbol>
  <symbol id="ab" overflow="visible">
    <path d="m1.5625 0v-12.40625h3.84375c.73828 0 1.38281.15234 1.9375.45312.55078.29297.97656.71094 1.28125 1.25.3125.53125.46875 1.15235.46875 1.85938 0 .84375-.21875 1.57031-.65625 2.17187-.4375.59375-1.03125 1.00782-1.78125 1.23438l2.60938 5.4375h-1.79688l-2.39062-5.26563h-1.98438v5.26563zm1.53125-6.64063h2.3125c.63281 0 1.14453-.20312 1.53125-.60937.38281-.40625.57813-.9375.57813-1.59375 0-.66406-.19532-1.19531-.57813-1.59375-.38672-.39453-.89844-.59375-1.53125-.59375h-2.3125zm0 0"/>
  </symbol>
  <symbol id="ac" overflow="visible">
    <path d="m4.32813 0v-11.01563h-3.39063v-1.39062h8.32813v1.39062h-3.40625v11.01563zm0 0"/>
  </symbol>
  <symbol id="ad" overflow="visible">
    <path d="m1.78125 0v-1.39063h2.53125v-9.625h-2.53125v-1.39062h6.64063v1.39062h-2.54688v9.625h2.54688v1.39063zm0 0"/>
  </symbol>
  <symbol id="ae" overflow="visible">
    <path d="m6.79688 0v-2.71875h-5.60938v-2.39063l4.53125-7.29687h1.67188l-4.67188 7.59375v.70312h4.07813v-3.03125h1.53125v7.14063zm0 0"/>
  </symbol>
  <symbol id="af" overflow="visible">
    <path d="m4.90625.17188c-.74219 0-1.39062-.15235-1.95312-.45313s-1-.71875-1.3125-1.25c-.30469-.53125-.45313-1.15625-.45313-1.875h1.53125c0 .69922.19141 1.24609.57813 1.64062.39453.38672.9414.57813 1.64062.57813.69531 0 1.23828-.20313 1.625-.60938.38281-.40625.57813-.9414.57813-1.60937v-.84375c0-.69531-.19532-1.23828-.57813-1.625-.38672-.38281-.92969-.57813-1.625-.57813h-1.34375v-1.32812l2.95313-3.23438h-4.84375v-1.39062h6.57812v1.42187l-2.90625 3.1875c1.00781.07422 1.8125.42969 2.40625 1.0625.59375.63672.89063 1.46485.89063 2.48438v.84375c0 .71875-.15625 1.34375-.46875 1.875s-.75782.94922-1.32813 1.25c-.5625.30078-1.21875.45313-1.96875.45313zm0 0"/>
  </symbol>
  <symbol id="ag" overflow="visible">
    <path d="m2.64063-6.79688c-.71875 0-1.29688-.20312-1.73438-.60937-.42969-.41406-.64062-.97656-.64062-1.6875v-1.10938c0-.70703.21093-1.26562.64062-1.67187.4375-.41406 1.01563-.625 1.73438-.625.70703 0 1.27343.21094 1.70312.625.4375.40625.65625.96484.65625 1.67187v1.10938c0 .71094-.21875 1.27344-.65625 1.6875-.42969.40625-.99609.60937-1.70312.60937zm-2.40625 6.79688 8.46875-12.40625h1.26562l-8.46875 12.40625zm2.40625-7.95313c.72656 0 1.09375-.3789 1.09375-1.14062v-1.10938c0-.75781-.36719-1.14062-1.09375-1.14062-.74219 0-1.10938.38281-1.10938 1.14062v1.10938c0 .76172.36719 1.14062 1.10938 1.14062zm4.92187 8.03126c-.71094 0-1.28125-.20313-1.71875-.60938-.42969-.40625-.64062-.96094-.64062-1.67188v-1.10937c0-.71875.21093-1.28125.64062-1.6875.4375-.40625 1.00781-.60938 1.71875-.60938.71875 0 1.28906.20313 1.71875.60938.42578.40625.64063.96875.64063 1.6875v1.10937c0 .71094-.21485 1.26563-.64063 1.67188-.42969.40625-1 .60938-1.71875.60938zm0-1.17188c.73828 0 1.10938-.36719 1.10938-1.10938v-1.10937c0-.75781-.3711-1.14063-1.10938-1.14063-.74219 0-1.10937.38282-1.10937 1.14063v1.10937c0 .74219.36718 1.10938 1.10937 1.10938zm0 0"/>
  </symbol>
  <symbol id="ah" overflow="visible">
    <path d="m1.70313 0v-12.40625h7.14062v1.39062h-5.625v3.84375h5.03125v1.35938h-5.03125v4.42187h5.625v1.39063zm0 0"/>
  </symbol>
  <symbol id="ai" overflow="visible">
    <path d="m1.28125 1.875 6.03125-15.98438h1.60938l-6.03125 15.98438zm0 0"/>
  </symbol>
  <symbol id="aj" overflow="visible">
    <path d="m5.17188.17188c-1.13672 0-2.03125-.31641-2.6875-.95313-.65625-.63281-.98438-1.50781-.98438-2.625v-5.60938c0-1.10156.32813-1.97265.98438-2.60937.65625-.63281 1.55078-.95313 2.6875-.95313 1.10156 0 1.98437.32422 2.64062.96875.66406.63672 1 1.5 1 2.59375h-1.53125c0-.69531-.1875-1.23437-.5625-1.60937-.36719-.38281-.88281-.57813-1.54687-.57813-.66797 0-1.19532.1875-1.57813.5625-.375.375-.5625.91407-.5625 1.60938v5.625c0 .71094.1875 1.25781.5625 1.64062.38281.38672.91016.57813 1.57813.57813.66406 0 1.17968-.19141 1.54687-.57813.375-.38281.5625-.92968.5625-1.64062v-1.53125h-2.51562v-1.39063h4.04687v2.92188c0 1.10547-.33594 1.98047-1 2.625-.65625.63672-1.53906.95313-2.64062.95313zm0 0"/>
  </symbol>
  <path d="m0 0h926v792h-926z" fill="#282828"/>
  <use fill="#8399b0" x="8" xlink:href="#j" y="18"/>
  <g fill="#72ace5">
    <use x="18" xlink:href="#k" y="18"/>
    <use x="28" xlink:href="#l" y="18"/>
    <use x="38" xlink:href="#m" y="18"/>
    <use x="48" xlink:href="#n" y="18"/>
    <use x="58" xlink:href="#o" y="18"/>
    <use x="68" xlink:href="#l" y="18"/>
    <use x="78" xlink:href="#p" y="18"/>
    <use x="88" xlink:href="#l" y="18"/>
  </g>
  <g fill="#af95e5">
    <use x="108" xlink:href="#o" y="18"/>
    <use x="118" xlink:href="#q" y="18"/>
    <use x="128" xlink:href="#r" y="18"/>
    <use x="138" xlink:href="#r" y="18"/>
    <use x="148" xlink:href="#s" y="18"/>
    <use x="158" xlink:href="#t" y="18"/>
    <use x="168" xlink:href="#l" y="18"/>
    <use x="178" xlink:href="#u" y="18"/>
    <use x="188" xlink:href="#v" y="18"/>
    <use x="198" xlink:href="#r" y="18"/>
    <use x="208" xlink:href="#w" y="18"/>
    <use x="218" xlink:href="#x" y="18"/>
    <use x="228" xlink:href="#o" y="18"/>
    <use x="238" xlink:href="#n" y="18"/>
  </g>
  <g fill="#6f8757">
    <use x="28" xlink:href="#y" y="42"/>
    <use x="38" xlink:href="#z" y="42"/>
    <use x="48" xlink:href="#A" y="42"/>
    <use x="58" xlink:href="#k" y="42"/>
    <use x="68" xlink:href="#q" y="42"/>
    <use x="78" xlink:href="#u" y="42"/>
    <use x="88" xlink:href="#B" y="42"/>
    <use x="98" xlink:href="#A" y="42"/>
    <use x="108" xlink:href="#n" y="42"/>
    <use x="118" xlink:href="#o" y="42"/>
    <use x="128" xlink:href="#l" y="42"/>
    <use x="138" xlink:href="#p" y="42"/>
    <use x="148" xlink:href="#l" y="42"/>
    <use x="158" xlink:href="#A" y="42"/>
    <use x="168" xlink:href="#C" y="42"/>
    <use x="178" xlink:href="#w" y="42"/>
    <use x="188" xlink:href="#n" y="42"/>
    <use x="198" xlink:href="#o" y="42"/>
    <use x="208" xlink:href="#A" y="42"/>
    <use x="218" xlink:href="#p" y="42"/>
    <use x="228" xlink:href="#s" y="42"/>
    <use x="238" xlink:href="#k" y="42"/>
    <use x="248" xlink:href="#l" y="42"/>
    <use x="258" xlink:href="#u" y="42"/>
    <use x="268" xlink:href="#q" y="42"/>
    <use x="278" xlink:href="#n" y="42"/>
    <use x="288" xlink:href="#l" y="42"/>
    <use x="298" xlink:href="#A" y="42"/>
    <use x="308" xlink:href="#D" y="42"/>
    <use x="318" xlink:href="#s" y="42"/>
    <use x="328" xlink:href="#r" y="42"/>
    <use x="338" xlink:href="#n" y="42"/>
    <use x="348" xlink:href="#u" y="42"/>
    <use x="358" xlink:href="#q" y="42"/>
    <use x="368" xlink:href="#E" y="42"/>
    <use x="378" xlink:href="#n" y="42"/>
    <use x="388" xlink:href="#F" y="42"/>
    <use x="398" xlink:href="#y" y="42"/>
  </g>
  <use fill="#8399b0" x="408" xlink:href="#G" y="42"/>
  <use fill="#8399b0" x="8" xlink:href="#j" y="90"/>
  <g fill="#72ace5">
    <use x="18" xlink:href="#k" y="90"/>
    <use x="28" xlink:href="#l" y="90"/>
    <use x="38" xlink:href="#m" y="90"/>
    <use x="48" xlink:href="#x" y="90"/>
    <use x="58" xlink:href="#u" y="90"/>
    <use x="68" xlink:href="#s" y="90"/>
    <use x="78" xlink:href="#H" y="90"/>
    <use x="88" xlink:href="#I" y="90"/>
  </g>
  <g fill="#af95e5">
    <use x="108" xlink:href="#o" y="90"/>
    <use x="118" xlink:href="#q" y="90"/>
    <use x="128" xlink:href="#r" y="90"/>
    <use x="138" xlink:href="#r" y="90"/>
    <use x="148" xlink:href="#s" y="90"/>
    <use x="158" xlink:href="#t" y="90"/>
    <use x="168" xlink:href="#l" y="90"/>
    <use x="178" xlink:href="#u" y="90"/>
    <use x="188" xlink:href="#v" y="90"/>
    <use x="198" xlink:href="#r" y="90"/>
    <use x="208" xlink:href="#w" y="90"/>
    <use x="218" xlink:href="#x" y="90"/>
    <use x="228" xlink:href="#o" y="90"/>
    <use x="238" xlink:href="#n" y="90"/>
    <use x="248" xlink:href="#v" y="90"/>
    <use x="258" xlink:href="#n" y="90"/>
    <use x="268" xlink:href="#o" y="90"/>
    <use x="278" xlink:href="#l" y="90"/>
    <use x="288" xlink:href="#p" y="90"/>
    <use x="298" xlink:href="#l" y="90"/>
  </g>
  <g fill="#d8d8d8">
    <use x="308" xlink:href="#A" y="90"/>
    <use x="318" xlink:href="#r" y="90"/>
    <use x="328" xlink:href="#w" y="90"/>
    <use x="338" xlink:href="#J" y="90"/>
    <use x="348" xlink:href="#A" y="90"/>
  </g>
  <g fill="#6f8757">
    <use x="28" xlink:href="#y" y="114"/>
    <use x="38" xlink:href="#K" y="114"/>
    <use x="48" xlink:href="#q" y="114"/>
    <use x="58" xlink:href="#r" y="114"/>
    <use x="68" xlink:href="#r" y="114"/>
    <use x="78" xlink:href="#s" y="114"/>
    <use x="88" xlink:href="#t" y="114"/>
    <use x="98" xlink:href="#l" y="114"/>
    <use x="108" xlink:href="#u" y="114"/>
    <use x="118" xlink:href="#A" y="114"/>
    <use x="128" xlink:href="#r" y="114"/>
    <use x="138" xlink:href="#w" y="114"/>
    <use x="148" xlink:href="#x" y="114"/>
    <use x="158" xlink:href="#o" y="114"/>
    <use x="168" xlink:href="#n" y="114"/>
    <use x="178" xlink:href="#A" y="114"/>
    <use x="188" xlink:href="#n" y="114"/>
    <use x="198" xlink:href="#o" y="114"/>
    <use x="208" xlink:href="#l" y="114"/>
    <use x="218" xlink:href="#p" y="114"/>
    <use x="228" xlink:href="#l" y="114"/>
    <use x="238" xlink:href="#A" y="114"/>
    <use x="248" xlink:href="#D" y="114"/>
    <use x="258" xlink:href="#H" y="114"/>
    <use x="268" xlink:href="#E" y="114"/>
    <use x="278" xlink:href="#n" y="114"/>
    <use x="288" xlink:href="#s" y="114"/>
    <use x="298" xlink:href="#p" y="114"/>
    <use x="308" xlink:href="#w" y="114"/>
    <use x="318" xlink:href="#L" y="114"/>
    <use x="328" xlink:href="#q" y="114"/>
    <use x="338" xlink:href="#n" y="114"/>
    <use x="348" xlink:href="#w" y="114"/>
    <use x="358" xlink:href="#s" y="114"/>
    <use x="368" xlink:href="#r" y="114"/>
    <use x="378" xlink:href="#E" y="114"/>
    <use x="388" xlink:href="#y" y="114"/>
  </g>
  <g fill="#af95e5">
    <use x="28" xlink:href="#M" y="138"/>
    <use x="38" xlink:href="#x" y="138"/>
    <use x="48" xlink:href="#u" y="138"/>
    <use x="58" xlink:href="#s" y="138"/>
    <use x="68" xlink:href="#H" y="138"/>
    <use x="78" xlink:href="#I" y="138"/>
  </g>
  <g fill="#d8d8d8">
    <use x="88" xlink:href="#A" y="138"/>
    <use x="98" xlink:href="#N" y="138"/>
    <use x="108" xlink:href="#m" y="138"/>
    <use x="118" xlink:href="#q" y="138"/>
    <use x="128" xlink:href="#D" y="138"/>
    <use x="138" xlink:href="#l" y="138"/>
    <use x="148" xlink:href="#E" y="138"/>
  </g>
  <use fill="#8399b0" x="158" xlink:href="#G" y="138"/>
  <use fill="#8399b0" x="8" xlink:href="#j" y="186"/>
  <g fill="#72ace5">
    <use x="18" xlink:href="#k" y="186"/>
    <use x="28" xlink:href="#l" y="186"/>
    <use x="38" xlink:href="#m" y="186"/>
    <use x="48" xlink:href="#D" y="186"/>
    <use x="58" xlink:href="#H" y="186"/>
    <use x="68" xlink:href="#E" y="186"/>
    <use x="78" xlink:href="#n" y="186"/>
    <use x="88" xlink:href="#s" y="186"/>
    <use x="98" xlink:href="#p" y="186"/>
  </g>
  <g fill="#e59e8d">
    <use x="118" xlink:href="#o" y="186"/>
    <use x="128" xlink:href="#q" y="186"/>
    <use x="138" xlink:href="#r" y="186"/>
    <use x="148" xlink:href="#r" y="186"/>
    <use x="158" xlink:href="#s" y="186"/>
    <use x="168" xlink:href="#t" y="186"/>
    <use x="178" xlink:href="#l" y="186"/>
    <use x="188" xlink:href="#u" y="186"/>
    <use x="198" xlink:href="#v" y="186"/>
    <use x="208" xlink:href="#r" y="186"/>
    <use x="218" xlink:href="#w" y="186"/>
    <use x="228" xlink:href="#x" y="186"/>
    <use x="238" xlink:href="#o" y="186"/>
    <use x="248" xlink:href="#n" y="186"/>
    <use x="258" xlink:href="#v" y="186"/>
    <use x="268" xlink:href="#p" y="186"/>
    <use x="278" xlink:href="#s" y="186"/>
    <use x="288" xlink:href="#k" y="186"/>
    <use x="298" xlink:href="#l" y="186"/>
    <use x="308" xlink:href="#v" y="186"/>
    <use x="318" xlink:href="#O" y="186"/>
    <use x="328" xlink:href="#s" y="186"/>
    <use x="338" xlink:href="#P" y="186"/>
    <use x="348" xlink:href="#v" y="186"/>
    <use x="358" xlink:href="#C" y="186"/>
    <use x="368" xlink:href="#w" y="186"/>
    <use x="378" xlink:href="#k" y="186"/>
    <use x="388" xlink:href="#n" y="186"/>
    <use x="398" xlink:href="#o" y="186"/>
  </g>
  <g fill="#d8d8d8">
    <use x="408" xlink:href="#A" y="186"/>
    <use x="418" xlink:href="#Q" y="186"/>
    <use x="428" xlink:href="#A" y="186"/>
  </g>
  <g fill="#6f8757">
    <use x="28" xlink:href="#y" y="210"/>
    <use x="38" xlink:href="#R" y="210"/>
    <use x="48" xlink:href="#l" y="210"/>
    <use x="58" xlink:href="#n" y="210"/>
    <use x="68" xlink:href="#l" y="210"/>
    <use x="78" xlink:href="#u" y="210"/>
    <use x="88" xlink:href="#p" y="210"/>
    <use x="98" xlink:href="#w" y="210"/>
    <use x="108" xlink:href="#r" y="210"/>
    <use x="118" xlink:href="#l" y="210"/>
    <use x="128" xlink:href="#E" y="210"/>
    <use x="138" xlink:href="#A" y="210"/>
    <use x="148" xlink:href="#n" y="210"/>
    <use x="158" xlink:href="#o" y="210"/>
    <use x="168" xlink:href="#l" y="210"/>
    <use x="178" xlink:href="#A" y="210"/>
    <use x="188" xlink:href="#o" y="210"/>
    <use x="198" xlink:href="#l" y="210"/>
    <use x="208" xlink:href="#w" y="210"/>
    <use x="218" xlink:href="#x" y="210"/>
    <use x="228" xlink:href="#o" y="210"/>
    <use x="238" xlink:href="#n" y="210"/>
    <use x="248" xlink:href="#A" y="210"/>
    <use x="258" xlink:href="#s" y="210"/>
    <use x="268" xlink:href="#m" y="210"/>
    <use x="278" xlink:href="#A" y="210"/>
    <use x="288" xlink:href="#n" y="210"/>
    <use x="298" xlink:href="#o" y="210"/>
    <use x="308" xlink:href="#l" y="210"/>
    <use x="318" xlink:href="#A" y="210"/>
    <use x="328" xlink:href="#p" y="210"/>
    <use x="338" xlink:href="#s" y="210"/>
    <use x="348" xlink:href="#k" y="210"/>
    <use x="358" xlink:href="#l" y="210"/>
    <use x="368" xlink:href="#v" y="210"/>
    <use x="378" xlink:href="#J" y="210"/>
    <use x="388" xlink:href="#w" y="210"/>
    <use x="398" xlink:href="#r" y="210"/>
    <use x="408" xlink:href="#l" y="210"/>
    <use x="418" xlink:href="#F" y="210"/>
    <use x="428" xlink:href="#A" y="210"/>
  </g>
  <g fill="#6f8757">
    <use x="8" xlink:href="#S" y="234"/>
    <use x="18" xlink:href="#l" y="234"/>
    <use x="28" xlink:href="#n" y="234"/>
    <use x="38" xlink:href="#A" y="234"/>
    <use x="48" xlink:href="#w" y="234"/>
    <use x="58" xlink:href="#n" y="234"/>
    <use x="68" xlink:href="#A" y="234"/>
    <use x="78" xlink:href="#n" y="234"/>
    <use x="88" xlink:href="#s" y="234"/>
    <use x="98" xlink:href="#A" y="234"/>
    <use x="108" xlink:href="#T" y="234"/>
    <use x="118" xlink:href="#A" y="234"/>
    <use x="128" xlink:href="#s" y="234"/>
    <use x="138" xlink:href="#u" y="234"/>
    <use x="148" xlink:href="#A" y="234"/>
    <use x="158" xlink:href="#U" y="234"/>
    <use x="168" xlink:href="#A" y="234"/>
    <use x="178" xlink:href="#w" y="234"/>
    <use x="188" xlink:href="#m" y="234"/>
    <use x="198" xlink:href="#A" y="234"/>
    <use x="208" xlink:href="#V" y="234"/>
    <use x="218" xlink:href="#s" y="234"/>
    <use x="228" xlink:href="#H" y="234"/>
    <use x="238" xlink:href="#A" y="234"/>
    <use x="248" xlink:href="#H" y="234"/>
    <use x="258" xlink:href="#E" y="234"/>
    <use x="268" xlink:href="#l" y="234"/>
    <use x="278" xlink:href="#A" y="234"/>
    <use x="288" xlink:href="#I" y="234"/>
    <use x="298" xlink:href="#s" y="234"/>
    <use x="308" xlink:href="#C" y="234"/>
    <use x="318" xlink:href="#l" y="234"/>
    <use x="328" xlink:href="#u" y="234"/>
    <use x="338" xlink:href="#J" y="234"/>
    <use x="348" xlink:href="#w" y="234"/>
    <use x="358" xlink:href="#r" y="234"/>
    <use x="368" xlink:href="#l" y="234"/>
    <use x="378" xlink:href="#A" y="234"/>
    <use x="388" xlink:href="#s" y="234"/>
    <use x="398" xlink:href="#u" y="234"/>
    <use x="408" xlink:href="#A" y="234"/>
    <use x="418" xlink:href="#E" y="234"/>
    <use x="428" xlink:href="#w" y="234"/>
    <use x="438" xlink:href="#p" y="234"/>
    <use x="448" xlink:href="#w" y="234"/>
    <use x="458" xlink:href="#J" y="234"/>
    <use x="468" xlink:href="#q" y="234"/>
    <use x="478" xlink:href="#u" y="234"/>
    <use x="488" xlink:href="#A" y="234"/>
    <use x="498" xlink:href="#I" y="234"/>
    <use x="508" xlink:href="#q" y="234"/>
    <use x="518" xlink:href="#D" y="234"/>
    <use x="528" xlink:href="#B" y="234"/>
    <use x="538" xlink:href="#q" y="234"/>
    <use x="548" xlink:href="#x" y="234"/>
    <use x="558" xlink:href="#l" y="234"/>
    <use x="568" xlink:href="#E" y="234"/>
    <use x="578" xlink:href="#F" y="234"/>
    <use x="588" xlink:href="#y" y="234"/>
  </g>
  <g fill="#af95e5">
    <use x="28" xlink:href="#M" y="258"/>
    <use x="38" xlink:href="#n" y="258"/>
    <use x="48" xlink:href="#V" y="258"/>
    <use x="58" xlink:href="#I" y="258"/>
    <use x="68" xlink:href="#l" y="258"/>
  </g>
  <g fill="#d8d8d8">
    <use x="78" xlink:href="#A" y="258"/>
    <use x="88" xlink:href="#N" y="258"/>
    <use x="98" xlink:href="#w" y="258"/>
    <use x="108" xlink:href="#r" y="258"/>
    <use x="118" xlink:href="#n" y="258"/>
    <use x="128" xlink:href="#l" y="258"/>
    <use x="138" xlink:href="#x" y="258"/>
    <use x="148" xlink:href="#l" y="258"/>
    <use x="158" xlink:href="#u" y="258"/>
    <use x="168" xlink:href="#A" y="258"/>
  </g>
  <g fill="#af95e5">
    <use x="28" xlink:href="#M" y="282"/>
    <use x="38" xlink:href="#x" y="282"/>
    <use x="48" xlink:href="#u" y="282"/>
    <use x="58" xlink:href="#s" y="282"/>
    <use x="68" xlink:href="#H" y="282"/>
    <use x="78" xlink:href="#I" y="282"/>
  </g>
  <g fill="#d8d8d8">
    <use x="88" xlink:href="#A" y="282"/>
    <use x="98" xlink:href="#N" y="282"/>
    <use x="108" xlink:href="#o" y="282"/>
    <use x="118" xlink:href="#q" y="282"/>
    <use x="128" xlink:href="#r" y="282"/>
    <use x="138" xlink:href="#r" y="282"/>
    <use x="148" xlink:href="#s" y="282"/>
    <use x="158" xlink:href="#t" y="282"/>
    <use x="168" xlink:href="#l" y="282"/>
    <use x="178" xlink:href="#u" y="282"/>
    <use x="188" xlink:href="#v" y="282"/>
    <use x="198" xlink:href="#r" y="282"/>
    <use x="208" xlink:href="#w" y="282"/>
    <use x="218" xlink:href="#x" y="282"/>
    <use x="228" xlink:href="#o" y="282"/>
    <use x="238" xlink:href="#n" y="282"/>
    <use x="248" xlink:href="#v" y="282"/>
    <use x="258" xlink:href="#n" y="282"/>
    <use x="268" xlink:href="#o" y="282"/>
    <use x="278" xlink:href="#l" y="282"/>
    <use x="288" xlink:href="#p" y="282"/>
    <use x="298" xlink:href="#l" y="282"/>
  </g>
  <use fill="#8399b0" x="308" xlink:href="#G" y="282"/>
  <use fill="#8399b0" x="8" xlink:href="#j" y="330"/>
  <g fill="#72ace5">
    <use x="18" xlink:href="#k" y="330"/>
    <use x="28" xlink:href="#l" y="330"/>
    <use x="38" xlink:href="#m" y="330"/>
    <use x="48" xlink:href="#D" y="330"/>
    <use x="58" xlink:href="#H" y="330"/>
    <use x="68" xlink:href="#E" y="330"/>
    <use x="78" xlink:href="#n" y="330"/>
    <use x="88" xlink:href="#s" y="330"/>
    <use x="98" xlink:href="#p" y="330"/>
  </g>
  <g fill="#e59e8d">
    <use x="118" xlink:href="#o" y="330"/>
    <use x="128" xlink:href="#q" y="330"/>
    <use x="138" xlink:href="#r" y="330"/>
    <use x="148" xlink:href="#r" y="330"/>
    <use x="158" xlink:href="#s" y="330"/>
    <use x="168" xlink:href="#t" y="330"/>
    <use x="178" xlink:href="#l" y="330"/>
    <use x="188" xlink:href="#u" y="330"/>
    <use x="198" xlink:href="#v" y="330"/>
    <use x="208" xlink:href="#r" y="330"/>
    <use x="218" xlink:href="#w" y="330"/>
    <use x="228" xlink:href="#x" y="330"/>
    <use x="238" xlink:href="#o" y="330"/>
    <use x="248" xlink:href="#n" y="330"/>
    <use x="258" xlink:href="#v" y="330"/>
    <use x="268" xlink:href="#o" y="330"/>
    <use x="278" xlink:href="#l" y="330"/>
    <use x="288" xlink:href="#q" y="330"/>
    <use x="298" xlink:href="#k" y="330"/>
    <use x="308" xlink:href="#l" y="330"/>
    <use x="318" xlink:href="#u" y="330"/>
    <use x="328" xlink:href="#v" y="330"/>
    <use x="338" xlink:href="#O" y="330"/>
    <use x="348" xlink:href="#s" y="330"/>
    <use x="358" xlink:href="#P" y="330"/>
    <use x="368" xlink:href="#v" y="330"/>
    <use x="378" xlink:href="#C" y="330"/>
    <use x="388" xlink:href="#w" y="330"/>
    <use x="398" xlink:href="#k" y="330"/>
    <use x="408" xlink:href="#n" y="330"/>
    <use x="418" xlink:href="#o" y="330"/>
  </g>
  <g fill="#d8d8d8">
    <use x="428" xlink:href="#A" y="330"/>
    <use x="438" xlink:href="#Q" y="330"/>
    <use x="448" xlink:href="#A" y="330"/>
  </g>
  <g fill="#6f8757">
    <use x="28" xlink:href="#y" y="354"/>
    <use x="38" xlink:href="#R" y="354"/>
    <use x="48" xlink:href="#l" y="354"/>
    <use x="58" xlink:href="#n" y="354"/>
    <use x="68" xlink:href="#l" y="354"/>
    <use x="78" xlink:href="#u" y="354"/>
    <use x="88" xlink:href="#p" y="354"/>
    <use x="98" xlink:href="#w" y="354"/>
    <use x="108" xlink:href="#r" y="354"/>
    <use x="118" xlink:href="#l" y="354"/>
    <use x="128" xlink:href="#E" y="354"/>
    <use x="138" xlink:href="#A" y="354"/>
    <use x="148" xlink:href="#n" y="354"/>
    <use x="158" xlink:href="#o" y="354"/>
    <use x="168" xlink:href="#l" y="354"/>
    <use x="178" xlink:href="#A" y="354"/>
    <use x="188" xlink:href="#o" y="354"/>
    <use x="198" xlink:href="#l" y="354"/>
    <use x="208" xlink:href="#w" y="354"/>
    <use x="218" xlink:href="#x" y="354"/>
    <use x="228" xlink:href="#o" y="354"/>
    <use x="238" xlink:href="#n" y="354"/>
    <use x="248" xlink:href="#A" y="354"/>
    <use x="258" xlink:href="#s" y="354"/>
    <use x="268" xlink:href="#m" y="354"/>
    <use x="278" xlink:href="#A" y="354"/>
    <use x="288" xlink:href="#n" y="354"/>
    <use x="298" xlink:href="#o" y="354"/>
    <use x="308" xlink:href="#l" y="354"/>
    <use x="318" xlink:href="#A" y="354"/>
    <use x="328" xlink:href="#o" y="354"/>
    <use x="338" xlink:href="#l" y="354"/>
    <use x="348" xlink:href="#q" y="354"/>
    <use x="358" xlink:href="#k" y="354"/>
    <use x="368" xlink:href="#l" y="354"/>
    <use x="378" xlink:href="#u" y="354"/>
    <use x="388" xlink:href="#v" y="354"/>
    <use x="398" xlink:href="#J" y="354"/>
    <use x="408" xlink:href="#w" y="354"/>
    <use x="418" xlink:href="#r" y="354"/>
    <use x="428" xlink:href="#l" y="354"/>
    <use x="438" xlink:href="#y" y="354"/>
  </g>
  <g fill="#af95e5">
    <use x="28" xlink:href="#M" y="378"/>
    <use x="38" xlink:href="#n" y="378"/>
    <use x="48" xlink:href="#V" y="378"/>
    <use x="58" xlink:href="#I" y="378"/>
    <use x="68" xlink:href="#l" y="378"/>
  </g>
  <g fill="#d8d8d8">
    <use x="78" xlink:href="#A" y="378"/>
    <use x="88" xlink:href="#N" y="378"/>
    <use x="98" xlink:href="#w" y="378"/>
    <use x="108" xlink:href="#r" y="378"/>
    <use x="118" xlink:href="#n" y="378"/>
    <use x="128" xlink:href="#l" y="378"/>
    <use x="138" xlink:href="#x" y="378"/>
    <use x="148" xlink:href="#l" y="378"/>
    <use x="158" xlink:href="#u" y="378"/>
    <use x="168" xlink:href="#A" y="378"/>
  </g>
  <g fill="#af95e5">
    <use x="28" xlink:href="#M" y="402"/>
    <use x="38" xlink:href="#x" y="402"/>
    <use x="48" xlink:href="#u" y="402"/>
    <use x="58" xlink:href="#s" y="402"/>
    <use x="68" xlink:href="#H" y="402"/>
    <use x="78" xlink:href="#I" y="402"/>
  </g>
  <g fill="#d8d8d8">
    <use x="88" xlink:href="#A" y="402"/>
    <use x="98" xlink:href="#N" y="402"/>
    <use x="108" xlink:href="#o" y="402"/>
    <use x="118" xlink:href="#q" y="402"/>
    <use x="128" xlink:href="#r" y="402"/>
    <use x="138" xlink:href="#r" y="402"/>
    <use x="148" xlink:href="#s" y="402"/>
    <use x="158" xlink:href="#t" y="402"/>
    <use x="168" xlink:href="#l" y="402"/>
    <use x="178" xlink:href="#u" y="402"/>
    <use x="188" xlink:href="#v" y="402"/>
    <use x="198" xlink:href="#r" y="402"/>
    <use x="208" xlink:href="#w" y="402"/>
    <use x="218" xlink:href="#x" y="402"/>
    <use x="228" xlink:href="#o" y="402"/>
    <use x="238" xlink:href="#n" y="402"/>
    <use x="248" xlink:href="#v" y="402"/>
    <use x="258" xlink:href="#n" y="402"/>
    <use x="268" xlink:href="#o" y="402"/>
    <use x="278" xlink:href="#l" y="402"/>
    <use x="288" xlink:href="#p" y="402"/>
    <use x="298" xlink:href="#l" y="402"/>
  </g>
  <use fill="#8399b0" x="308" xlink:href="#G" y="402"/>
  <use fill="#8399b0" x="8" xlink:href="#j" y="450"/>
  <g fill="#72ace5">
    <use x="18" xlink:href="#k" y="450"/>
    <use x="28" xlink:href="#l" y="450"/>
    <use x="38" xlink:href="#m" y="450"/>
    <use x="48" xlink:href="#D" y="450"/>
    <use x="58" xlink:href="#H" y="450"/>
    <use x="68" xlink:href="#E" y="450"/>
    <use x="78" xlink:href="#n" y="450"/>
    <use x="88" xlink:href="#s" y="450"/>
    <use x="98" xlink:href="#p" y="450"/>
  </g>
  <g fill="#e59e8d">
    <use x="118" xlink:href="#o" y="450"/>
    <use x="128" xlink:href="#q" y="450"/>
    <use x="138" xlink:href="#r" y="450"/>
    <use x="148" xlink:href="#r" y="450"/>
    <use x="158" xlink:href="#s" y="450"/>
    <use x="168" xlink:href="#t" y="450"/>
    <use x="178" xlink:href="#l" y="450"/>
    <use x="188" xlink:href="#u" y="450"/>
    <use x="198" xlink:href="#v" y="450"/>
    <use x="208" xlink:href="#r" y="450"/>
    <use x="218" xlink:href="#w" y="450"/>
    <use x="228" xlink:href="#x" y="450"/>
    <use x="238" xlink:href="#o" y="450"/>
    <use x="248" xlink:href="#n" y="450"/>
    <use x="258" xlink:href="#v" y="450"/>
    <use x="268" xlink:href="#n" y="450"/>
    <use x="278" xlink:href="#q" y="450"/>
    <use x="288" xlink:href="#O" y="450"/>
    <use x="298" xlink:href="#v" y="450"/>
    <use x="308" xlink:href="#J" y="450"/>
    <use x="318" xlink:href="#w" y="450"/>
    <use x="328" xlink:href="#r" y="450"/>
    <use x="338" xlink:href="#l" y="450"/>
    <use x="348" xlink:href="#v" y="450"/>
    <use x="358" xlink:href="#O" y="450"/>
    <use x="368" xlink:href="#s" y="450"/>
    <use x="378" xlink:href="#P" y="450"/>
    <use x="388" xlink:href="#v" y="450"/>
    <use x="398" xlink:href="#C" y="450"/>
    <use x="408" xlink:href="#w" y="450"/>
    <use x="418" xlink:href="#k" y="450"/>
    <use x="428" xlink:href="#n" y="450"/>
    <use x="438" xlink:href="#o" y="450"/>
  </g>
  <g fill="#d8d8d8">
    <use x="448" xlink:href="#A" y="450"/>
    <use x="458" xlink:href="#Q" y="450"/>
    <use x="468" xlink:href="#A" y="450"/>
  </g>
  <g fill="#6f8757">
    <use x="28" xlink:href="#y" y="474"/>
    <use x="38" xlink:href="#R" y="474"/>
    <use x="48" xlink:href="#l" y="474"/>
    <use x="58" xlink:href="#n" y="474"/>
    <use x="68" xlink:href="#l" y="474"/>
    <use x="78" xlink:href="#u" y="474"/>
    <use x="88" xlink:href="#p" y="474"/>
    <use x="98" xlink:href="#w" y="474"/>
    <use x="108" xlink:href="#r" y="474"/>
    <use x="118" xlink:href="#l" y="474"/>
    <use x="128" xlink:href="#E" y="474"/>
    <use x="138" xlink:href="#A" y="474"/>
    <use x="148" xlink:href="#n" y="474"/>
    <use x="158" xlink:href="#o" y="474"/>
    <use x="168" xlink:href="#l" y="474"/>
    <use x="178" xlink:href="#A" y="474"/>
    <use x="188" xlink:href="#o" y="474"/>
    <use x="198" xlink:href="#l" y="474"/>
    <use x="208" xlink:href="#w" y="474"/>
    <use x="218" xlink:href="#x" y="474"/>
    <use x="228" xlink:href="#o" y="474"/>
    <use x="238" xlink:href="#n" y="474"/>
    <use x="248" xlink:href="#A" y="474"/>
    <use x="258" xlink:href="#s" y="474"/>
    <use x="268" xlink:href="#m" y="474"/>
    <use x="278" xlink:href="#A" y="474"/>
    <use x="288" xlink:href="#n" y="474"/>
    <use x="298" xlink:href="#o" y="474"/>
    <use x="308" xlink:href="#l" y="474"/>
    <use x="318" xlink:href="#A" y="474"/>
    <use x="328" xlink:href="#n" y="474"/>
    <use x="338" xlink:href="#q" y="474"/>
    <use x="348" xlink:href="#O" y="474"/>
    <use x="358" xlink:href="#v" y="474"/>
    <use x="368" xlink:href="#J" y="474"/>
    <use x="378" xlink:href="#w" y="474"/>
    <use x="388" xlink:href="#r" y="474"/>
    <use x="398" xlink:href="#l" y="474"/>
    <use x="408" xlink:href="#y" y="474"/>
  </g>
  <g fill="#af95e5">
    <use x="28" xlink:href="#M" y="498"/>
    <use x="38" xlink:href="#n" y="498"/>
    <use x="48" xlink:href="#V" y="498"/>
    <use x="58" xlink:href="#I" y="498"/>
    <use x="68" xlink:href="#l" y="498"/>
  </g>
  <g fill="#d8d8d8">
    <use x="78" xlink:href="#A" y="498"/>
    <use x="88" xlink:href="#N" y="498"/>
    <use x="98" xlink:href="#w" y="498"/>
    <use x="108" xlink:href="#r" y="498"/>
    <use x="118" xlink:href="#n" y="498"/>
    <use x="128" xlink:href="#l" y="498"/>
    <use x="138" xlink:href="#x" y="498"/>
    <use x="148" xlink:href="#l" y="498"/>
    <use x="158" xlink:href="#u" y="498"/>
    <use x="168" xlink:href="#A" y="498"/>
  </g>
  <g fill="#af95e5">
    <use x="28" xlink:href="#M" y="522"/>
    <use x="38" xlink:href="#x" y="522"/>
    <use x="48" xlink:href="#u" y="522"/>
    <use x="58" xlink:href="#s" y="522"/>
    <use x="68" xlink:href="#H" y="522"/>
    <use x="78" xlink:href="#I" y="522"/>
  </g>
  <g fill="#d8d8d8">
    <use x="88" xlink:href="#A" y="522"/>
    <use x="98" xlink:href="#N" y="522"/>
    <use x="108" xlink:href="#o" y="522"/>
    <use x="118" xlink:href="#q" y="522"/>
    <use x="128" xlink:href="#r" y="522"/>
    <use x="138" xlink:href="#r" y="522"/>
    <use x="148" xlink:href="#s" y="522"/>
    <use x="158" xlink:href="#t" y="522"/>
    <use x="168" xlink:href="#l" y="522"/>
    <use x="178" xlink:href="#u" y="522"/>
    <use x="188" xlink:href="#v" y="522"/>
    <use x="198" xlink:href="#r" y="522"/>
    <use x="208" xlink:href="#w" y="522"/>
    <use x="218" xlink:href="#x" y="522"/>
    <use x="228" xlink:href="#o" y="522"/>
    <use x="238" xlink:href="#n" y="522"/>
    <use x="248" xlink:href="#v" y="522"/>
    <use x="258" xlink:href="#n" y="522"/>
    <use x="268" xlink:href="#o" y="522"/>
    <use x="278" xlink:href="#l" y="522"/>
    <use x="288" xlink:href="#p" y="522"/>
    <use x="298" xlink:href="#l" y="522"/>
  </g>
  <use fill="#8399b0" x="308" xlink:href="#G" y="522"/>
  <use fill="#8399b0" x="8" xlink:href="#j" y="570"/>
  <g fill="#72ace5">
    <use x="18" xlink:href="#k" y="570"/>
    <use x="28" xlink:href="#l" y="570"/>
    <use x="38" xlink:href="#m" y="570"/>
    <use x="48" xlink:href="#D" y="570"/>
    <use x="58" xlink:href="#H" y="570"/>
    <use x="68" xlink:href="#E" y="570"/>
    <use x="78" xlink:href="#n" y="570"/>
    <use x="88" xlink:href="#s" y="570"/>
    <use x="98" xlink:href="#p" y="570"/>
  </g>
  <g fill="#e59e8d">
    <use x="118" xlink:href="#o" y="570"/>
    <use x="128" xlink:href="#q" y="570"/>
    <use x="138" xlink:href="#r" y="570"/>
    <use x="148" xlink:href="#r" y="570"/>
    <use x="158" xlink:href="#s" y="570"/>
    <use x="168" xlink:href="#t" y="570"/>
    <use x="178" xlink:href="#l" y="570"/>
    <use x="188" xlink:href="#u" y="570"/>
    <use x="198" xlink:href="#v" y="570"/>
    <use x="208" xlink:href="#r" y="570"/>
    <use x="218" xlink:href="#w" y="570"/>
    <use x="228" xlink:href="#x" y="570"/>
    <use x="238" xlink:href="#o" y="570"/>
    <use x="248" xlink:href="#n" y="570"/>
    <use x="258" xlink:href="#v" y="570"/>
    <use x="268" xlink:href="#n" y="570"/>
    <use x="278" xlink:href="#q" y="570"/>
    <use x="288" xlink:href="#O" y="570"/>
    <use x="298" xlink:href="#v" y="570"/>
    <use x="308" xlink:href="#O" y="570"/>
    <use x="318" xlink:href="#q" y="570"/>
    <use x="328" xlink:href="#u" y="570"/>
    <use x="338" xlink:href="#v" y="570"/>
    <use x="348" xlink:href="#O" y="570"/>
    <use x="358" xlink:href="#s" y="570"/>
    <use x="368" xlink:href="#P" y="570"/>
    <use x="378" xlink:href="#v" y="570"/>
    <use x="388" xlink:href="#C" y="570"/>
    <use x="398" xlink:href="#w" y="570"/>
    <use x="408" xlink:href="#k" y="570"/>
    <use x="418" xlink:href="#n" y="570"/>
    <use x="428" xlink:href="#o" y="570"/>
  </g>
  <g fill="#d8d8d8">
    <use x="438" xlink:href="#A" y="570"/>
    <use x="448" xlink:href="#Q" y="570"/>
    <use x="458" xlink:href="#A" y="570"/>
  </g>
  <g fill="#6f8757">
    <use x="28" xlink:href="#y" y="594"/>
    <use x="38" xlink:href="#R" y="594"/>
    <use x="48" xlink:href="#l" y="594"/>
    <use x="58" xlink:href="#n" y="594"/>
    <use x="68" xlink:href="#l" y="594"/>
    <use x="78" xlink:href="#u" y="594"/>
    <use x="88" xlink:href="#p" y="594"/>
    <use x="98" xlink:href="#w" y="594"/>
    <use x="108" xlink:href="#r" y="594"/>
    <use x="118" xlink:href="#l" y="594"/>
    <use x="128" xlink:href="#E" y="594"/>
    <use x="138" xlink:href="#A" y="594"/>
    <use x="148" xlink:href="#n" y="594"/>
    <use x="158" xlink:href="#o" y="594"/>
    <use x="168" xlink:href="#l" y="594"/>
    <use x="178" xlink:href="#A" y="594"/>
    <use x="188" xlink:href="#o" y="594"/>
    <use x="198" xlink:href="#l" y="594"/>
    <use x="208" xlink:href="#w" y="594"/>
    <use x="218" xlink:href="#x" y="594"/>
    <use x="228" xlink:href="#o" y="594"/>
    <use x="238" xlink:href="#n" y="594"/>
    <use x="248" xlink:href="#A" y="594"/>
    <use x="258" xlink:href="#s" y="594"/>
    <use x="268" xlink:href="#m" y="594"/>
    <use x="278" xlink:href="#A" y="594"/>
    <use x="288" xlink:href="#n" y="594"/>
    <use x="298" xlink:href="#o" y="594"/>
    <use x="308" xlink:href="#l" y="594"/>
    <use x="318" xlink:href="#A" y="594"/>
    <use x="328" xlink:href="#n" y="594"/>
    <use x="338" xlink:href="#q" y="594"/>
    <use x="348" xlink:href="#O" y="594"/>
    <use x="358" xlink:href="#v" y="594"/>
    <use x="368" xlink:href="#O" y="594"/>
    <use x="378" xlink:href="#q" y="594"/>
    <use x="388" xlink:href="#u" y="594"/>
    <use x="398" xlink:href="#y" y="594"/>
  </g>
  <g fill="#af95e5">
    <use x="28" xlink:href="#M" y="618"/>
    <use x="38" xlink:href="#n" y="618"/>
    <use x="48" xlink:href="#V" y="618"/>
    <use x="58" xlink:href="#I" y="618"/>
    <use x="68" xlink:href="#l" y="618"/>
  </g>
  <g fill="#d8d8d8">
    <use x="78" xlink:href="#A" y="618"/>
    <use x="88" xlink:href="#N" y="618"/>
    <use x="98" xlink:href="#w" y="618"/>
    <use x="108" xlink:href="#r" y="618"/>
    <use x="118" xlink:href="#n" y="618"/>
    <use x="128" xlink:href="#l" y="618"/>
    <use x="138" xlink:href="#x" y="618"/>
    <use x="148" xlink:href="#l" y="618"/>
    <use x="158" xlink:href="#u" y="618"/>
    <use x="168" xlink:href="#A" y="618"/>
  </g>
  <g fill="#af95e5">
    <use x="28" xlink:href="#M" y="642"/>
    <use x="38" xlink:href="#x" y="642"/>
    <use x="48" xlink:href="#u" y="642"/>
    <use x="58" xlink:href="#s" y="642"/>
    <use x="68" xlink:href="#H" y="642"/>
    <use x="78" xlink:href="#I" y="642"/>
  </g>
  <g fill="#d8d8d8">
    <use x="88" xlink:href="#A" y="642"/>
    <use x="98" xlink:href="#N" y="642"/>
    <use x="108" xlink:href="#o" y="642"/>
    <use x="118" xlink:href="#q" y="642"/>
    <use x="128" xlink:href="#r" y="642"/>
    <use x="138" xlink:href="#r" y="642"/>
    <use x="148" xlink:href="#s" y="642"/>
    <use x="158" xlink:href="#t" y="642"/>
    <use x="168" xlink:href="#l" y="642"/>
    <use x="178" xlink:href="#u" y="642"/>
    <use x="188" xlink:href="#v" y="642"/>
    <use x="198" xlink:href="#r" y="642"/>
    <use x="208" xlink:href="#w" y="642"/>
    <use x="218" xlink:href="#x" y="642"/>
    <use x="228" xlink:href="#o" y="642"/>
    <use x="238" xlink:href="#n" y="642"/>
    <use x="248" xlink:href="#v" y="642"/>
    <use x="258" xlink:href="#n" y="642"/>
    <use x="268" xlink:href="#o" y="642"/>
    <use x="278" xlink:href="#l" y="642"/>
    <use x="288" xlink:href="#p" y="642"/>
    <use x="298" xlink:href="#l" y="642"/>
  </g>
  <use fill="#8399b0" x="308" xlink:href="#G" y="642"/>
  <use fill="#8399b0" x="8" xlink:href="#j" y="690"/>
  <g fill="#72ace5">
    <use x="18" xlink:href="#k" y="690"/>
    <use x="28" xlink:href="#l" y="690"/>
    <use x="38" xlink:href="#m" y="690"/>
    <use x="48" xlink:href="#H" y="690"/>
    <use x="58" xlink:href="#r" y="690"/>
  </g>
  <g fill="#e59e8d">
    <use x="78" xlink:href="#o" y="690"/>
    <use x="88" xlink:href="#q" y="690"/>
    <use x="98" xlink:href="#r" y="690"/>
    <use x="108" xlink:href="#r" y="690"/>
    <use x="118" xlink:href="#s" y="690"/>
    <use x="128" xlink:href="#t" y="690"/>
    <use x="138" xlink:href="#l" y="690"/>
    <use x="148" xlink:href="#u" y="690"/>
    <use x="158" xlink:href="#v" y="690"/>
    <use x="168" xlink:href="#r" y="690"/>
    <use x="178" xlink:href="#w" y="690"/>
    <use x="188" xlink:href="#x" y="690"/>
    <use x="198" xlink:href="#o" y="690"/>
    <use x="208" xlink:href="#n" y="690"/>
    <use x="218" xlink:href="#v" y="690"/>
    <use x="228" xlink:href="#p" y="690"/>
    <use x="238" xlink:href="#w" y="690"/>
    <use x="248" xlink:href="#P" y="690"/>
  </g>
  <use fill="#b0948d" x="268" xlink:href="#j" y="690"/>
  <g fill="#d8d8d8">
    <use x="278" xlink:href="#D" y="690"/>
    <use x="288" xlink:href="#s" y="690"/>
    <use x="298" xlink:href="#J" y="690"/>
    <use x="308" xlink:href="#s" y="690"/>
    <use x="318" xlink:href="#u" y="690"/>
    <use x="328" xlink:href="#U" y="690"/>
    <use x="338" xlink:href="#A" y="690"/>
    <use x="348" xlink:href="#D" y="690"/>
    <use x="358" xlink:href="#s" y="690"/>
    <use x="368" xlink:href="#J" y="690"/>
    <use x="378" xlink:href="#s" y="690"/>
    <use x="388" xlink:href="#u" y="690"/>
    <use x="398" xlink:href="#W" y="690"/>
    <use x="408" xlink:href="#A" y="690"/>
    <use x="418" xlink:href="#u" y="690"/>
    <use x="428" xlink:href="#q" y="690"/>
    <use x="438" xlink:href="#n" y="690"/>
    <use x="448" xlink:href="#w" y="690"/>
    <use x="458" xlink:href="#s" y="690"/>
  </g>
  <use fill="#b0948d" x="468" xlink:href="#G" y="690"/>
  <g fill="#6f8757">
    <use x="28" xlink:href="#y" y="714"/>
    <use x="38" xlink:href="#X" y="714"/>
    <use x="48" xlink:href="#w" y="714"/>
    <use x="58" xlink:href="#P" y="714"/>
    <use x="68" xlink:href="#A" y="714"/>
    <use x="78" xlink:href="#Y" y="714"/>
    <use x="88" xlink:href="#Z" y="714"/>
    <use x="98" xlink:href="#aa" y="714"/>
    <use x="108" xlink:href="#Z" y="714"/>
    <use x="118" xlink:href="#ab" y="714"/>
    <use x="128" xlink:href="#U" y="714"/>
    <use x="138" xlink:href="#A" y="714"/>
    <use x="148" xlink:href="#q" y="714"/>
    <use x="158" xlink:href="#r" y="714"/>
    <use x="168" xlink:href="#k" y="714"/>
    <use x="178" xlink:href="#A" y="714"/>
    <use x="188" xlink:href="#Y" y="714"/>
    <use x="198" xlink:href="#Z" y="714"/>
    <use x="208" xlink:href="#aa" y="714"/>
    <use x="218" xlink:href="#Z" y="714"/>
    <use x="228" xlink:href="#ab" y="714"/>
    <use x="238" xlink:href="#W" y="714"/>
    <use x="248" xlink:href="#A" y="714"/>
    <use x="258" xlink:href="#k" y="714"/>
    <use x="268" xlink:href="#l" y="714"/>
    <use x="278" xlink:href="#I" y="714"/>
    <use x="288" xlink:href="#l" y="714"/>
    <use x="298" xlink:href="#r" y="714"/>
    <use x="308" xlink:href="#k" y="714"/>
    <use x="318" xlink:href="#w" y="714"/>
    <use x="328" xlink:href="#r" y="714"/>
    <use x="338" xlink:href="#x" y="714"/>
    <use x="348" xlink:href="#A" y="714"/>
    <use x="358" xlink:href="#s" y="714"/>
    <use x="368" xlink:href="#r" y="714"/>
    <use x="378" xlink:href="#A" y="714"/>
    <use x="388" xlink:href="#ab" y="714"/>
    <use x="398" xlink:href="#z" y="714"/>
    <use x="408" xlink:href="#ac" y="714"/>
    <use x="418" xlink:href="#ad" y="714"/>
    <use x="428" xlink:href="#Z" y="714"/>
    <use x="438" xlink:href="#F" y="714"/>
    <use x="448" xlink:href="#y" y="714"/>
  </g>
  <g clip-path="url(#a)">
    <use fill="#b0948d" x="28" xlink:href="#j" y="738"/>
  </g>
  <g clip-path="url(#b)">
    <g fill="#72ace5">
      <use x="38" xlink:href="#J" y="738"/>
      <use x="48" xlink:href="#l" y="738"/>
      <use x="58" xlink:href="#n" y="738"/>
    </g>
  </g>
  <g clip-path="url(#c)">
    <use fill="#94ab7e" x="78" xlink:href="#j" y="738"/>
  </g>
  <g clip-path="url(#d)">
    <use fill="#b3a485" x="88" xlink:href="#j" y="738"/>
  </g>
  <g clip-path="url(#e)">
    <g fill="#d8d8d8">
      <use x="98" xlink:href="#D" y="738"/>
      <use x="108" xlink:href="#s" y="738"/>
      <use x="118" xlink:href="#J" y="738"/>
      <use x="128" xlink:href="#s" y="738"/>
      <use x="138" xlink:href="#u" y="738"/>
      <use x="148" xlink:href="#U" y="738"/>
      <use x="158" xlink:href="#A" y="738"/>
    </g>
  </g>
  <g clip-path="url(#f)">
    <use fill="#9b90b0" x="168" xlink:href="#j" y="738"/>
  </g>
  <g clip-path="url(#g)">
    <g fill="#d8d8d8">
      <use x="178" xlink:href="#D" y="738"/>
      <use x="188" xlink:href="#s" y="738"/>
      <use x="198" xlink:href="#J" y="738"/>
      <use x="208" xlink:href="#s" y="738"/>
      <use x="218" xlink:href="#u" y="738"/>
      <use x="228" xlink:href="#v" y="738"/>
      <use x="238" xlink:href="#r" y="738"/>
      <use x="248" xlink:href="#q" y="738"/>
      <use x="258" xlink:href="#p" y="738"/>
      <use x="268" xlink:href="#l" y="738"/>
      <use x="278" xlink:href="#v" y="738"/>
      <use x="288" xlink:href="#n" y="738"/>
      <use x="298" xlink:href="#s" y="738"/>
      <use x="308" xlink:href="#v" y="738"/>
      <use x="318" xlink:href="#u" y="738"/>
      <use x="328" xlink:href="#x" y="738"/>
      <use x="338" xlink:href="#O" y="738"/>
      <use x="348" xlink:href="#A" y="738"/>
      <use x="358" xlink:href="#D" y="738"/>
      <use x="368" xlink:href="#s" y="738"/>
      <use x="378" xlink:href="#J" y="738"/>
      <use x="388" xlink:href="#s" y="738"/>
      <use x="398" xlink:href="#u" y="738"/>
      <use x="408" xlink:href="#U" y="738"/>
    </g>
  </g>
  <g clip-path="url(#h)">
    <use fill="#9b90b0" x="418" xlink:href="#G" y="738"/>
  </g>
  <g clip-path="url(#i)">
    <use fill="#b3a485" x="428" xlink:href="#G" y="738"/>
  </g>
  <path d="m0 970.66602v10.66796 32.00002 10.666h104 320 306.66602 26.66796 106.66602 237.334 133.332v-10.666-32.00002-10.66796h-133.332-237.334-106.66602-26.66796-306.66602-320z" fill="#3a4a73" transform="scale(.75)"/>
  <g fill="#9a9fb0">
    <use x="8" xlink:href="#A" y="754"/>
    <use x="18" xlink:href="#v" y="754"/>
    <use x="28" xlink:href="#A" y="754"/>
    <use x="38" xlink:href="#v" y="754"/>
    <use x="48" xlink:href="#M" y="754"/>
    <use x="58" xlink:href="#A" y="754"/>
    <use x="68" xlink:href="#A" y="754"/>
  </g>
  <g fill="#d8d8d8">
    <use x="78" xlink:href="#o" y="754"/>
    <use x="88" xlink:href="#q" y="754"/>
    <use x="98" xlink:href="#r" y="754"/>
    <use x="108" xlink:href="#r" y="754"/>
    <use x="118" xlink:href="#s" y="754"/>
    <use x="128" xlink:href="#t" y="754"/>
    <use x="138" xlink:href="#l" y="754"/>
    <use x="148" xlink:href="#u" y="754"/>
    <use x="158" xlink:href="#v" y="754"/>
    <use x="168" xlink:href="#r" y="754"/>
    <use x="178" xlink:href="#w" y="754"/>
    <use x="188" xlink:href="#x" y="754"/>
    <use x="198" xlink:href="#o" y="754"/>
    <use x="208" xlink:href="#n" y="754"/>
    <use x="218" xlink:href="#v" y="754"/>
    <use x="228" xlink:href="#n" y="754"/>
    <use x="238" xlink:href="#o" y="754"/>
    <use x="248" xlink:href="#l" y="754"/>
    <use x="258" xlink:href="#p" y="754"/>
    <use x="268" xlink:href="#l" y="754"/>
    <use x="278" xlink:href="#F" y="754"/>
    <use x="288" xlink:href="#l" y="754"/>
    <use x="298" xlink:href="#J" y="754"/>
    <use x="308" xlink:href="#A" y="754"/>
  </g>
  <g fill="#9a9fb0">
    <use x="318" xlink:href="#A" y="754"/>
    <use x="328" xlink:href="#A" y="754"/>
    <use x="338" xlink:href="#A" y="754"/>
    <use x="348" xlink:href="#A" y="754"/>
    <use x="358" xlink:href="#ae" y="754"/>
    <use x="368" xlink:href="#ae" y="754"/>
    <use x="378" xlink:href="#M" y="754"/>
    <use x="388" xlink:href="#ae" y="754"/>
    <use x="398" xlink:href="#W" y="754"/>
    <use x="408" xlink:href="#A" y="754"/>
    <use x="418" xlink:href="#A" y="754"/>
    <use x="428" xlink:href="#A" y="754"/>
    <use x="438" xlink:href="#A" y="754"/>
    <use x="448" xlink:href="#af" y="754"/>
    <use x="458" xlink:href="#ag" y="754"/>
    <use x="468" xlink:href="#A" y="754"/>
    <use x="478" xlink:href="#A" y="754"/>
    <use x="488" xlink:href="#A" y="754"/>
    <use x="498" xlink:href="#ah" y="754"/>
    <use x="508" xlink:href="#aa" y="754"/>
    <use x="518" xlink:href="#w" y="754"/>
    <use x="528" xlink:href="#E" y="754"/>
    <use x="538" xlink:href="#I" y="754"/>
  </g>
  <g fill="#edc678">
    <use x="548" xlink:href="#ai" y="754"/>
    <use x="558" xlink:href="#k" y="754"/>
  </g>
  <g fill="#9a9fb0">
    <use x="826" xlink:href="#A" y="754"/>
    <use x="836" xlink:href="#aj" y="754"/>
    <use x="846" xlink:href="#w" y="754"/>
    <use x="856" xlink:href="#n" y="754"/>
    <use x="866" xlink:href="#M" y="754"/>
    <use x="876" xlink:href="#p" y="754"/>
    <use x="886" xlink:href="#q" y="754"/>
    <use x="896" xlink:href="#w" y="754"/>
    <use x="906" xlink:href="#r" y="754"/>
    <use x="916" xlink:href="#A" y="754"/>
  </g>
  <path d="m428 168h10v24h-10zm0 0" fill="#72ace5"/>
</svg>
