<svg height="792pt" viewBox="0 0 926 792" width="926pt" xmlns="http://www.w3.org/2000/svg" xmlns:xlink="http://www.w3.org/1999/xlink">
  <clipPath id="a">
    <path d="m12 716h302v12h-302zm0 0"/>
  </clipPath>
  <symbol id="b" overflow="visible">
    <path d="m1.40625 0 .67188-3.5625h-1.48438v-1.10938h1.67188l.57812-3.0625h-1.65625v-1.10937h1.84375l.65625-3.5625h1.1875l-.65625 3.5625h2.71875l.65625-3.5625h1.1875l-.65625 3.5625h1.48438v1.10937h-1.67188l-.57812 3.0625h1.65625v1.10938h-1.84375l-.65625 3.5625h-1.1875l.65625-3.5625h-2.71875l-.67188 3.5625zm2.04688-4.67188h2.71875l.57812-3.0625h-2.71875zm0 0"/>
  </symbol>
  <symbol id="c" overflow="visible">
    <path d="m4.35938-1.60938v-3.32812h-3.25v-1.35938h3.25v-3.3125h1.48437v3.3125h3.25v1.35938h-3.25v3.32812zm0 0"/>
  </symbol>
  <symbol id="d" overflow="visible">
    <path d="m4.32813 0v-11.01563h-3.39063v-1.39062h8.32813v1.39062h-3.40625v11.01563zm0 0"/>
  </symbol>
  <symbol id="e" overflow="visible">
    <path d="m1.78125 0v-1.39063h2.53125v-9.625h-2.53125v-1.39062h6.64063v1.39062h-2.54688v9.625h2.54688v1.39063zm0 0"/>
  </symbol>
  <symbol id="f" overflow="visible">
    <path d="m2.20313 0v-12.40625h1.53125v11.01562h5.60937v1.39063zm0 0"/>
  </symbol>
  <symbol id="g" overflow="visible">
    <path d="m1.70313 0v-12.40625h7.14062v1.39062h-5.625v3.84375h5.03125v1.35938h-5.03125v4.42187h5.625v1.39063zm0 0"/>
  </symbol>
  <symbol id="h" overflow="visible">
    <path d="m5.09375-6.96875c-.41797 0-.75781-.11328-1.01562-.34375-.26172-.23828-.39063-.55078-.39063-.9375 0-.38281.12891-.69141.39063-.92188.25781-.22656.59765-.34375 1.01562-.34375.4375 0 .78125.11719 1.03125.34375.25781.23047.39063.53907.39063.92188 0 .38672-.13282.69922-.39063.9375-.25.23047-.59375.34375-1.03125.34375zm0 7.14063c-.41797 0-.75781-.11719-1.01562-.34376-.26172-.23828-.39063-.55078-.39063-.9375 0-.38281.12891-.6914.39063-.92187.25781-.22656.59765-.34375 1.01562-.34375.4375 0 .78125.11719 1.03125.34375.25781.23047.39063.53906.39063.92187 0 .38672-.13282.69922-.39063.9375-.25.22657-.59375.34376-1.03125.34376zm0 0"/>
  </symbol>
  <symbol id="i" overflow="visible">
    <path d="m.84375 0 3.23438-12.40625h2.0625l3.20312 12.40625h-1.54687l-.8125-3.29688h-3.75l-.82813 3.29688zm2.6875-4.59375h3.125l-.9375-3.82813c-.1875-.71875-.33594-1.32031-.4375-1.8125-.09375-.48828-.15625-.80468-.1875-.95312-.02344.14844-.08594.46484-.1875.95312-.09375.49219-.23437 1.08985-.42187 1.79688zm0 0"/>
  </symbol>
  <symbol id="j" overflow="visible">
    <path d="m5.09375.17188c-1.15625 0-2.04297-.31641-2.65625-.95313-.60547-.64453-.90625-1.51953-.90625-2.625v-9h1.53125v9c0 .6875.16406 1.23047.5 1.625.33203.39844.84375.59375 1.53125.59375s1.19531-.19531 1.53125-.59375c.34375-.39453.51563-.9375.51563-1.625v-9h1.53125v9c0 1.11719-.3086 1.99219-.92188 2.625-.60547.63672-1.49219.95313-2.65625.95313zm0 0"/>
  </symbol>
  <symbol id="k" overflow="visible">
    <path d="m1.57813 0v-12.40625h1.53125v5.29687h3.98437v-5.29687h1.53125v12.40625h-1.53125v-5.71875h-3.98437v5.71875zm0 0"/>
  </symbol>
  <symbol id="l" overflow="visible">
    <path d="m5.09375.17188c-1.10547 0-1.98047-.31641-2.625-.95313-.64844-.63281-.96875-1.50781-.96875-2.625v-5.60938c0-1.10156.32031-1.97265.96875-2.60937.64453-.63281 1.51953-.95313 2.625-.95313 1.11328 0 1.99219.32032 2.64063.95313.64453.625.96875 1.49219.96875 2.59375v5.625c0 1.11719-.32422 1.99219-.96875 2.625-.64844.63672-1.52735.95313-2.64063.95313zm0-1.37501c.67578 0 1.19141-.1875 1.54688-.5625.35156-.38281.53125-.92968.53125-1.64062v-5.60938c0-.69531-.17969-1.23437-.53125-1.60937-.35547-.38281-.8711-.57813-1.54688-.57813-.65625 0-1.16797.19532-1.53125.57813-.35547.375-.53125.91406-.53125 1.60937v5.60938c0 .71094.17578 1.25781.53125 1.64062.36328.375.875.5625 1.53125.5625zm0 0"/>
  </symbol>
  <symbol id="m" overflow="visible">
    <path d="m1.5625 0v-12.40625h3.84375c.73828 0 1.38281.15234 1.9375.45312.55078.29297.97656.71094 1.28125 1.25.3125.53125.46875 1.15235.46875 1.85938 0 .84375-.21875 1.57031-.65625 2.17187-.4375.59375-1.03125 1.00782-1.78125 1.23438l2.60938 5.4375h-1.79688l-2.39062-5.26563h-1.98438v5.26563zm1.53125-6.64063h2.3125c.63281 0 1.14453-.20312 1.53125-.60937.38281-.40625.57813-.9375.57813-1.59375 0-.66406-.19532-1.19531-.57813-1.59375-.38672-.39453-.89844-.59375-1.53125-.59375h-2.3125zm0 0"/>
  </symbol>
  <symbol id="n" overflow="visible">
    <path d="m5.09375.17188c-.73047 0-1.37109-.14844-1.92187-.43751-.55469-.30078-.98047-.71875-1.28125-1.25-.30469-.53906-.45313-1.17187-.45313-1.89062v-2.54688c0-.71875.14844-1.34375.45313-1.875.30078-.53906.72656-.95703 1.28125-1.25.55078-.28906 1.1914-.4375 1.92187-.4375.73828 0 1.38281.14844 1.9375.4375.55078.29297.97266.71094 1.26563 1.25.30078.53125.45312 1.15625.45312 1.875v1.65625h-5.8125v.89063c0 .74219.1875 1.30859.5625 1.70312.375.38672.90625.57813 1.59375.57813.59375 0 1.07031-.10156 1.4375-.3125.36328-.20703.58203-.51953.65625-.9375h1.53125c-.10547.78125-.49219 1.40234-1.15625 1.85937-.65625.46094-1.48047.68751-2.46875.68751zm-2.15625-5.62501h4.32813v-.5c0-.73828-.1875-1.30468-.5625-1.70312-.36719-.39453-.90235-.59375-1.60938-.59375-.6875 0-1.21875.19922-1.59375.59375-.375.39844-.5625.96484-.5625 1.70312zm0 0"/>
  </symbol>
  <symbol id="o" overflow="visible">
    <path d="m4.8125.14063c-.96875 0-1.76172-.21876-2.375-.65626-.60547-.44531-.90625-1.05468-.90625-1.82812h1.5625c0 .35547.16406.63281.5.82812.33203.19922.75.29688 1.25.29688h.71875c.59375 0 1.03516-.11719 1.32813-.35938.30078-.25.45312-.57812.45312-.98437 0-.39453-.14062-.70703-.42187-.9375-.27344-.23828-.66797-.39844-1.1875-.48438l-1.26563-.20312c-.92969-.15625-1.61719-.44531-2.0625-.875-.4375-.4375-.65625-1.03125-.65625-1.78125 0-.85156.27344-1.50391.82813-1.95313.55078-.45703 1.34375-.6875 2.375-.6875h.64062c.94531 0 1.70703.21485 2.28125.64063.57031.41797.85938.98047.85938 1.6875h-1.5625c0-.28906-.14844-.52344-.4375-.70313-.28125-.17578-.67188-.26562-1.17188-.26562h-.65625c-.53125 0-.94531.10937-1.23437.32812-.28125.21875-.42188.53907-.42188.95313 0 .67969.47656 1.09375 1.4375 1.25l1.26563.20312c1.00781.15625 1.74218.45313 2.20312.89063.45703.42969.6875 1.04687.6875 1.85937 0 .86719-.27734 1.54688-.82812 2.04688-.55469.49219-1.38282.73438-2.48438.73438zm0 0"/>
  </symbol>
  <symbol id="p" overflow="visible">
    <path d="m6.125 0c-.77344 0-1.39062-.22266-1.85937-.67188-.46875-.44531-.70313-1.04687-.70313-1.79687v-5.48438h-2.625v-1.39062h2.625v-2.64063h1.53125v2.64063h3.75v1.39062h-3.75v5.48438c0 .32422.09375.58594.28125.78125.1875.19922.4375.29687.75.29687h2.54688v1.39063zm0 0"/>
  </symbol>
  <symbol id="q" overflow="visible"/>
  <symbol id="r" overflow="visible">
    <path d="m5.07813.17188c-1.07422 0-1.9336-.31641-2.57813-.95313-.64844-.64453-.96875-1.51953-.96875-2.625v-5.9375h1.53125v5.9375c0 .71094.17578 1.26172.53125 1.65625.36328.38672.85938.57812 1.48438.57812.63281 0 1.13281-.1914 1.5-.57812.375-.39453.5625-.94531.5625-1.65625v-5.9375h1.53125v5.9375c0 1.10547-.32813 1.98047-.98438 2.625-.65625.63672-1.52734.95313-2.60937.95313zm0 0"/>
  </symbol>
  <symbol id="s" overflow="visible">
    <path d="m1.5625 0v-12.40625h1.53125v4.84375h.01563c.08203-.625.33593-1.10156.76562-1.4375.42578-.34375 1-.51563 1.71875-.51563.9375 0 1.67969.29297 2.23438.875.5625.57422.84375 1.35547.84375 2.34375v6.29688h-1.53125v-6.125c0-.66406-.1836-1.17969-.54688-1.54688-.35547-.375-.83594-.5625-1.4375-.5625-.63672 0-1.14062.20313-1.51562.60938-.36719.39844-.54688.95312-.54688 1.67187v5.95313zm0 0"/>
  </symbol>
  <symbol id="t" overflow="visible">
    <path d="m5.09375.14063c-1.125 0-2.01562-.31641-2.67187-.95313-.65625-.64453-.98438-1.51953-.98438-2.625v-2.48438c0-1.10156.32813-1.97265.98438-2.60937.65625-.63281 1.54687-.95313 2.67187-.95313 1.13281 0 2.02344.32032 2.67188.95313.65625.63672.98437 1.5.98437 2.59375v2.5c0 1.10547-.32812 1.98047-.98437 2.625-.64844.63672-1.53907.95313-2.67188.95313zm0-1.35938c.67578 0 1.19531-.1875 1.5625-.5625.375-.375.5625-.92578.5625-1.65625v-2.48438c0-.71875-.1875-1.26562-.5625-1.64062-.36719-.375-.88672-.5625-1.5625-.5625-.65625 0-1.17969.1875-1.5625.5625-.375.375-.5625.92187-.5625 1.64062v2.48438c0 .73047.1875 1.28125.5625 1.65625.38281.375.90625.5625 1.5625.5625zm0 0"/>
  </symbol>
  <symbol id="u" overflow="visible">
    <path d="m1.85938 0v-9.34375h1.53125v1.78125h.01562c.07031-.625.32031-1.10156.75-1.4375.4375-.34375 1.00781-.51563 1.71875-.51563.97656 0 1.75391.3086 2.32813.92188.58203.61719.875 1.44922.875 2.5v.65625h-1.53125v-.51563c0-.70703-.1836-1.2539-.54688-1.64062-.36719-.39453-.89062-.59375-1.57812-.59375-1.35547 0-2.03125.74609-2.03125 2.23437v5.95313zm0 0"/>
  </symbol>
  <symbol id="v" overflow="visible">
    <path d="m1.4375 0v-1.39063h3.32813v-6.5625h-2.98438v-1.39062h4.51563v7.95312h3.14062v1.39063zm3.92188-11.03125c-.375 0-.67188-.09375-.89063-.28125-.21875-.19531-.32812-.46094-.32812-.79688 0-.33203.10937-.59765.32812-.79687.21875-.19531.51563-.29688.89063-.29688s.66406.10157.875.29688c.21875.19922.32812.46484.32812.79687 0 .33594-.10937.60157-.32812.79688-.21094.1875-.5.28125-.875.28125zm0 0"/>
  </symbol>
  <symbol id="w" overflow="visible">
    <path d="m4.28125.17188c-.98047 0-1.75781-.25001-2.32812-.75001-.5625-.50781-.84375-1.19531-.84375-2.0625 0-.86328.28125-1.54687.84375-2.04687.57031-.5 1.33593-.75 2.29687-.75h2.89063v-.9375c0-.5625-.17188-1-.51563-1.3125-.34375-.32031-.82422-.48438-1.4375-.48438-.54297 0-1 .1211-1.375.35938-.375.23047-.60937.53906-.70312.92187h-1.53125c.0625-.51953.2539-.97656.57812-1.375.32031-.39453.74219-.70312 1.26563-.92187.53125-.21875 1.11718-.32813 1.76562-.32813 1.07031 0 1.92188.27735 2.54688.82813.625.55469.9375 1.30859.9375 2.26562v6.42188h-1.5v-1.78125h-.01563c-.0625.59375-.35547 1.07031-.875 1.42187-.51172.35547-1.17969.53126-2 .53126zm.375-1.20313c.72656 0 1.32031-.17969 1.78125-.54688.46875-.36328.70313-.82812.70313-1.39062v-1.32813h-2.85938c-.51172 0-.91406.14063-1.20312.42188-.29297.28125-.4375.66797-.4375 1.15625 0 .52344.17578.93359.53125 1.23437.35156.30469.84765.45313 1.48437.45313zm0 0"/>
  </symbol>
  <symbol id="x" overflow="visible">
    <path d="m5.17188.17188c-1.13672 0-2.04297-.31641-2.71875-.95313-.67969-.63281-1.01563-1.50781-1.01563-2.625v-2.54688c0-1.10156.33594-1.97265 1.01563-2.60937.67578-.63281 1.58203-.95313 2.71875-.95313 1.07031 0 1.9375.29297 2.59375.875.65625.57422 1.0039 1.35547 1.04687 2.34375h-1.53125c-.04297-.59375-.24609-1.05078-.60937-1.375-.36719-.32031-.86719-.48437-1.5-.48437-.66797 0-1.20313.19531-1.60938.57812-.39844.375-.59375.91407-.59375 1.60938v2.5625c0 .71094.19531 1.25781.59375 1.64062.40625.38672.94141.57813 1.60938.57813.63281 0 1.13281-.16016 1.5-.48438.36328-.33203.5664-.79687.60937-1.39062h1.53125c-.04297 1-.39062 1.79297-1.04687 2.375-.65625.57422-1.52344.85938-2.59375.85938zm0 0"/>
  </symbol>
  <symbol id="y" overflow="visible">
    <path d="m4.5625.17188c-.9375 0-1.69531-.31251-2.26562-.93751-.57422-.625-.85938-1.46875-.85938-2.53125v-2.73437c0-1.08203.28125-1.92969.84375-2.54688.57031-.625 1.33203-.9375 2.28125-.9375.69531 0 1.26953.17969 1.71875.53125.45703.34375.72656.82032.8125 1.42188h.04688l-.03125-2.125v-2.71875h1.53125v12.40625h-1.53125v-1.78125h-.01563c-.08594.61719-.35547 1.09375-.8125 1.4375-.44922.34375-1.02344.51563-1.71875.51563zm.5-1.32813c.63281 0 1.13281-.19531 1.5-.59375.36328-.39453.54688-.94531.54688-1.65625v-2.54688c0-.69531-.1836-1.24218-.54688-1.64062-.36719-.39453-.86719-.59375-1.5-.59375-.64844 0-1.15625.19531-1.53125.57812-.375.38672-.5625.9375-.5625 1.65625v2.54688c0 .73047.1875 1.28906.5625 1.67187.375.38672.88281.57813 1.53125.57813zm0 0"/>
  </symbol>
  <symbol id="z" overflow="visible">
    <path d="m.84375 0 3.32813-4.8125-3.125-4.53125h1.8125l1.84375 2.89062c.08203.125.16015.26172.23437.40625.07031.14844.12891.26563.17188.35938.03906-.09375.09765-.21094.17187-.35938.07031-.14453.14844-.28125.23438-.40625l1.85937-2.89062h1.78125l-3.10937 4.54687 3.29687 4.79688h-1.79687l-2-3.0625c-.08594-.125-.16407-.26563-.23438-.42188-.07422-.16406-.14062-.30078-.20312-.40625-.04297.10547-.10547.24219-.1875.40625-.08594.15625-.17188.29688-.26563.42188l-2.01562 3.0625zm0 0"/>
  </symbol>
  <symbol id="A" overflow="visible">
    <path d="m1.01563 0v-9.34375h1.34375v1.10937h.10937c.07031-.38281.25-.6914.53125-.92187.28125-.23828.625-.35938 1.03125-.35938.375 0 .69531.11719.96875.34375.26953.23047.46094.54297.57813.9375h.09375c.08203-.38281.26562-.6914.54687-.92187.28125-.23828.63281-.35938 1.0625-.35938.5625 0 1.01953.22657 1.375.67188.35156.44922.53125 1.02734.53125 1.73437v7.10938h-1.42187v-7.125c0-.39453-.08985-.69531-.26563-.90625-.17969-.20703-.42969-.3125-.75-.3125-.33594 0-.58984.10547-.76562.3125-.17969.21094-.26563.50781-.26563.89062v7.14063h-1.23437v-7.125c0-.39453-.09375-.69531-.28125-.90625-.1875-.20703-.44532-.3125-.76563-.3125-.32422 0-.57422.10547-.75.3125-.16797.21094-.25.50781-.25.89062v7.14063zm0 0"/>
  </symbol>
  <symbol id="B" overflow="visible">
    <path d="m1.57813 3.0625v-12.40625h1.53125v1.78125h.01562c.08203-.61328.35156-1.09375.8125-1.4375.45703-.34375 1.03516-.51563 1.73438-.51563.94531 0 1.69531.3086 2.25.92188.5625.61719.84375 1.46484.84375 2.54687v2.73438c0 1.07422-.28125 1.92187-.84375 2.54687-.55469.625-1.30469.93751-2.25.93751-.69922 0-1.27735-.17579-1.73438-.53126-.44922-.35156-.71875-.82812-.8125-1.42187h-.04687l.03125 2.125v2.71875zm3.59375-4.21875c.64453 0 1.14843-.19141 1.51562-.57813.36328-.38281.54688-.9414.54688-1.67187v-2.54688c0-.71875-.1836-1.26953-.54688-1.65625-.36719-.38281-.87109-.57812-1.51562-.57812-.625 0-1.125.19922-1.5.59375-.375.39844-.5625.94531-.5625 1.64062v2.54688c0 .71094.1875 1.26172.5625 1.65625.375.39844.875.59375 1.5.59375zm0 0"/>
  </symbol>
  <symbol id="C" overflow="visible">
    <path d="m6.45313 0c-.82422 0-1.48438-.23828-1.98438-.71875-.49219-.47656-.73437-1.11719-.73437-1.92188v-8.375h-3.21875v-1.39062h4.75v9.76562c0 .38672.10937.69532.32812.92188.21875.21875.50391.32812.85938.32812h2.89062v1.39063zm0 0"/>
  </symbol>
  <symbol id="D" overflow="visible">
    <path d="m1.5625 0v-9.34375h1.53125v1.78125h.01563c.08203-.625.33593-1.10156.76562-1.4375.42578-.34375 1-.51563 1.71875-.51563.9375 0 1.67969.29297 2.23438.875.5625.57422.84375 1.35547.84375 2.34375v6.29688h-1.53125v-6.125c0-.66406-.1836-1.17578-.54688-1.53125-.35547-.35156-.83594-.53125-1.4375-.53125-.63672 0-1.14062.19531-1.51562.57812-.36719.38672-.54688.9375-.54688 1.65625v5.95313zm0 0"/>
  </symbol>
  <symbol id="E" overflow="visible">
    <path d="m8.75-1.10938-7.3125-3.65625v-1.6875l7.3125-3.65625v1.46875l-5.26562 2.59375c-.21875.09375-.42188.1836-.60938.26563-.1875.07422-.32422.12109-.40625.14062.10156.02344.25.07032.4375.14063.19531.07422.39063.16406.57813.26562l5.26562 2.59375zm0 0"/>
  </symbol>
  <symbol id="F" overflow="visible">
    <path d="m5.09375.17188c-.42969 0-.77344-.125-1.03125-.37501-.25-.25-.375-.58203-.375-1 0-.44531.125-.80078.375-1.0625.25781-.25781.60156-.39062 1.03125-.39062.4375 0 .78125.13281 1.03125.39062.25781.26172.39063.61719.39063 1.0625 0 .41797-.13282.75-.39063 1-.25.25001-.59375.37501-1.03125.37501zm0 0"/>
  </symbol>
  <symbol id="G" overflow="visible">
    <path d="m1.4375-1.10938v-1.46875l5.28125-2.59375c.20703-.10156.40625-.1914.59375-.26562.1875-.07031.32813-.11719.42188-.14063-.10547-.01953-.25782-.0664-.45313-.14062-.1875-.07031-.375-.16016-.5625-.26563l-5.28125-2.59375v-1.53125l7.3125 3.65625v1.6875zm0 0"/>
  </symbol>
  <symbol id="H" overflow="visible">
    <path d="m8.25 2.04688c-1.61719-.40625-2.87109-1.19532-3.76562-2.35938-.89844-1.16406-1.34375-2.59375-1.34375-4.28125v-3.0625c0-1.10156.20703-2.10156.625-3 .41406-.90625 1.0039-1.67188 1.76562-2.29688.76953-.625 1.67578-1.0664 2.71875-1.32812v1.45312c-.73047.16797-1.35937.49219-1.89062.96875-.53125.48047-.94922 1.07813-1.25 1.79688-.29297.71094-.4375 1.51172-.4375 2.40625v3.0625c0 .875.14453 1.67187.4375 2.39062.28906.71094.70312 1.29688 1.23437 1.76563.53906.46875 1.17578.78906 1.90625.96875zm0 0"/>
  </symbol>
  <symbol id="I" overflow="visible">
    <path d="m2.73438 3.0625v-1.39062h2.98437c.91406 0 1.375-.44532 1.375-1.32813v-1.1875l.03125-1.70313h-.03125c-.0625.59375-.32031 1.07032-.76562 1.42188-.44922.35547-1.02344.53125-1.71875.53125-.96875 0-1.73047-.3125-2.28125-.9375-.55469-.63281-.82813-1.48438-.82813-2.54688v-1.96875c0-1.07031.27344-1.91406.82813-2.53125.55078-.625 1.3125-.9375 2.28125-.9375.69531 0 1.26953.17969 1.71875.53125.44531.34375.70312.82032.76562 1.42188h.01563v-1.78125h1.51562v9.6875c0 .83203-.26172 1.49219-.78125 1.98438-.51172.48828-1.23047.73437-2.15625.73437zm2.32812-4.98438c.63281 0 1.13281-.19531 1.5-.59375.36328-.39453.54688-.94531.54688-1.65625v-1.78125c0-.69531-.1836-1.24218-.54688-1.64062-.36719-.39453-.86719-.59375-1.5-.59375-.64844 0-1.14844.19531-1.5.57812-.35547.38672-.53125.9375-.53125 1.65625v1.78125c0 .73047.17578 1.28907.53125 1.67188.35156.38672.85156.57812 1.5.57812zm0 0"/>
  </symbol>
  <symbol id="J" overflow="visible">
    <path d="m2.8125 2.71875 1.35938-5.28125h2.20312l-2.20312 5.28125zm0 0"/>
  </symbol>
  <symbol id="K" overflow="visible">
    <path d="m3.07813-1.59375-1.21875-.85938.90625-1.32812c.22656-.3125.5039-.625.82812-.9375.33203-.3125.625-.56641.875-.76563l-.04687-.125c-.32422-.01953-.70313-.0625-1.14063-.125-.4375-.07031-.83594-.17187-1.1875-.29687l-1.5-.54688.51563-1.40625 1.48437.53125c.36328.125.73828.3125 1.125.5625.38281.24219.70703.46094.96875.65625l.09375-.07812c-.08594-.3125-.17969-.69531-.28125-1.15625-.09375-.46875-.14062-.89453-.14062-1.28125v-1.625h1.48437v1.625c0 .38672-.05469.8125-.15625 1.28125-.09375.46094-.1875.84375-.28125 1.15625l.07813.07812c.25781-.19531.58593-.41406.98437-.65625.39453-.25.76563-.4375 1.10938-.5625l1.51562-.53125.51563 1.40625-1.51563.54688c-.35547.125-.75.22656-1.1875.29687-.42969.0625-.80469.10547-1.125.125l-.0625.14063c.25781.19922.55078.45312.875.76562.32031.3125.58594.6211.79688.92188l.9375 1.32812-1.21875.85938-.9375-1.32813c-.21875-.3125-.42188-.67578-.60938-1.09375-.17969-.41406-.3125-.77343-.40625-1.07812h-.125c-.11719.30469-.26172.66406-.4375 1.07812-.17969.41797-.375.78125-.59375 1.09375zm0 0"/>
  </symbol>
  <symbol id="L" overflow="visible">
    <path d="m4.09375 0-3.25-9.34375h1.59375l2.17188 6.28125c.125.375.22656.73437.3125 1.07812.09375.34375.16406.61719.21875.8125.05078-.19531.11328-.46875.1875-.8125.08203-.34375.1875-.70312.3125-1.07812l2.10937-6.28125h1.59375l-3.23437 9.34375zm0 0"/>
  </symbol>
  <symbol id="M" overflow="visible">
    <path d="m3.48438 1.875v-15.98438h4.17187v1.35938h-2.64062v13.26563h2.64062v1.35937zm0 0"/>
  </symbol>
  <symbol id="N" overflow="visible">
    <path d="m2.54688 1.875v-1.35937h2.64062v-13.26563h-2.64062v-1.35938h4.17187v15.98438zm0 0"/>
  </symbol>
  <symbol id="O" overflow="visible">
    <path d="m1.95313 2.04688v-1.51563c.73828-.17969 1.375-.5 1.90625-.96875s.9414-1.05469 1.23437-1.76563c.28906-.71875.4375-1.51562.4375-2.39062v-3.0625c0-.89453-.15234-1.69531-.45312-2.40625-.29297-.71875-.70313-1.31641-1.23438-1.79688-.53125-.47656-1.16406-.80078-1.89062-.96875v-1.45312c1.05078.26172 1.95703.70312 2.71875 1.32812.75781.625 1.34765 1.39063 1.76562 2.29688.41406.89844.625 1.89844.625 3v3.0625c0 1.6875-.44922 3.11719-1.34375 4.28125-.89844 1.16406-2.15234 1.95313-3.76562 2.35938zm0 0"/>
  </symbol>
  <symbol id="P" overflow="visible">
    <path d="m7.8125 1.875c-.99219 0-1.78125-.25-2.375-.75-.58594-.49219-.83984-1.17969-.76562-2.07813l.26562-2.78125c.05078-.60156-.03906-1.03515-.26562-1.29687-.23047-.26953-.71094-.40625-1.4375-.40625h-1.95313v-1.35938h1.95313c.72656 0 1.20703-.1289 1.4375-.39062.22656-.26953.3164-.70703.26562-1.3125l-.26562-2.78125c-.07422-.89453.17968-1.58594.76562-2.07813.59375-.5 1.38281-.75 2.375-.75h.76563v1.35938h-.76563c-.53125 0-.94531.125-1.23437.375-.29297.24219-.41797.60547-.375 1.09375l.25 2.78125c.0625.64844-.0625 1.17187-.375 1.57812-.3125.39844-.75.64063-1.3125.73438.5625.10547 1 .38281 1.3125.82812.3125.4375.4375.98047.375 1.625l-.25 2.78125c-.04297.49219.08203.85547.375 1.09376.28906.25.70312.375 1.23437.375h.76563v1.35937zm0 0"/>
  </symbol>
  <symbol id="Q" overflow="visible">
    <path d="m1.28125 1.875 6.03125-15.98438h1.60938l-6.03125 15.98438zm0 0"/>
  </symbol>
  <symbol id="R" overflow="visible">
    <path d="m3.73438 0v-7.01563h-2.71875v-1.40625h2.71875v-1.60937c0-.73828.23437-1.31641.70312-1.73438.46875-.42578 1.10938-.64062 1.92188-.64062h2.73437v1.39062h-2.73437c-.73047 0-1.09375.32813-1.09375.98438v1.60937h3.82812v1.40625h-3.82812v7.01563zm0 0"/>
  </symbol>
  <symbol id="S" overflow="visible">
    <path d="m1.4375-6.96875v-1.35938h7.3125v1.35938zm0 4.07812v-1.35937h7.3125v1.35937zm0 0"/>
  </symbol>
  <symbol id="T" overflow="visible">
    <path d="m5.09375.17188c-1.13672 0-2.04297-.32813-2.71875-.98438-.67969-.66406-1.01562-1.55469-1.01562-2.67188v-5.4375c0-1.11328.33593-2 1.01562-2.65625.67578-.66406 1.58203-1 2.71875-1 1.14453 0 2.05469.33594 2.73438 1 .67578.65625 1.01562 1.54297 1.01562 2.65625v5.4375c0 .74219-.15625 1.38672-.46875 1.9375-.30469.54297-.73437.96485-1.29687 1.26563-.5625.30078-1.22657.45313-1.98438.45313zm0-1.31251c.6875 0 1.23438-.21875 1.64063-.65625.41406-.4375.625-1 .625-1.6875v-5.4375c0-.69531-.21094-1.25781-.625-1.6875-.40625-.4375-.95313-.65625-1.64063-.65625-.67969 0-1.22656.21875-1.64062.65625-.40625.42969-.60938.99219-.60938 1.6875v5.4375c0 .6875.20313 1.25.60938 1.6875.41406.4375.96093.65625 1.64062.65625zm0-4.0625c-.30469 0-.54687-.09375-.73437-.28125-.1875-.19531-.28125-.45312-.28125-.76562s.09375-.5625.28125-.75.42968-.28125.73437-.28125c.3125 0 .5625.09375.75.28125s.28125.4375.28125.75-.09375.57031-.28125.76562c-.1875.1875-.4375.28125-.75.28125zm0 0"/>
  </symbol>
  <symbol id="U" overflow="visible">
    <path d="m4.9375-6.96875c-.375 0-.68359-.11719-.92187-.35938-.24219-.23828-.35938-.54687-.35938-.92187 0-.35156.11719-.64844.35938-.89063.25-.25.55468-.375.92187-.375h.32813c.36328 0 .66406.125.90625.375.25.24219.375.53907.375.89063 0 .375-.1211.68359-.35938.92187-.24219.24219-.54687.35938-.92187.35938zm-2.04687 9.6875 1.35937-5.28125h2.20313l-2.20313 5.28125zm0 0"/>
  </symbol>
  <symbol id="V" overflow="visible">
    <path d="m6.20313-7.3125-.20313-3.5625v-1.53125h1.65625v1.53125l-.1875 3.5625zm-3.45313 0-.20312-3.5625v-1.53125h1.65625v1.53125l-.1875 3.5625zm0 0"/>
  </symbol>
  <symbol id="W" overflow="visible">
    <path d="m2.64063-6.79688c-.71875 0-1.29688-.20312-1.73438-.60937-.42969-.41406-.64062-.97656-.64062-1.6875v-1.10938c0-.70703.21093-1.26562.64062-1.67187.4375-.41406 1.01563-.625 1.73438-.625.70703 0 1.27343.21094 1.70312.625.4375.40625.65625.96484.65625 1.67187v1.10938c0 .71094-.21875 1.27344-.65625 1.6875-.42969.40625-.99609.60937-1.70312.60937zm-2.40625 6.79688 8.46875-12.40625h1.26562l-8.46875 12.40625zm2.40625-7.95313c.72656 0 1.09375-.3789 1.09375-1.14062v-1.10938c0-.75781-.36719-1.14062-1.09375-1.14062-.74219 0-1.10938.38281-1.10938 1.14062v1.10938c0 .76172.36719 1.14062 1.10938 1.14062zm4.92187 8.03126c-.71094 0-1.28125-.20313-1.71875-.60938-.42969-.40625-.64062-.96094-.64062-1.67188v-1.10937c0-.71875.21093-1.28125.64062-1.6875.4375-.40625 1.00781-.60938 1.71875-.60938.71875 0 1.28906.20313 1.71875.60938.42578.40625.64063.96875.64063 1.6875v1.10937c0 .71094-.21485 1.26563-.64063 1.67188-.42969.40625-1 .60938-1.71875.60938zm0-1.17188c.73828 0 1.10938-.36719 1.10938-1.10938v-1.10937c0-.75781-.3711-1.14063-1.10938-1.14063-.74219 0-1.10937.38282-1.10937 1.14063v1.10937c0 .74219.36718 1.10938 1.10937 1.10938zm0 0"/>
  </symbol>
  <symbol id="X" overflow="visible">
    <path d="m7.3125 1.875-6.03125-15.98438h1.60938l6.03125 15.98438zm0 0"/>
  </symbol>
  <symbol id="Y" overflow="visible">
    <path d="m1.60938 1.875v-1.35937h.76562c.53125 0 .94141-.125 1.23438-.375.30078-.23829.42968-.60157.39062-1.09376l-.26562-2.78125c-.05469-.64453.07812-1.1914.39062-1.64062.3125-.44531.75-.72266 1.3125-.82813-.5625-.09375-1-.33593-1.3125-.73437-.3125-.39453-.44531-.91406-.39062-1.5625l.26562-2.78125c.03906-.48828-.08984-.85156-.39062-1.09375-.29297-.25-.70313-.375-1.23438-.375h-.76562v-1.35938h.76562c1.00781 0 1.80469.25 2.39063.75.59375.49219.84765 1.1836.76562 2.07813l-.26562 2.78125c-.04297.60547.04687 1.04297.26562 1.3125.21875.26172.69531.39062 1.4375.39062h1.95313v1.35938h-1.95313c-.73047 0-1.21094.13672-1.4375.40625-.21875.26172-.30859.69531-.26562 1.29687l.26562 2.78125c.08203.89844-.17187 1.58594-.76562 2.07813-.58594.5-1.38282.75-2.39063.75zm0 0"/>
  </symbol>
  <symbol id="Z" overflow="visible">
    <path d="m2.375-4.9375v-1.35938h5.4375v1.35938zm0 0"/>
  </symbol>
  <symbol id="aa" overflow="visible">
    <path d="m.6875 0 3.5625-6.29688-3.39062-6.10937h1.78125l1.92187 3.67187c.09375.1875.19141.39844.29688.625.11328.21875.20703.39063.28125.51563.05078-.125.1289-.29688.23437-.51563.11328-.22656.21875-.4375.3125-.625l1.96875-3.67187h1.67188l-3.375 6.01562 3.5625 6.39063h-1.75l-2.125-3.9375c-.10547-.19531-.21094-.40625-.3125-.625-.10547-.21875-.1875-.39453-.25-.53125-.05469.13672-.13672.3125-.25.53125-.10547.21094-.21094.40625-.3125.59375l-2.14063 3.96875zm0 0"/>
  </symbol>
  <symbol id="ab" overflow="visible">
    <path d="m1.53125 0v-1.39063h3.35938v-9.75l-3.35938 2.51563v-1.6875l2.79688-2.09375h2.09375v11.01562h2.76562v1.39063zm0 0"/>
  </symbol>
  <symbol id="ac" overflow="visible">
    <path d="m1.5625 0v-1.51563l3.96875-4.3125c.58203-.63281 1.00391-1.20312 1.26563-1.70312.26953-.5.40625-.98828.40625-1.46875 0-.67578-.19922-1.21094-.59375-1.60938-.39844-.40625-.9336-.60937-1.60938-.60937-.6875 0-1.23437.21094-1.64062.625-.40625.40625-.60938.96484-.60938 1.67187h-1.53125c.03906-1.125.39844-2.01562 1.07813-2.67187.67578-.65625 1.57812-.98438 2.70312-.98438 1.14453 0 2.05078.32422 2.71875.96875.67578.64844 1.01563 1.52735 1.01563 2.64063 0 .58594-.17188 1.19922-.51563 1.84375-.34375.64844-.90234 1.39062-1.67187 2.23437l-3.23438 3.5h5.625v1.39063zm0 0"/>
  </symbol>
  <symbol id="ad" overflow="visible">
    <path d="m4.90625.17188c-.74219 0-1.39062-.15235-1.95312-.45313s-1-.71875-1.3125-1.25c-.30469-.53125-.45313-1.15625-.45313-1.875h1.53125c0 .69922.19141 1.24609.57813 1.64062.39453.38672.9414.57813 1.64062.57813.69531 0 1.23828-.20313 1.625-.60938.38281-.40625.57813-.9414.57813-1.60937v-.84375c0-.69531-.19532-1.23828-.57813-1.625-.38672-.38281-.92969-.57813-1.625-.57813h-1.34375v-1.32812l2.95313-3.23438h-4.84375v-1.39062h6.57812v1.42187l-2.90625 3.1875c1.00781.07422 1.8125.42969 2.40625 1.0625.59375.63672.89063 1.46485.89063 2.48438v.84375c0 .71875-.15625 1.34375-.46875 1.875s-.75782.94922-1.32813 1.25c-.5625.30078-1.21875.45313-1.96875.45313zm0 0"/>
  </symbol>
  <symbol id="ae" overflow="visible">
    <path d="m4.32813 1.875v-15.98438h1.53125v15.98438zm0 0"/>
  </symbol>
  <symbol id="af" overflow="visible">
    <path d="m1.57813 0v-12.40625h3.51562c1.13281 0 2.01953.28906 2.65625.85937.64453.5625.96875 1.34375.96875 2.34375 0 .6875-.16797 1.26172-.5 1.71875-.32422.46094-.78125.76563-1.375.92188.67578.19922 1.20703.57031 1.59375 1.10937.38281.53125.57813 1.19922.57813 2 0 1.0625-.32813 1.90625-.98438 2.53125-.64844.61719-1.53906.92188-2.67187.92188zm1.5-7.125h2c.65625 0 1.17187-.17188 1.54687-.51563.38281-.35156.57813-.83203.57813-1.4375 0-.60156-.1875-1.07812-.5625-1.42187-.36719-.35156-.88282-.53125-1.54688-.53125h-2.01562zm0 5.75h2.10937c.70703 0 1.26953-.1875 1.6875-.5625.41406-.38281.625-.90625.625-1.5625 0-.67578-.21094-1.22656-.625-1.65625-.41797-.42578-.98047-.64063-1.6875-.64063h-2.10937zm0 0"/>
  </symbol>
  <symbol id="ag" overflow="visible">
    <path d="m5.17188.17188c-1.13672 0-2.03125-.31641-2.6875-.95313-.65625-.63281-.98438-1.50781-.98438-2.625v-5.60938c0-1.10156.32813-1.97265.98438-2.60937.65625-.63281 1.55078-.95313 2.6875-.95313 1.10156 0 1.98437.32422 2.64062.96875.66406.63672 1 1.5 1 2.59375h-1.53125c0-.69531-.1875-1.23437-.5625-1.60937-.36719-.38281-.88281-.57813-1.54687-.57813-.66797 0-1.19532.1875-1.57813.5625-.375.375-.5625.91407-.5625 1.60938v5.625c0 .71094.1875 1.25781.5625 1.64062.38281.375.91016.5625 1.57813.5625.66406 0 1.17968-.1875 1.54687-.5625.375-.38281.5625-.92968.5625-1.64062h1.53125c0 1.10547-.33594 1.98047-1 2.625-.65625.63672-1.53906.95313-2.64062.95313zm0 0"/>
  </symbol>
  <symbol id="ah" overflow="visible">
    <path d="m1.5625 0v-12.40625h3.21875c.80078 0 1.49219.15625 2.07813.46875.58203.30469 1.03515.73047 1.35937 1.28125.32031.55469.48438 1.21094.48438 1.96875v4.95312c0 .76172-.16407 1.42188-.48438 1.98438-.32422.55469-.77734.98437-1.35937 1.29687-.58594.30469-1.27735.45313-2.07813.45313zm1.53125-1.35938h1.6875c.75 0 1.33203-.20703 1.75-.625.42578-.42578.64063-1.00781.64063-1.75v-4.95312c0-.73828-.21485-1.31641-.64063-1.73438-.41797-.41406-1-.625-1.75-.625h-1.6875zm0 0"/>
  </symbol>
  <symbol id="ai" overflow="visible">
    <path d="m6.79688 0v-2.71875h-5.60938v-2.39063l4.53125-7.29687h1.67188l-4.67188 7.59375v.70312h4.07813v-3.03125h1.53125v7.14063zm0 0"/>
  </symbol>
  <symbol id="aj" overflow="visible">
    <path d="m4.03125 0v-10.48438h-3.25v-1.92187h8.64063v1.92187h-3.25v10.48438zm0 0"/>
  </symbol>
  <symbol id="ak" overflow="visible">
    <path d="m5.10938.17188c-.79297 0-1.48438-.15235-2.07813-.45313-.58594-.3125-1.03906-.73828-1.35937-1.28125-.32422-.55078-.48438-1.19531-.48438-1.9375v-2.34375c0-.73828.16016-1.38281.48438-1.9375.32031-.55078.77343-.97656 1.35937-1.28125.59375-.30078 1.28516-.45313 2.07813-.45313.78906 0 1.47656.15235 2.0625.45313.58203.30469 1.03515.73047 1.35937 1.28125.32031.55469.48438 1.19922.48438 1.9375v1.67187h-5.76563v.67188c0 1.32422.62891 1.98437 1.89063 1.98437.96875 0 1.53515-.32031 1.70312-.96875h2.09375c-.15625.80469-.58594 1.44922-1.28125 1.9375-.69922.48047-1.54687.71876-2.54687.71876zm-1.85938-6.01563v.35937l3.70313-.03125v-.34375c0-.64453-.15625-1.14062-.46875-1.48437-.30469-.35156-.76172-.53125-1.375-.53125-.61719 0-1.07813.17969-1.39063.53125-.3125.35547-.46875.85547-.46875 1.5zm0 0"/>
  </symbol>
  <symbol id="al" overflow="visible">
    <path d="m4.75.15625c-.71875 0-1.35156-.10937-1.89062-.32813-.54297-.22656-.96485-.54687-1.26563-.95312-.30469-.40625-.45312-.88281-.45312-1.4375h2.14062c0 .32422.12891.57422.39063.75.26953.17969.63281.26562 1.09375.26562h.71875c.53906 0 .9414-.09375 1.20312-.28125.25781-.19531.39063-.46875.39063-.8125 0-.64453-.48438-1.03906-1.45313-1.1875l-1.3125-.17187c-1.96094-.28125-2.9375-1.21094-2.9375-2.79688 0-.88281.29688-1.55468.89063-2.01562.59375-.45703 1.45703-.6875 2.59375-.6875h.65625c1.05078 0 1.89453.23437 2.53125.70312.64453.46875.96875 1.08985.96875 1.85938h-2.14063c0-.26953-.12109-.47656-.35937-.625-.24219-.15625-.58594-.23438-1.03125-.23438h-.64063c-.92969 0-1.39062.33594-1.39062 1 0 .57422.41015.92188 1.23437 1.04688l1.32813.20312c1.05078.14844 1.83203.45313 2.34375.92188.51953.46875.78125 1.11719.78125 1.9375 0 .89844-.3086 1.59375-.92188 2.09375-.61719.5-1.52734.75-2.73437.75zm0 0"/>
  </symbol>
  <symbol id="am" overflow="visible">
    <path d="m6.125 0c-.875 0-1.57422-.25-2.09375-.75-.51172-.50781-.76562-1.19531-.76562-2.0625v-4.60938h-2.53125v-1.92187h2.53125v-2.64063h2.14062v2.64063h3.59375v1.92187h-3.59375v4.5625c0 .27344.07031.4961.21875.67188.15625.17969.36719.26562.64063.26562h2.5625v1.92188zm0 0"/>
  </symbol>
  <symbol id="an" overflow="visible"/>
  <symbol id="ao" overflow="visible">
    <path d="m3.79688-1.73438-1.84375-1.28125.82812-1.1875c.19531-.28125.44141-.5625.73438-.84375.28906-.28906.58593-.55468.89062-.79687.3125-.23828.57813-.4375.79688-.59375l-.04688-.125c-.28125 0-.61719-.01563-1-.04688-.38672-.03125-.77734-.07812-1.17187-.14062-.38672-.0625-.73438-.14844-1.04688-.26563l-1.34375-.48437.78125-2.125 1.32813.48437c.32031.125.65625.29297 1 .5.34375.19922.67187.41407.98437.64063.3125.23047.57813.4375.79688.625l.09375-.07813c-.08594-.26953-.1836-.59375-.29688-.96875-.10547-.38281-.19922-.78125-.28125-1.1875-.08594-.41406-.125-.80078-.125-1.15625v-1.4375h2.25v1.4375c0 .35547-.04297.74219-.125 1.15625-.08594.40625-.18359.80469-.29687 1.1875-.10547.375-.20313.69922-.29688.96875l.09375.04688c.20703-.16406.46875-.36328.78125-.59375.32031-.22656.65625-.44141 1-.64063.34375-.20703.67578-.375 1-.5l1.34375-.48437.78125 2.125-1.35937.48437c-.46875.16797-1.01563.28125-1.64063.34375-.61719.0625-1.13672.10157-1.5625.10938l-.04687.125c.21875.15625.47265.35937.76562.60937.30078.25.59766.51563.89063.79688.30078.27344.55078.54687.75.82812l.8125 1.1875-1.82813 1.28125-.82812-1.1875c-.19922-.28125-.38282-.60937-.54688-.98437-.16797-.38281-.3125-.75781-.4375-1.125-.125-.375-.23047-.69141-.3125-.95313h-.125c-.08594.26172-.1875.57813-.3125.95313-.125.36719-.27344.74219-.4375 1.125-.16797.375-.35547.70312-.5625.98437zm0 0"/>
  </symbol>
  <symbol id="ap" overflow="visible"/>
  <symbol id="aq" overflow="visible">
    <path d="m1.54688 0v-14.59375h2.5v5.85937h3.90625v-5.85937h2.5v14.59375h-2.5v-6.48438h-3.90625v6.48438zm0 0"/>
  </symbol>
  <symbol id="ar" overflow="visible">
    <path d="m6.01563.20313c-.92969 0-1.74219-.17969-2.4375-.53126-.6875-.36328-1.22657-.86718-1.60938-1.51562-.375-.64453-.5625-1.40625-.5625-2.28125v-2.75c0-.875.1875-1.63281.5625-2.28125.38281-.64453.92188-1.14453 1.60938-1.5.69531-.36328 1.50781-.54688 2.4375-.54688.92578 0 1.72656.1836 2.40625.54688.6875.35547 1.21875.85547 1.59375 1.5.38281.64844.57812 1.40625.57812 2.28125v1.96875h-6.78125v.78125c0 1.5625.74219 2.34375 2.23438 2.34375 1.14453 0 1.8164-.37891 2.01562-1.14063h2.45313c-.1875.94922-.69532 1.71094-1.51563 2.28125-.8125.5625-1.80859.84376-2.98437.84376zm-2.20313-7.07813v.42187l4.375-.03125v-.42187c0-.75781-.18359-1.34375-.54687-1.75-.36719-.40625-.90625-.60938-1.625-.60938-.73047 0-1.28125.21094-1.65625.625-.36719.41797-.54688 1.00782-.54688 1.76563zm0 0"/>
  </symbol>
  <symbol id="as" overflow="visible">
    <path d="m4.78125.20313c-1.13672 0-2.03125-.29688-2.6875-.89063-.64844-.59375-.96875-1.40625-.96875-2.4375 0-1.07031.36719-1.90625 1.10938-2.5.75-.59375 1.78906-.89063 3.125-.89063h2.64062v-.92187c0-.53125-.17969-.94141-.53125-1.23438-.34375-.30078-.82812-.45312-1.45312-.45312-.57422 0-1.04297.12109-1.40625.35937-.36719.24219-.57032.5625-.60938.96875h-2.375c.05078-1.03125.48438-1.85156 1.29688-2.46875.82031-.625 1.8789-.9375 3.17187-.9375 1.36328 0 2.4375.33594 3.21875 1 .78906.66797 1.1875 1.58594 1.1875 2.75v7.45313h-2.42187v-1.85938h-.03125c-.15625.63672-.52344 1.14063-1.09375 1.51563-.57422.36328-1.29688.54688-2.17188.54688zm.8125-1.85938c.70703 0 1.28516-.17578 1.73438-.53125.44531-.35156.67187-.82031.67187-1.40625v-1.32813h-2.57812c-.5625 0-1.00782.14844-1.32813.4375-.3125.28125-.46875.67188-.46875 1.17188 0 .51172.17578.91797.53125 1.21875.35156.29297.83203.4375 1.4375.4375zm0 0"/>
  </symbol>
  <symbol id="at" overflow="visible">
    <path d="m5 .20313c-1.0625 0-1.92969-.37891-2.59375-1.14063-.66797-.75781-1-1.78125-1-3.0625v-2.98438c0-1.28906.32813-2.3164.98438-3.07812.65625-.75781 1.52343-1.14063 2.60937-1.14063.75781 0 1.39844.19532 1.92188.57813.51953.375.8789.91406 1.07812 1.60937h.04688l-.09375-2.5v-3.07812h2.5v14.59375h-2.4375v-1.98438h-.01563c-.19922.69922-.55859 1.24219-1.07812 1.625-.51172.37501-1.15235.56251-1.92188.56251zm.9375-2.15626c.64453 0 1.14063-.1914 1.48438-.57812.35156-.39453.53125-.94531.53125-1.65625v-2.625c0-.70703-.17969-1.25391-.53125-1.64063-.34375-.39453-.83985-.59375-1.48438-.59375-.63672 0-1.13672.1875-1.5.5625-.35547.375-.53125.91407-.53125 1.60938v2.75c0 .69922.17578 1.23437.53125 1.60937.36328.375.86328.5625 1.5.5625zm0 0"/>
  </symbol>
  <symbol id="au" overflow="visible">
    <path d="m1.51563 0v-2.26563h3.76562v-6.46875h-3.35937v-2.26562h5.85937v8.73437h3.375v2.26563zm4.84375-12.84375c-.51172 0-.91407-.12891-1.20313-.39063-.29297-.25781-.4375-.60937-.4375-1.04687s.14453-.78516.4375-1.04688c.28906-.25781.69141-.39062 1.20313-.39062.50781 0 .91015.13281 1.20312.39062.28906.26172.4375.60938.4375 1.04688s-.14844.78906-.4375 1.04687c-.29297.26172-.69531.39063-1.20312.39063zm0 0"/>
  </symbol>
  <symbol id="av" overflow="visible">
    <path d="m1.54688 0v-11h2.4375v2.09375h.03125c.125-.71875.4375-1.28125.9375-1.6875.50781-.40625 1.17187-.60938 1.98437-.60938 1.08203 0 1.94531.35938 2.59375 1.07813.64453.71875.96875 1.6875.96875 2.90625v7.21875h-2.5v-6.95313c0-.66406-.17969-1.17968-.53125-1.54687-.35547-.36328-.82812-.54688-1.42187-.54688-.63672 0-1.13282.1875-1.48438.5625-.34375.375-.51562.91407-.51562 1.60938v6.875zm0 0"/>
  </symbol>
  <symbol id="aw" overflow="visible">
    <path d="m3.04688 3.59375v-2.07812h3.25c1.125 0 1.6875-.52735 1.6875-1.57813v-.8125l.03125-2.0625h-.03125c-.11719.71875-.42969 1.28125-.9375 1.6875-.5.40625-1.15235.60937-1.95313.60937-1.11719 0-2.00781-.3789-2.67187-1.14062-.65625-.75781-.98438-1.78516-.98438-3.07813v-2.14062c0-1.28125.32813-2.30078.98438-3.0625.66406-.75781 1.55468-1.14063 2.67187-1.14063.80078 0 1.45313.20313 1.95313.60938.50781.40625.82031.96875.9375 1.6875h.03125l-.0625-2.09375h2.5v11c0 1.125-.36719 2.00391-1.09375 2.64063-.73047.63281-1.73438.95312-3.01563.95312zm2.89062-6.39063c.64453 0 1.14063-.1875 1.48438-.5625.35156-.38281.53125-.91406.53125-1.59375v-1.92187c0-.6875-.17969-1.21875-.53125-1.59375-.34375-.38281-.83985-.57813-1.48438-.57813-.63672 0-1.13281.1875-1.48437.5625-.34375.375-.51563.91407-.51563 1.60938v1.92187c0 .6875.17188 1.21875.51563 1.59375.35156.375.84765.5625 1.48437.5625zm0 0"/>
  </symbol>
  <symbol id="ax" overflow="visible">
    <path d="m1.6875 0v-2.26563h3.79688v-10.10937l-3.82813 2.82812v-2.64062l3.35938-2.40625h2.96875v12.32812h3.0625v2.26563zm0 0"/>
  </symbol>
  <symbol id="ay" overflow="visible">
    <path d="m1.57813 0v-2.28125l4.9375-5.125c.50781-.53125.88281-1.02344 1.125-1.48438.25-.46875.375-.9414.375-1.42187 0-.70703-.19532-1.25781-.57813-1.65625-.38672-.39453-.90625-.59375-1.5625-.59375-.67969 0-1.21484.20312-1.60937.60937-.38672.40625-.57813.96875-.57813 1.6875h-2.5c.00781-.92578.20703-1.72656.59375-2.40625.39453-.67578.94141-1.19531 1.64063-1.5625.70703-.375 1.53906-.5625 2.5-.5625 1.39453 0 2.50781.38672 3.34375 1.15625.83203.77344 1.25 1.82422 1.25 3.15625 0 .78125-.19922 1.54688-.59375 2.29688-.38672.75-1.01172 1.57031-1.875 2.45312l-3.40625 3.46875h6.0625v2.26563zm0 0"/>
  </symbol>
  <symbol id="az" overflow="visible">
    <path d="m4.73438 0v-12.34375h-3.8125v-2.25h10.15625v2.25h-3.8125v12.34375zm0 0"/>
  </symbol>
  <symbol id="aA" overflow="visible">
    <path d="m6 .20313c-1.39844 0-2.50781-.39063-3.32812-1.17188-.82422-.78125-1.23438-1.83203-1.23438-3.15625v-6.35938c0-1.3125.41016-2.35937 1.23438-3.14062.82031-.78125 1.92968-1.17188 3.32812-1.17188 1.39453 0 2.50391.39063 3.32813 1.17188.82031.78125 1.23437 1.82422 1.23437 3.125v6.375c0 1.32422-.41406 2.375-1.23437 3.15625-.82422.78125-1.9336 1.17188-3.32813 1.17188zm0-2.20313c.67578 0 1.1875-.17969 1.53125-.54688.35156-.36328.53125-.89062.53125-1.57812v-6.35938c0-.67578-.17969-1.19531-.53125-1.5625-.34375-.36328-.85547-.54687-1.53125-.54687-.67969 0-1.19531.18359-1.54687.54687-.34375.36719-.51563.88672-.51563 1.5625v6.35938c0 .6875.17188 1.21484.51563 1.57812.35156.36719.86718.54688 1.54687.54688zm0 0"/>
  </symbol>
  <symbol id="aB" overflow="visible">
    <path d="m1.5 0v-14.59375h4.34375c.97656 0 1.83203.19531 2.5625.57812.72656.375 1.28906.90235 1.6875 1.57813.40625.67969.60938 1.47656.60938 2.39062v5.46875c0 .91797-.20313 1.71875-.60938 2.40625-.39844.6875-.96094 1.22657-1.6875 1.60938-.73047.375-1.58594.5625-2.5625.5625zm2.5-2.23438h1.84375c.71875 0 1.28906-.20703 1.71875-.625.42578-.42578.64063-1 .64063-1.71875v-5.46875c0-.69531-.21485-1.2539-.64063-1.67187-.42969-.42578-1-.64063-1.71875-.64063h-1.84375zm0 0"/>
  </symbol>
  <symbol id="aC" overflow="visible">
    <path d="m5.57813.1875c-.84375 0-1.58594-.13281-2.21875-.39063-.63672-.25781-1.13282-.6289-1.48438-1.10937-.35547-.48828-.53125-1.05469-.53125-1.70313h2.51563c0 .38672.15625.6836.46875.89063.3125.21094.73437.3125 1.26562.3125h.85938c.63281 0 1.10156-.11328 1.40625-.34375.30078-.22656.45312-.53906.45312-.9375 0-.75781-.5625-1.22656-1.6875-1.40625l-1.54687-.20313c-2.30469-.33203-3.45313-1.42968-3.45313-3.29687 0-1.03906.34766-1.83203 1.04688-2.375.69531-.53906 1.71093-.8125 3.04687-.8125h.76563c1.23828 0 2.23437.28125 2.98437.84375.75.55469 1.125 1.28125 1.125 2.1875h-2.51562c0-.32031-.14063-.57031-.42188-.75-.28125-.1875-.68359-.28125-1.20312-.28125h-.75c-1.09375 0-1.64063.39844-1.64063 1.1875 0 .67969.48438 1.08984 1.45313 1.23437l1.5625.25c1.23828.16797 2.16015.52735 2.76562 1.07813.61328.54297.92188 1.30469.92188 2.28125 0 1.05469-.36719 1.875-1.09375 2.46875-.73047.58594-1.80469.875-3.21875.875zm0 0"/>
  </symbol>
  <symbol id="aD" overflow="visible">
    <path d="m6.07813.20313c-.94922 0-1.77344-.17969-2.46875-.53126-.6875-.35156-1.22657-.85156-1.60938-1.5-.375-.64453-.5625-1.41015-.5625-2.29687v-6.35938c0-.875.1875-1.63281.5625-2.28125.38281-.64453.92188-1.14453 1.60938-1.5.69531-.35156 1.51953-.53125 2.46875-.53125.9375 0 1.75.17969 2.4375.53125.69531.35547 1.23828.85547 1.625 1.5.38281.64844.57812 1.40625.57812 2.28125h-2.51562c0-.67578-.1875-1.19531-.5625-1.5625-.36719-.36328-.88672-.54687-1.5625-.54687-.67969 0-1.20313.18359-1.57813.54687-.375.35547-.5625.8711-.5625 1.54688v6.375c0 .6875.1875 1.21484.5625 1.57812.375.36719.89844.54688 1.57813.54688.67578 0 1.19531-.17969 1.5625-.54688.375-.36328.5625-.89062.5625-1.57812h2.51562c0 .88672-.19531 1.65234-.57812 2.29687-.38672.64844-.92969 1.14844-1.625 1.5-.6875.35157-1.5.53126-2.4375.53126zm0 0"/>
  </symbol>
  <symbol id="aE" overflow="visible">
    <path d="m1.85938 0v-11h2.4375v2.09375h.0625c.10156-.71875.42187-1.28125.95312-1.6875.53906-.40625 1.22266-.60938 2.04688-.60938 1.13281 0 2.03906.3711 2.71875 1.10938.67578.74219 1.01562 1.75 1.01562 3.03125v.90625h-2.60937v-.71875c0-.6875-.17969-1.21875-.53125-1.59375-.35547-.38281-.86719-.57813-1.53125-.57813-1.375 0-2.0625.77344-2.0625 2.3125v6.73438zm0 0"/>
  </symbol>
  <symbol id="aF" overflow="visible">
    <path d="m7.20313 0c-1.03125 0-1.85157-.29688-2.45313-.89063-.60547-.59375-.90625-1.39453-.90625-2.40625v-5.4375h-2.98437v-2.26562h2.98437v-3.09375h2.51563v3.09375h4.21875v2.26562h-4.21875v5.375c0 .32422.08593.58985.26562.79688.1875.19922.4375.29687.75.29687h3v2.26563zm0 0"/>
  </symbol>
  <symbol id="aG" overflow="visible">
    <path d="m6 .1875c-1.41797 0-2.53906-.39063-3.35937-1.17188-.82422-.78125-1.23438-1.83203-1.23438-3.15625v-2.71875c0-1.32031.41016-2.375 1.23438-3.15625.82031-.78125 1.9414-1.17187 3.35937-1.17187 1.41406 0 2.53516.39062 3.35938 1.17187.82031.78125 1.23437 1.82813 1.23437 3.14063v2.73437c0 1.32422-.41406 2.375-1.23437 3.15625-.82422.78125-1.94532 1.17188-3.35938 1.17188zm0-2.1875c.66406 0 1.17969-.17969 1.54688-.54688.36328-.36328.54687-.89453.54687-1.59375v-2.71875c0-.69531-.18359-1.22656-.54687-1.59375-.36719-.36328-.88282-.54687-1.54688-.54687-.66797 0-1.18359.18359-1.54687.54687-.36719.36719-.54688.89844-.54688 1.59375v2.71875c0 .69922.17969 1.23047.54688 1.59375.36328.36719.8789.54688 1.54687.54688zm0 0"/>
  </symbol>
  <symbol id="aH" overflow="visible">
    <path d="m6.0625.20313c-.9375 0-1.75781-.17969-2.45312-.53126-.69922-.35156-1.24219-.85156-1.625-1.5-.38672-.64453-.57813-1.41015-.57813-2.29687v-2.75c0-.88281.19141-1.64844.57813-2.29688.38281-.64453.92578-1.14453 1.625-1.5.69531-.35156 1.51562-.53125 2.45312-.53125 1.38281 0 2.48828.35938 3.3125 1.07813.83203.71094 1.26953 1.67969 1.3125 2.90625h-2.45312c-.03125-.57031-.2461-1.01563-.64063-1.32813-.39844-.3125-.90625-.46875-1.53125-.46875-.66797 0-1.19531.1836-1.57812.54688-.38672.36719-.57813.88672-.57813 1.5625v2.78125c0 .6875.19141 1.21875.57813 1.59375.38281.36719.91015.54687 1.57812.54687.63281 0 1.14453-.15625 1.53125-.46875.39453-.3125.60938-.7539.64063-1.32812h2.45312c-.04297 1.23047-.48047 2.20312-1.3125 2.92187-.82422.71094-1.92969 1.06251-3.3125 1.06251zm0 0"/>
  </symbol>
  <symbol id="aI" overflow="visible">
    <path d="m6 .20313c-1.39844 0-2.49609-.39063-3.29687-1.17188-.80469-.78125-1.20313-1.84375-1.20313-3.1875v-6.84375h2.5v6.8125c0 .71094.17188 1.25781.51563 1.64062.35156.375.84765.5625 1.48437.5625.625 0 1.11328-.1875 1.46875-.5625.35156-.38281.53125-.92968.53125-1.64062v-6.8125h2.5v6.84375c0 1.34375-.40625 2.40625-1.21875 3.1875s-1.90625 1.17188-3.28125 1.17188zm0 0"/>
  </symbol>
  <symbol id="aJ" overflow="visible">
    <path d="m.98438 0v-11h2.03125v1.48437h.10937c.0625-.50781.25781-.91406.59375-1.21875.33203-.3125.74219-.46875 1.23438-.46875.45703 0 .85156.15625 1.1875.46875.33203.30469.55468.71094.67187 1.21875h.0625c.08203-.50781.28906-.91406.625-1.21875.34375-.3125.76953-.46875 1.28125-.46875.65625 0 1.19141.26563 1.60938.79688.41406.52344.625 1.19922.625 2.03125v8.375h-2.15625v-8.20313c0-.76953-.32032-1.15625-.95313-1.15625-.64844 0-.96875.38672-.96875 1.15625v8.20313h-1.875v-8.20313c0-.76953-.32422-1.15625-.96875-1.15625-.625 0-.9375.38672-.9375 1.15625v8.20313zm0 0"/>
  </symbol>
  <symbol id="aK" overflow="visible">
    <path d="m1.125 0v-14.59375h2.95313l1.40625 4.64062c.14453.46094.25781.88282.34375 1.26563.08203.375.14062.65625.17187.84375.03125-.1875.08594-.46875.17188-.84375.08203-.38281.19531-.80469.34375-1.26563l1.39062-4.64062h2.96875v14.59375h-2.32812v-6.14063c0-1.34375.05078-2.59375.15625-3.75.10156-1.15625.22265-2.2539.35937-3.29687l-1.98437 6.90625h-2.17188l-2-6.76563c.125.9375.24219 1.96485.35938 3.07813.125 1.11719.1875 2.39062.1875 3.82812v6.14063zm0 0"/>
  </symbol>
  <symbol id="aL" overflow="visible">
    <path d="m1.59375 0v-14.59375h2.5v7.90625h1.76563l2.6875-4.3125h2.76562l-3.3125 5.3125 3.375 5.6875h-2.82812l-2.6875-4.5625h-1.76563v4.5625zm0 0"/>
  </symbol>
  <symbol id="aM" overflow="visible">
    <path d="m1.54688 0v-14.59375h2.5v3.59375l-.0625 2.09375h.03125c.125-.71875.4375-1.28125.9375-1.6875.50781-.40625 1.17187-.60938 1.98437-.60938 1.08203 0 1.94531.35938 2.59375 1.07813.64453.71875.96875 1.6875.96875 2.90625v7.21875h-2.5v-6.95313c0-.66406-.17969-1.17968-.53125-1.54687-.35547-.36328-.82812-.54688-1.42187-.54688-.63672 0-1.13282.1875-1.48438.5625-.34375.375-.51562.91407-.51562 1.60938v6.875zm0 0"/>
  </symbol>
  <symbol id="aN" overflow="visible">
    <path d="m2.42188 0v-14.59375h2.5v12.32812h6.20312v2.26563zm0 0"/>
  </symbol>
  <symbol id="aO" overflow="visible">
    <path d="m6.9375.20313c-.80469 0-1.46484-.19532-1.98437-.57813-.51172-.38281-.83594-.92969-.96875-1.64063v2.01563h-2.4375v-14.59375h2.5v3.07812l-.09375 2.60938c.125-.71875.44531-1.28125.96875-1.6875.53125-.40625 1.20312-.60938 2.01562-.60938 1.10156 0 1.98828.38282 2.65625 1.14063.66406.76172 1 1.78906 1 3.07812v2.98438c0 1.29297-.33594 2.32031-1 3.07812-.66797.75-1.55469 1.12501-2.65625 1.12501zm-.875-2.15626c.63281 0 1.12891-.1875 1.48438-.5625.36328-.375.54687-.91015.54687-1.60937v-2.75c0-.69531-.18359-1.23438-.54687-1.60938-.35547-.375-.85157-.5625-1.48438-.5625-.64844 0-1.14844.19532-1.5.57813-.34375.375-.51562.90625-.51562 1.59375v2.75c0 .6875.17187 1.22656.51562 1.60937.35156.375.85156.5625 1.5.5625zm0 0"/>
  </symbol>
  <symbol id="aP" overflow="visible">
    <path d="m7.78125 0c-1.09375 0-1.97656-.32031-2.64062-.96875-.65625-.65625-.98438-1.51953-.98438-2.59375v-8.78125h-3.60937v-2.25h6.10937v10.96875c0 .41797.11328.75.34375 1 .23828.24219.55469.35937.95313.35937h3.23437v2.26563zm0 0"/>
  </symbol>
  <symbol id="aQ" overflow="visible">
    <path d="m.64063 0 1.17187-3.40625h-1.42187l.17187-1.09375h1.625l1.15625-3.40625h-1.64062l.17187-1.10938h1.84375l1.17188-3.39062h1.25l-1.17188 3.39062h2.64063l1.17187-3.39062h1.25l-1.17187 3.39062h1.42187l-.17187 1.10938h-1.625l-1.15625 3.40625h1.64062l-.15625 1.09375h-1.85937l-1.17188 3.40625h-1.25l1.1875-3.40625h-2.65625l-1.17187 3.40625zm2.79687-4.5h2.65625l1.14063-3.40625h-2.64063zm0 0"/>
  </symbol>
  <symbol id="aR" overflow="visible">
    <path d="m3.85938-1.60938.53125-3.32812h-3.25l.21875-1.35938h3.25l.5-3.3125h1.5l-.5 3.3125h3.23437l-.21875 1.35938h-3.25l-.51562 3.32812zm0 0"/>
  </symbol>
  <symbol id="aS" overflow="visible">
    <path d="m.82813 0 1.98437-12.40625h3.51563c1.13281 0 1.97265.28906 2.51562.85937.55078.5625.75 1.34375.59375 2.34375-.10547.6875-.35937 1.26172-.76562 1.71875-.39844.46094-.90625.77344-1.53125.9375.64453.1875 1.11328.55469 1.40625 1.09375.30078.54297.39062 1.21094.26562 2-.17969 1.0625-.64062 1.90625-1.39062 2.53125-.74219.61719-1.67969.92188-2.8125.92188zm2.625-7.125h2c.65625 0 1.20312-.17188 1.64062-.51563.4375-.35156.70703-.83203.8125-1.4375.09375-.60156-.02344-1.07812-.34375-1.42187-.3125-.35156-.79687-.53125-1.45312-.53125h-2.03125zm-.90625 5.75h2.10937c.71875 0 1.3125-.1875 1.78125-.5625.46875-.38281.75781-.90625.875-1.5625.10156-.67578-.02344-1.22656-.375-1.65625-.34375-.42578-.87109-.64063-1.57812-.64063h-2.10938zm0 0"/>
  </symbol>
  <symbol id="aT" overflow="visible">
    <path d="m.95313 0 1.96875-12.40625h7.14062l-.21875 1.39062h-5.625l-.60937 3.84375h5.03125l-.21875 1.375h-5.03125l-.70313 4.40625h5.625l-.21875 1.39063zm0 0"/>
  </symbol>
  <symbol id="aU" overflow="visible">
    <path d="m4.39063.17188c-1.13672 0-1.98438-.31641-2.54688-.95313-.55469-.63281-.73437-1.50781-.54687-2.625l.875-5.60938c.1875-1.10156.65625-1.97265 1.40625-2.60937.75-.63281 1.6914-.95313 2.82812-.95313 1.11328 0 1.94531.32422 2.5.96875.55078.63672.74219 1.5.57813 2.59375h-1.53125c.11328-.69531.01562-1.23437-.29688-1.60937-.3125-.38281-.80469-.57813-1.46875-.57813-.66797 0-1.21875.1875-1.65625.5625s-.71484.91407-.82812 1.60938l-.875 5.625c-.11719.71094-.01563 1.25781.29687 1.64062.32031.38672.81641.57813 1.48438.57813.66406 0 1.21093-.19141 1.64062-.57813.4375-.38281.71094-.92968.82813-1.64062l.23437-1.53125h-2.51562l.21875-1.39063h4.04687l-.45312 2.92188c-.11719.73047-.36719 1.36719-.75 1.90625-.38672.53125-.875.94531-1.46875 1.23437-.58594.28907-1.25.43751-2 .43751zm0 0"/>
  </symbol>
  <symbol id="aV" overflow="visible">
    <path d="m1.03125 0 .23438-1.39063h2.53125l1.53125-9.625h-2.54688l.23438-1.39062h6.625l-.21875 1.39062h-2.53125l-1.53125 9.625h2.53125l-.21875 1.39063zm0 0"/>
  </symbol>
  <symbol id="aW" overflow="visible">
    <path d="m.78125 0 1.96875-12.40625h2.03125l2.125 10.625c.01953-.28125.04688-.62891.07813-1.04688.03125-.41406.07031-.85156.125-1.3125.0625-.45703.1289-.89062.20312-1.29687l1.10938-6.96875h1.46875l-1.96875 12.40625h-2.01563l-2.10937-10.625c-.03125.27344-.07032.61719-.10938 1.03125-.03125.41797-.07812.85547-.14062 1.3125-.05469.46094-.11719.89844-.1875 1.3125l-1.09375 6.96875zm0 0"/>
  </symbol>
  <symbol id="aX" overflow="visible">
    <path d="m0 1.70313.20313-1.28125h8.15625l-.20313 1.28125zm0 0"/>
  </symbol>
  <symbol id="aY" overflow="visible">
    <path d="m4.39063.17188c-1.21875 0-2.13282-.30079-2.73438-.90626-.59375-.61328-.82031-1.44531-.67187-2.5h1.53125c-.10547.625.02343 1.1211.39062 1.48438.375.36719.94141.54687 1.70313.54687.70703 0 1.28906-.17578 1.75-.53125.46875-.35156.75-.84375.84375-1.46875.08203-.53125.01953-.97656-.1875-1.34375-.21094-.375-.54297-.64062-1-.79687l-1.59375-.51563c-.79297-.25781-1.375-.6914-1.75-1.29687-.375-.60156-.50782-1.3125-.39063-2.125.11328-.66406.35156-1.24219.71875-1.73438.375-.5.85938-.88281 1.45313-1.15625.59375-.28125 1.2539-.42187 1.98437-.42187 1.09375 0 1.92188.30469 2.48438.90625.5625.60547.76562 1.41406.60937 2.42187h-1.53125c.10156-.61328 0-1.09375-.3125-1.4375s-.80469-.51562-1.46875-.51562c-.65625 0-1.19531.16406-1.60937.48437-.41797.3125-.67188.75-.76563 1.3125-.08594.52344-.02344.97657.1875 1.35938.21875.38672.55469.66406 1.01563.82812l1.60937.53125c.78906.26172 1.36328.69922 1.71875 1.3125.36328.61719.48438 1.33594.35938 2.15625-.10547.6875-.35938 1.28907-.76563 1.79688-.39844.5-.90234.89844-1.51562 1.1875-.61719.28125-1.30469.42188-2.0625.42188zm0 0"/>
  </symbol>
  <symbol id="aZ" overflow="visible">
    <path d="m.8125 0 1.96875-12.40625h3.84375c.73828 0 1.35938.15234 1.85938.45312.50781.29297.875.71094 1.09375 1.25.21875.53125.26953 1.15235.15625 1.85938-.125.85547-.46094 1.58594-1 2.1875-.54297.59375-1.21094 1.00781-2 1.23437l1.78125 5.42188h-1.73438l-1.60937-5.26563h-2l-.82813 5.26563zm2.59375-6.64063h2.3125c.625 0 1.16016-.20312 1.60938-.60937.44531-.40625.72265-.9375.82812-1.59375.11328-.66406.00781-1.19531-.3125-1.59375-.32422-.39453-.80469-.59375-1.4375-.59375h-2.3125zm0 0"/>
  </symbol>
  <symbol id="a0" overflow="visible">
    <path d="m4.39063.17188c-1.13672 0-1.98438-.31641-2.54688-.95313-.55469-.63281-.73437-1.50781-.54687-2.625l.875-5.60938c.1875-1.10156.65625-1.97265 1.40625-2.60937.75-.63281 1.6914-.95313 2.82812-.95313 1.11328 0 1.94531.32422 2.5.96875.55078.63672.74219 1.5.57813 2.59375h-1.53125c.11328-.69531.01562-1.23437-.29688-1.60937-.3125-.38281-.80469-.57813-1.46875-.57813-.66797 0-1.21875.1875-1.65625.5625s-.71484.91407-.82812 1.60938l-.875 5.625c-.11719.71094-.01563 1.25781.29687 1.64062.32031.375.81641.5625 1.48438.5625.66406 0 1.21093-.1875 1.64062-.5625.4375-.38281.71094-.92968.82813-1.64062h1.53125c-.1875 1.10547-.66407 1.98047-1.42188 2.625-.76172.63672-1.69531.95313-2.79687.95313zm0 0"/>
  </symbol>
  <symbol id="a1" overflow="visible"/>
  <symbol id="a2" overflow="visible">
    <path d="m4.39063.17188c-1.13672 0-1.98438-.31641-2.54688-.95313-.55469-.63281-.73437-1.50781-.54687-2.625l.39062-2.54688c.17578-1.10156.64453-1.97265 1.40625-2.60937.75781-.63281 1.70703-.95313 2.84375-.95313 1.07031 0 1.89063.29297 2.45313.875.57031.57422.79687 1.35547.67187 2.34375h-1.53125c.05078-.59375-.08594-1.05078-.40625-1.375-.3125-.32031-.78125-.48437-1.40625-.48437-.67969 0-1.23437.19531-1.67187.57812-.42969.375-.69922.91407-.8125 1.60938l-.40625 2.5625c-.11719.71094-.01563 1.25781.29687 1.64062.32031.38672.81641.57813 1.48438.57813.63281 0 1.16015-.16016 1.57812-.48438.41406-.33203.69141-.79687.82813-1.39062h1.53125c-.1875 1-.66407 1.79297-1.42188 2.375-.75.57422-1.66406.85938-2.73437.85938zm0 0"/>
  </symbol>
  <symbol id="a3" overflow="visible">
    <path d="m.8125 0 1.96875-12.40625h4c1.15625 0 2.01953.33594 2.59375 1 .58203.65625.78906 1.54297.625 2.65625-.11719.73047-.375 1.37109-.78125 1.92187-.39844.55469-.90234.98047-1.51562 1.28125-.61719.30469-1.3086.45313-2.07813.45313h-2.46875l-.8125 5.09375zm2.54688-6.48438h2.46875c.66406 0 1.23437-.20312 1.70312-.60937.47656-.41406.77344-.96875.89063-1.65625.10156-.70703-.01563-1.26563-.35938-1.67188-.33594-.40625-.83594-.60937-1.5-.60937h-2.46875zm0 0"/>
  </symbol>
  <symbol id="a4" overflow="visible">
    <path d="m1.14063 0 1.48437-9.34375h1.48438l-.26563 1.6875c.5-1.23828 1.42188-1.85938 2.76563-1.85938.98828 0 1.72265.3086 2.20312.92188.47656.61719.64063 1.44922.48438 2.5l-.09375.5625h-1.53125l.0625-.42188c.125-.73828.03515-1.30078-.26563-1.6875-.29297-.39453-.76562-.59375-1.42187-.59375-.64844 0-1.1836.20313-1.60938.60938-.42969.39844-.70312.95312-.82812 1.67187l-.9375 5.95313zm0 0"/>
  </symbol>
  <symbol id="a5" overflow="visible">
    <path d="m.60938 0 .21875-1.39063h3.3125l1.04687-6.5625h-2.89062l.21875-1.39062h4.42187l-1.26562 7.95312h3.15625l-.21875 1.39063zm5.75-11.03125c-.375 0-.65625-.09375-.84375-.28125-.17969-.19531-.2461-.46094-.20313-.79688.0625-.33203.21094-.59765.45313-.79687.25-.19531.5625-.29688.9375-.29688.36328 0 .64062.10157.82812.29688.1875.19922.25391.46484.20313.79687-.04297.33594-.1875.60157-.4375.79688-.25.1875-.5625.28125-.9375.28125zm0 0"/>
  </symbol>
  <symbol id="a6" overflow="visible">
    <path d="m.8125 0 1.48438-9.34375h1.53125l-.29688 1.78125h.03125c.17578-.625.50391-1.10156.98438-1.4375.48828-.34375 1.09375-.51563 1.8125-.51563.9375 0 1.63281.29297 2.09375.875.46875.57422.625 1.35547.46875 2.34375l-1 6.29688h-1.53125l.96875-6.125c.10156-.66406.0039-1.17969-.29688-1.54688-.29297-.375-.74219-.5625-1.34375-.5625-.63672 0-1.17187.20313-1.60937.60938-.42969.39844-.70313.95312-.82813 1.67187l-.9375 5.95313zm0 0"/>
  </symbol>
  <symbol id="a7" overflow="visible">
    <path d="m5.375 0c-.80469 0-1.39844-.21094-1.78125-.64063-.375-.4375-.5-1.04687-.375-1.82812l.85938-5.48438h-2.64063l.23438-1.39062h2.625l.40625-2.5625h1.53125l-.40625 2.5625h3.75l-.23438 1.39062h-3.73437l-.85938 5.48438c-.11719.71875.16406 1.07812.84375 1.07812h2.54688l-.21875 1.39063zm0 0"/>
  </symbol>
  <symbol id="a8" overflow="visible">
    <path d="m3.79688.17188c-.9375 0-1.63672-.31251-2.09375-.93751-.44922-.625-.58594-1.46875-.40625-2.53125l.42187-2.73437c.16406-1.08203.57031-1.92969 1.21875-2.54688.65625-.625 1.45703-.9375 2.40625-.9375.69531 0 1.24219.17969 1.64063.53125.39453.34375.58203.82032.5625 1.42188h.04687l.26563-1.78125h1.53125l-1.48438 9.34375h-1.53125l.28125-1.78125h-.03125c-.16797.61719-.50781 1.09375-1.01562 1.4375-.51172.34375-1.11719.51563-1.8125.51563zm.71875-1.32813c.63281 0 1.16406-.19531 1.59375-.59375.42578-.39453.69531-.94531.8125-1.65625l.39062-2.54688c.11328-.69531.01953-1.24218-.28125-1.64062-.30469-.39453-.77344-.59375-1.40625-.59375-.64844 0-1.17969.19531-1.59375.57812-.41797.38672-.68359.9375-.79687 1.65625l-.39063 2.54688c-.11719.73047-.02734 1.28906.26563 1.67187.28906.38672.75781.57813 1.40625.57813zm0 0"/>
  </symbol>
  <symbol id="a9" overflow="visible">
    <path d="m5.45313 0c-.82422 0-1.44532-.23828-1.85938-.71875-.41797-.47656-.5625-1.11719-.4375-1.92188l1.32813-8.375h-2.79688l.21875-1.39062h4.32813l-1.54688 9.76562c-.05469.38672.00781.69532.1875.92188.17578.21875.44141.32812.79688.32812h3.15625l-.21875 1.39063zm0 0"/>
  </symbol>
  <symbol id="ba" overflow="visible">
    <path d="m1.53125 3.0625.21875-1.39062h2.96875c.92578 0 1.46094-.44532 1.60938-1.32813l.1875-1.1875.29687-1.70313h-.03125c-.15625.59375-.48437 1.07032-.98437 1.42188-.5.35547-1.10157.53125-1.79688.53125-.96875 0-1.68359-.3125-2.14062-.9375-.46094-.63281-.60547-1.48438-.4375-2.54688l.3125-1.96875c.16406-1.07031.57812-1.91406 1.23437-2.53125.66406-.625 1.47656-.9375 2.4375-.9375.71875 0 1.26953.17969 1.65625.53125.38281.34375.55469.82032.51563 1.42188l.29687-1.78125h1.51563l-1.53125 9.6875c-.13672.83203-.50782 1.49219-1.10938 1.98438-.59375.48828-1.35156.73437-2.26562.73437zm3.125-4.98438c.63281 0 1.16406-.19531 1.59375-.59375.42578-.39453.69531-.94531.8125-1.65625l.26563-1.78125c.125-.69531.03125-1.24218-.28125-1.64062-.30469-.39453-.77344-.59375-1.40625-.59375-.64844 0-1.17969.19531-1.59375.57812-.40625.38672-.67188.9375-.79688 1.65625l-.28125 1.78125c-.10547.73047-.01172 1.28907.28125 1.67188.28906.38672.75781.57812 1.40625.57812zm0 0"/>
  </symbol>
  <symbol id="bb" overflow="visible">
    <path d="m4.29688.17188c-1.07422 0-1.88282-.31641-2.42188-.95313-.53125-.64453-.71484-1.51953-.54687-2.625l.9375-5.9375h1.53125l-.9375 5.9375c-.11719.71094-.02344 1.26172.28125 1.65625.30078.38672.75781.57812 1.375.57812.63281 0 1.16406-.1914 1.59375-.57812.4375-.39453.71093-.94531.82812-1.65625l.9375-5.9375h1.53125l-.9375 5.9375c-.11719.73047-.36719 1.36719-.75 1.90625-.38672.53125-.87109.94531-1.45312 1.23437-.58594.28907-1.24219.43751-1.96875.43751zm0 0"/>
  </symbol>
  <symbol id="bc" overflow="visible">
    <path d="m.375 0 1.48438-9.34375h1.34375l-.1875 1.10937h.10937c.125-.39453.33594-.70703.64063-.9375.30078-.22656.65625-.34375 1.0625-.34375.80078 0 1.24218.42969 1.32812 1.28125h.07813c.125-.39453.34375-.70703.65625-.9375.3125-.22656.67187-.34375 1.07812-.34375.59375 0 1.01563.22657 1.26563.67188.25781.4375.33203 1.01562.21875 1.73437l-1.125 7.10938h-1.40625l1.125-7.125c.05078-.38281.00781-.67969-.125-.89063-.125-.21875-.34375-.32812-.65625-.32812-.60547 0-.98438.34375-1.14063 1.03125-.01172.0625-.02344.12109-.03125.17187l-1.125 7.14063h-1.23437l1.125-7.125c.0625-.39453.01953-.69531-.125-.90625-.14844-.20703-.375-.3125-.6875-.3125-.32422 0-.58594.10547-.78125.3125-.1875.21094-.3086.50781-.35938.89062l-1.125 7.14063zm0 0"/>
  </symbol>
  <symbol id="bd" overflow="visible">
    <path d="m4.3125.17188c-1.09375 0-1.91797-.32032-2.46875-.96876-.54297-.65625-.72656-1.52343-.54687-2.60937l.39062-2.54688c.125-.71875.375-1.34375.75-1.875.38281-.53906.86719-.95703 1.45313-1.25.58203-.28906 1.23828-.4375 1.96875-.4375 1.11328 0 1.9414.32813 2.48437.98438.53906.64844.72266 1.50781.54688 2.57812l-.25 1.65625h-5.71875l-.14063.89063c-.10547.74219-.01562 1.30859.26563 1.70312.28906.38672.78125.57813 1.46875.57813 1.19531 0 1.94531-.41406 2.25-1.25h1.53125c-.21875.78125-.69532 1.40234-1.42188 1.85937-.71875.46094-1.57422.68751-2.5625.68751zm-1.20312-5.62501h4.21875l.0625-.5c.125-.73828.03906-1.30468-.25-1.70312-.28125-.39453-.77735-.59375-1.48438-.59375-.6875 0-1.24609.19922-1.67187.59375-.41797.39844-.6875.96484-.8125 1.70312zm0 0"/>
  </symbol>
  <symbol id="be" overflow="visible">
    <path d="m3.9375.17188c-.96094 0-1.6875-.22266-2.1875-.67188-.5-.44531-.73437-1.04688-.70312-1.79688h1.53125c.03125.33594.17578.60547.4375.8125.26953.19922.65625.29688 1.15625.29688h.70312c.60156 0 1.07031-.125 1.40625-.375.33203-.25781.53516-.59375.60938-1 .11328-.78906-.33594-1.27344-1.34375-1.45313l-1.23438-.20312c-.89844-.14453-1.53906-.42188-1.92187-.82813-.38672-.40625-.51563-1.0039-.39063-1.79687.125-.84375.49219-1.5 1.10938-1.96875.61328-.46875 1.45312-.70313 2.51562-.70313h.64063c.89453 0 1.58203.21485 2.0625.64063.47656.42969.71875 1 .71875 1.71875h-1.53125c-.02344-.28906-.15625-.53125-.40625-.71875-.24219-.1875-.59375-.28125-1.0625-.28125h-.64063c-.58594 0-1.02734.11719-1.32812.34375-.29297.21875-.47657.54687-.54688.98437-.05469.38672.01563.67969.20313.875.1875.1875.51562.32032.98437.39063l1.23438.20312c.96875.16797 1.65625.46094 2.0625.875.40625.41797.54687 1.03125.42187 1.84375-.14844.86719-.53906 1.55469-1.17187 2.0625-.625.5-1.4961.75001-2.60938.75001zm0 0"/>
  </symbol>
  <symbol id="bf" overflow="visible">
    <path d="m.8125 0 1.96875-12.40625h3.21875c1.19531 0 2.09766.33984 2.70313 1.01562.60156.66797.8125 1.57032.625 2.70313l-.78125 4.95312c-.11719.76172-.38282 1.42188-.79688 1.98438-.40625.55469-.92969.98437-1.5625 1.29687-.63672.30469-1.35547.45313-2.15625.45313zm1.75-1.35938h1.6875c.75 0 1.36719-.20703 1.85938-.625.48828-.42578.78906-1.00781.90625-1.75l.78125-4.95312c.125-.73828.0039-1.31641-.35938-1.73438-.35547-.41406-.90625-.625-1.65625-.625h-1.6875zm0 0"/>
  </symbol>
  <symbol id="bg" overflow="visible">
    <path d="m2.03125 0v-16.0625h4.15625c1.03906 0 1.9375.19922 2.6875.59375.75781.39844 1.34766.95312 1.76563 1.67187.41406.71875.625 1.57422.625 2.5625v6.39063c0 .99219-.21094 1.85156-.625 2.57812-.41797.71875-1.00782 1.27735-1.76563 1.67188-.75.39844-1.64844.59375-2.6875.59375zm1.96875-1.76563h2.1875c.96875 0 1.72266-.26953 2.26563-.8125.55078-.53906.82812-1.29687.82812-2.26562v-6.39063c0-.95703-.27734-1.70703-.82812-2.25-.54297-.53906-1.29688-.8125-2.26563-.8125h-2.1875zm0 0"/>
  </symbol>
  <symbol id="bh" overflow="visible">
    <path d="m6.59375.21875c-1.4375 0-2.57422-.41016-3.40625-1.23438-.83594-.82031-1.25-1.95312-1.25-3.39062v-7.25c0-1.4375.41406-2.56641 1.25-3.39063.83203-.82031 1.96875-1.23437 3.40625-1.23437s2.57031.40625 3.40625 1.21875c.84375.8125 1.26563 1.9375 1.26563 3.375v7.28125c0 1.4375-.42188 2.57031-1.26563 3.39062-.83594.82422-1.96875 1.23438-3.40625 1.23438zm0-1.78125c.86328 0 1.52344-.24219 1.98438-.73438.46875-.48828.70312-1.1914.70312-2.10937v-7.25c0-.91406-.23437-1.61719-.70312-2.10938-.46094-.48828-1.1211-.73437-1.98438-.73437-.84375 0-1.5.24609-1.96875.73437-.46875.49219-.70312 1.19532-.70312 2.10938v7.25c0 .91797.23437 1.62109.70312 2.10937.46875.49219 1.125.73438 1.96875.73438zm0 0"/>
  </symbol>
  <symbol id="bi" overflow="visible">
    <path d="m1.98438 0v-16.0625h2.64062l4.90625 13.75c-.03125-.36328-.07031-.8125-.10937-1.34375-.03125-.53906-.0586-1.10938-.07813-1.70313-.02344-.59375-.03125-1.15625-.03125-1.6875v-9.01562h1.90625v16.0625h-2.64062l-4.875-13.75c.01953.35547.04687.80469.07812 1.34375.03125.53125.05469 1.09375.07813 1.6875.01953.59375.03125 1.16406.03125 1.70312v9.01563zm0 0"/>
  </symbol>
  <symbol id="bj" overflow="visible">
    <path d="m2.20313 0v-16.0625h9.23437v1.8125h-7.28125v4.96875h6.51563v1.75h-6.51563v5.73437h7.28125v1.79688zm0 0"/>
  </symbol>
  <symbol id="bk" overflow="visible">
    <path d="m5.60938 0v-14.25h-4.40625v-1.8125h10.78125v1.8125h-4.39063v14.25zm0 0"/>
  </symbol>
  <path d="m0 0h926v792h-926z" fill="#282828"/>
  <path d="m348 226h10v24h-10zm0 0" fill="#373737"/>
  <g fill="#6f6f6f">
    <use x="8" xlink:href="#b" y="18"/>
    <use x="18" xlink:href="#c" y="18"/>
    <use x="28" xlink:href="#d" y="18"/>
    <use x="38" xlink:href="#e" y="18"/>
    <use x="48" xlink:href="#d" y="18"/>
    <use x="58" xlink:href="#f" y="18"/>
    <use x="68" xlink:href="#g" y="18"/>
    <use x="78" xlink:href="#h" y="18"/>
  </g>
  <g fill="#edc678">
    <use x="108" xlink:href="#aj" y="18"/>
    <use x="118" xlink:href="#ak" y="18"/>
    <use x="128" xlink:href="#al" y="18"/>
    <use x="138" xlink:href="#am" y="18"/>
    <use x="148" xlink:href="#an" y="18"/>
  </g>
  <path d="m918 0h8v24h-8zm0 0" fill="#292929"/>
  <g fill="#6f6f6f">
    <use x="8" xlink:href="#b" y="42"/>
    <use x="18" xlink:href="#c" y="42"/>
    <use x="28" xlink:href="#i" y="42"/>
    <use x="38" xlink:href="#j" y="42"/>
    <use x="48" xlink:href="#d" y="42"/>
    <use x="58" xlink:href="#k" y="42"/>
    <use x="68" xlink:href="#l" y="42"/>
    <use x="78" xlink:href="#m" y="42"/>
    <use x="88" xlink:href="#h" y="42"/>
  </g>
  <g fill="#af95e5">
    <use x="108" xlink:href="#d" y="42"/>
    <use x="118" xlink:href="#n" y="42"/>
    <use x="128" xlink:href="#o" y="42"/>
    <use x="138" xlink:href="#p" y="42"/>
    <use x="148" xlink:href="#q" y="42"/>
    <use x="158" xlink:href="#i" y="42"/>
    <use x="168" xlink:href="#r" y="42"/>
    <use x="178" xlink:href="#p" y="42"/>
    <use x="188" xlink:href="#s" y="42"/>
    <use x="198" xlink:href="#t" y="42"/>
    <use x="208" xlink:href="#u" y="42"/>
    <use x="218" xlink:href="#q" y="42"/>
  </g>
  <path d="m918 24h8v24h-8zm0 0" fill="#292929"/>
  <path d="m918 48h8v24h-8zm0 0" fill="#292929"/>
  <g fill="#91b9e1">
    <use x="8" xlink:href="#ao" y="95"/>
    <use x="20" xlink:href="#ap" y="95"/>
    <use x="32" xlink:href="#aq" y="95"/>
    <use x="44" xlink:href="#ar" y="95"/>
    <use x="56" xlink:href="#as" y="95"/>
    <use x="68" xlink:href="#at" y="95"/>
    <use x="80" xlink:href="#au" y="95"/>
    <use x="92" xlink:href="#av" y="95"/>
    <use x="104" xlink:href="#aw" y="95"/>
    <use x="116" xlink:href="#ap" y="95"/>
    <use x="128" xlink:href="#ax" y="95"/>
  </g>
  <path d="m918 72h8v29h-8zm0 0" fill="#292929"/>
  <g fill="#bca9e1">
    <use x="8" xlink:href="#ao" y="124"/>
    <use x="20" xlink:href="#ao" y="124"/>
    <use x="32" xlink:href="#ap" y="124"/>
    <use x="44" xlink:href="#aq" y="124"/>
    <use x="56" xlink:href="#ar" y="124"/>
    <use x="68" xlink:href="#as" y="124"/>
    <use x="80" xlink:href="#at" y="124"/>
    <use x="92" xlink:href="#au" y="124"/>
    <use x="104" xlink:href="#av" y="124"/>
    <use x="116" xlink:href="#aw" y="124"/>
    <use x="128" xlink:href="#ap" y="124"/>
    <use x="140" xlink:href="#ay" y="124"/>
  </g>
  <path d="m918 101h8v29h-8zm0 0" fill="#292929"/>
  <g fill="#d8d8d8">
    <use x="8" xlink:href="#d" y="148"/>
    <use x="18" xlink:href="#s" y="148"/>
    <use x="28" xlink:href="#v" y="148"/>
    <use x="38" xlink:href="#o" y="148"/>
    <use x="48" xlink:href="#q" y="148"/>
    <use x="58" xlink:href="#v" y="148"/>
    <use x="68" xlink:href="#o" y="148"/>
    <use x="78" xlink:href="#q" y="148"/>
    <use x="88" xlink:href="#w" y="148"/>
    <use x="98" xlink:href="#q" y="148"/>
    <use x="108" xlink:href="#x" y="148"/>
    <use x="118" xlink:href="#t" y="148"/>
    <use x="128" xlink:href="#y" y="148"/>
    <use x="138" xlink:href="#n" y="148"/>
    <use x="148" xlink:href="#q" y="148"/>
    <use x="158" xlink:href="#n" y="148"/>
    <use x="168" xlink:href="#z" y="148"/>
    <use x="178" xlink:href="#w" y="148"/>
    <use x="188" xlink:href="#A" y="148"/>
    <use x="198" xlink:href="#B" y="148"/>
    <use x="208" xlink:href="#C" y="148"/>
    <use x="218" xlink:href="#n" y="148"/>
    <use x="228" xlink:href="#h" y="148"/>
    <use x="238" xlink:href="#q" y="148"/>
  </g>
  <path d="m918 130h8v24h-8zm0 0" fill="#292929"/>
  <path d="m10.66602 205.33398v32 32 32 32 32 32 32 32 32 32h133.33398 1081.334v-32-32-32-32-32-32-32-32-32-32h-1028.00002z" fill="#353535" transform="scale(.75)"/>
  <g fill="#6f6f6f">
    <use x="8" xlink:href="#aQ" y="172"/>
    <use x="18" xlink:href="#aR" y="172"/>
    <use x="28" xlink:href="#aS" y="172"/>
    <use x="38" xlink:href="#aT" y="172"/>
    <use x="48" xlink:href="#aU" y="172"/>
    <use x="58" xlink:href="#aV" y="172"/>
    <use x="68" xlink:href="#aW" y="172"/>
    <use x="78" xlink:href="#aX" y="172"/>
    <use x="88" xlink:href="#aY" y="172"/>
    <use x="98" xlink:href="#aZ" y="172"/>
    <use x="108" xlink:href="#a0" y="172"/>
    <use x="118" xlink:href="#a1" y="172"/>
    <use x="128" xlink:href="#a2" y="172"/>
    <use x="138" xlink:href="#a1" y="172"/>
  </g>
  <path d="m918 154h8v24h-8zm0 0" fill="#292929"/>
  <g fill="#edc678">
    <use x="8" xlink:href="#q" y="196"/>
    <use x="18" xlink:href="#q" y="196"/>
    <use x="28" xlink:href="#b" y="196"/>
    <use x="38" xlink:href="#v" y="196"/>
    <use x="48" xlink:href="#D" y="196"/>
    <use x="58" xlink:href="#x" y="196"/>
    <use x="68" xlink:href="#C" y="196"/>
    <use x="78" xlink:href="#r" y="196"/>
    <use x="88" xlink:href="#y" y="196"/>
    <use x="98" xlink:href="#n" y="196"/>
  </g>
  <use fill="#8399b0" x="118" xlink:href="#E" y="196"/>
  <g fill="#9fd865">
    <use x="128" xlink:href="#o" y="196"/>
    <use x="138" xlink:href="#p" y="196"/>
    <use x="148" xlink:href="#y" y="196"/>
    <use x="158" xlink:href="#v" y="196"/>
    <use x="168" xlink:href="#t" y="196"/>
    <use x="178" xlink:href="#F" y="196"/>
    <use x="188" xlink:href="#s" y="196"/>
  </g>
  <use fill="#8399b0" x="198" xlink:href="#G" y="196"/>
  <path d="m918 178h8v24h-8zm0 0" fill="#292929"/>
  <path d="m918 202h8v24h-8zm0 0" fill="#292929"/>
  <g fill="#af95e5">
    <use x="28" xlink:href="#v" y="244"/>
    <use x="38" xlink:href="#D" y="244"/>
    <use x="48" xlink:href="#p" y="244"/>
  </g>
  <g fill="#e59e8d">
    <use x="68" xlink:href="#A" y="244"/>
    <use x="78" xlink:href="#w" y="244"/>
    <use x="88" xlink:href="#v" y="244"/>
    <use x="98" xlink:href="#D" y="244"/>
  </g>
  <use fill="#8399b0" x="108" xlink:href="#H" y="244"/>
  <g fill="#af95e5">
    <use x="118" xlink:href="#v" y="244"/>
    <use x="128" xlink:href="#D" y="244"/>
    <use x="138" xlink:href="#p" y="244"/>
  </g>
  <g fill="#e59e8d">
    <use x="158" xlink:href="#w" y="244"/>
    <use x="168" xlink:href="#u" y="244"/>
    <use x="178" xlink:href="#I" y="244"/>
    <use x="188" xlink:href="#x" y="244"/>
  </g>
  <g fill="#d8d8d8">
    <use x="198" xlink:href="#J" y="244"/>
    <use x="208" xlink:href="#q" y="244"/>
  </g>
  <g fill="#af95e5">
    <use x="218" xlink:href="#x" y="244"/>
    <use x="228" xlink:href="#s" y="244"/>
    <use x="238" xlink:href="#w" y="244"/>
    <use x="248" xlink:href="#u" y="244"/>
  </g>
  <g fill="#d8d8d8">
    <use x="258" xlink:href="#q" y="244"/>
    <use x="268" xlink:href="#K" y="244"/>
  </g>
  <g fill="#e59e8d">
    <use x="278" xlink:href="#w" y="244"/>
    <use x="288" xlink:href="#u" y="244"/>
    <use x="298" xlink:href="#I" y="244"/>
    <use x="308" xlink:href="#L" y="244"/>
  </g>
  <g fill="#b0948d">
    <use x="318" xlink:href="#M" y="244"/>
    <use x="328" xlink:href="#N" y="244"/>
  </g>
  <use fill="#8399b0" x="338" xlink:href="#O" y="244"/>
  <use fill="#8399b0" x="358" xlink:href="#P" y="244"/>
  <path d="m918 226h8v24h-8zm0 0" fill="#292929"/>
  <g fill="#6f6f6f">
    <use x="68" xlink:href="#Q" y="268"/>
    <use x="78" xlink:href="#Q" y="268"/>
    <use x="88" xlink:href="#q" y="268"/>
  </g>
  <g fill="#6f6f6f">
    <use x="98" xlink:href="#a3" y="268"/>
    <use x="108" xlink:href="#a4" y="268"/>
    <use x="118" xlink:href="#a5" y="268"/>
    <use x="128" xlink:href="#a6" y="268"/>
    <use x="138" xlink:href="#a7" y="268"/>
    <use x="148" xlink:href="#a1" y="268"/>
    <use x="158" xlink:href="#a8" y="268"/>
    <use x="168" xlink:href="#a9" y="268"/>
    <use x="178" xlink:href="#a9" y="268"/>
    <use x="188" xlink:href="#a1" y="268"/>
    <use x="198" xlink:href="#a8" y="268"/>
    <use x="208" xlink:href="#a4" y="268"/>
    <use x="218" xlink:href="#ba" y="268"/>
    <use x="228" xlink:href="#bb" y="268"/>
    <use x="238" xlink:href="#bc" y="268"/>
    <use x="248" xlink:href="#bd" y="268"/>
    <use x="258" xlink:href="#a6" y="268"/>
    <use x="268" xlink:href="#a7" y="268"/>
    <use x="278" xlink:href="#be" y="268"/>
    <use x="288" xlink:href="#a1" y="268"/>
  </g>
  <path d="m918 250h8v24h-8zm0 0" fill="#292929"/>
  <g fill="#72ace5">
    <use x="68" xlink:href="#R" y="292"/>
    <use x="78" xlink:href="#t" y="292"/>
    <use x="88" xlink:href="#u" y="292"/>
  </g>
  <use fill="#b0948d" x="108" xlink:href="#H" y="292"/>
  <g fill="#af95e5">
    <use x="118" xlink:href="#v" y="292"/>
    <use x="128" xlink:href="#D" y="292"/>
    <use x="138" xlink:href="#p" y="292"/>
  </g>
  <use fill="#e59e8d" x="158" xlink:href="#v" y="292"/>
  <g fill="#d8d8d8">
    <use x="168" xlink:href="#q" y="292"/>
    <use x="178" xlink:href="#S" y="292"/>
    <use x="188" xlink:href="#q" y="292"/>
    <use x="198" xlink:href="#T" y="292"/>
    <use x="208" xlink:href="#U" y="292"/>
    <use x="218" xlink:href="#q" y="292"/>
    <use x="228" xlink:href="#v" y="292"/>
    <use x="238" xlink:href="#q" y="292"/>
    <use x="248" xlink:href="#E" y="292"/>
    <use x="258" xlink:href="#q" y="292"/>
    <use x="268" xlink:href="#w" y="292"/>
    <use x="278" xlink:href="#u" y="292"/>
    <use x="288" xlink:href="#I" y="292"/>
    <use x="298" xlink:href="#x" y="292"/>
    <use x="308" xlink:href="#U" y="292"/>
    <use x="318" xlink:href="#q" y="292"/>
    <use x="328" xlink:href="#v" y="292"/>
    <use x="338" xlink:href="#c" y="292"/>
    <use x="348" xlink:href="#c" y="292"/>
  </g>
  <use fill="#b0948d" x="358" xlink:href="#O" y="292"/>
  <path d="m918 274h8v24h-8zm0 0" fill="#292929"/>
  <g fill="#d8d8d8">
    <use x="8" xlink:href="#q" y="316"/>
    <use x="18" xlink:href="#q" y="316"/>
    <use x="28" xlink:href="#q" y="316"/>
    <use x="38" xlink:href="#q" y="316"/>
    <use x="48" xlink:href="#q" y="316"/>
    <use x="58" xlink:href="#q" y="316"/>
    <use x="68" xlink:href="#q" y="316"/>
    <use x="78" xlink:href="#q" y="316"/>
    <use x="88" xlink:href="#q" y="316"/>
    <use x="98" xlink:href="#q" y="316"/>
    <use x="108" xlink:href="#B" y="316"/>
    <use x="118" xlink:href="#u" y="316"/>
    <use x="128" xlink:href="#v" y="316"/>
    <use x="138" xlink:href="#D" y="316"/>
    <use x="148" xlink:href="#p" y="316"/>
    <use x="158" xlink:href="#R" y="316"/>
  </g>
  <use fill="#b0948d" x="168" xlink:href="#H" y="316"/>
  <g fill="#9fd865">
    <use x="178" xlink:href="#V" y="316"/>
    <use x="188" xlink:href="#w" y="316"/>
    <use x="198" xlink:href="#u" y="316"/>
    <use x="208" xlink:href="#I" y="316"/>
    <use x="218" xlink:href="#q" y="316"/>
    <use x="228" xlink:href="#W" y="316"/>
    <use x="238" xlink:href="#y" y="316"/>
    <use x="248" xlink:href="#h" y="316"/>
    <use x="258" xlink:href="#q" y="316"/>
    <use x="268" xlink:href="#W" y="316"/>
    <use x="278" xlink:href="#o" y="316"/>
    <use x="288" xlink:href="#X" y="316"/>
    <use x="298" xlink:href="#D" y="316"/>
    <use x="308" xlink:href="#V" y="316"/>
  </g>
  <g fill="#d8d8d8">
    <use x="318" xlink:href="#J" y="316"/>
    <use x="328" xlink:href="#q" y="316"/>
    <use x="338" xlink:href="#v" y="316"/>
    <use x="348" xlink:href="#J" y="316"/>
    <use x="358" xlink:href="#q" y="316"/>
    <use x="368" xlink:href="#w" y="316"/>
    <use x="378" xlink:href="#u" y="316"/>
    <use x="388" xlink:href="#I" y="316"/>
    <use x="398" xlink:href="#L" y="316"/>
  </g>
  <use fill="#94ab7e" x="408" xlink:href="#M" y="316"/>
  <use fill="#d8d8d8" x="418" xlink:href="#v" y="316"/>
  <use fill="#94ab7e" x="428" xlink:href="#N" y="316"/>
  <use fill="#b0948d" x="438" xlink:href="#O" y="316"/>
  <g fill="#d8d8d8">
    <use x="448" xlink:href="#U" y="316"/>
    <use x="458" xlink:href="#q" y="316"/>
  </g>
  <path d="m918 298h8v24h-8zm0 0" fill="#292929"/>
  <g fill="#72ace5">
    <use x="68" xlink:href="#u" y="340"/>
    <use x="78" xlink:href="#n" y="340"/>
    <use x="88" xlink:href="#p" y="340"/>
    <use x="98" xlink:href="#r" y="340"/>
    <use x="108" xlink:href="#u" y="340"/>
    <use x="118" xlink:href="#D" y="340"/>
  </g>
  <g fill="#d8d8d8">
    <use x="128" xlink:href="#q" y="340"/>
    <use x="138" xlink:href="#T" y="340"/>
    <use x="148" xlink:href="#U" y="340"/>
    <use x="158" xlink:href="#q" y="340"/>
  </g>
  <path d="m918 322h8v24h-8zm0 0" fill="#292929"/>
  <use fill="#8399b0" x="28" xlink:href="#Y" y="364"/>
  <path d="m918 346h8v24h-8zm0 0" fill="#292929"/>
  <g fill="#6f6f6f">
    <use x="8" xlink:href="#aQ" y="388"/>
    <use x="18" xlink:href="#aR" y="388"/>
    <use x="28" xlink:href="#aT" y="388"/>
    <use x="38" xlink:href="#aW" y="388"/>
    <use x="48" xlink:href="#bf" y="388"/>
    <use x="58" xlink:href="#aX" y="388"/>
    <use x="68" xlink:href="#aY" y="388"/>
    <use x="78" xlink:href="#aZ" y="388"/>
    <use x="88" xlink:href="#a0" y="388"/>
    <use x="98" xlink:href="#a1" y="388"/>
  </g>
  <path d="m918 370h8v24h-8zm0 0" fill="#292929"/>
  <path d="m918 394h8v24h-8zm0 0" fill="#292929"/>
  <g fill="#bca9e1">
    <use x="8" xlink:href="#ao" y="441"/>
    <use x="20" xlink:href="#ao" y="441"/>
    <use x="32" xlink:href="#ap" y="441"/>
    <use x="44" xlink:href="#az" y="441"/>
    <use x="56" xlink:href="#aA" y="441"/>
    <use x="68" xlink:href="#aB" y="441"/>
    <use x="80" xlink:href="#aA" y="441"/>
    <use x="92" xlink:href="#aC" y="441"/>
  </g>
  <path d="m918 418h8v29h-8zm0 0" fill="#292929"/>
  <g fill="#e7cc95">
    <use x="8" xlink:href="#ao" y="472"/>
    <use x="20" xlink:href="#ao" y="472"/>
    <use x="32" xlink:href="#ao" y="472"/>
    <use x="44" xlink:href="#ap" y="472"/>
  </g>
  <path d="m56 447h52v32h-52zm0 0" fill="#465538"/>
  <g fill="#9fd865">
    <use x="56" xlink:href="#bg" y="472"/>
    <use x="69" xlink:href="#bh" y="472"/>
    <use x="82" xlink:href="#bi" y="472"/>
    <use x="95" xlink:href="#bj" y="472"/>
  </g>
  <path d="m56 447h52v1h-52zm0 0" fill="#292929"/>
  <g fill="#e7cc95">
    <use x="108" xlink:href="#ap" y="472"/>
    <use x="120" xlink:href="#aD" y="472"/>
    <use x="132" xlink:href="#aE" y="472"/>
    <use x="144" xlink:href="#ar" y="472"/>
    <use x="156" xlink:href="#as" y="472"/>
    <use x="168" xlink:href="#aF" y="472"/>
    <use x="180" xlink:href="#ar" y="472"/>
    <use x="192" xlink:href="#ap" y="472"/>
    <use x="204" xlink:href="#as" y="472"/>
    <use x="216" xlink:href="#av" y="472"/>
    <use x="228" xlink:href="#ap" y="472"/>
    <use x="240" xlink:href="#aG" y="472"/>
    <use x="252" xlink:href="#aE" y="472"/>
    <use x="264" xlink:href="#aw" y="472"/>
    <use x="276" xlink:href="#ap" y="472"/>
    <use x="288" xlink:href="#at" y="472"/>
    <use x="300" xlink:href="#aG" y="472"/>
    <use x="312" xlink:href="#aH" y="472"/>
    <use x="324" xlink:href="#aI" y="472"/>
    <use x="336" xlink:href="#aJ" y="472"/>
    <use x="348" xlink:href="#ar" y="472"/>
    <use x="360" xlink:href="#av" y="472"/>
    <use x="372" xlink:href="#aF" y="472"/>
  </g>
  <path d="m918 447h8v32h-8zm0 0" fill="#292929"/>
  <g fill="#e7cc95">
    <use x="8" xlink:href="#ao" y="504"/>
    <use x="20" xlink:href="#ao" y="504"/>
    <use x="32" xlink:href="#ao" y="504"/>
    <use x="44" xlink:href="#ap" y="504"/>
  </g>
  <path d="m56 479h52v32h-52zm0 0" fill="#584642"/>
  <g fill="#e59e8d">
    <use x="56" xlink:href="#bk" y="504"/>
    <use x="69" xlink:href="#bh" y="504"/>
    <use x="82" xlink:href="#bg" y="504"/>
    <use x="95" xlink:href="#bh" y="504"/>
  </g>
  <path d="m56 479h52v1h-52zm0 0" fill="#292929"/>
  <g fill="#e7cc95">
    <use x="108" xlink:href="#ap" y="504"/>
    <use x="120" xlink:href="#aK" y="504"/>
    <use x="132" xlink:href="#as" y="504"/>
    <use x="144" xlink:href="#aL" y="504"/>
    <use x="156" xlink:href="#ar" y="504"/>
    <use x="168" xlink:href="#ap" y="504"/>
    <use x="180" xlink:href="#aJ" y="504"/>
    <use x="192" xlink:href="#aG" y="504"/>
    <use x="204" xlink:href="#aE" y="504"/>
    <use x="216" xlink:href="#ar" y="504"/>
    <use x="228" xlink:href="#ap" y="504"/>
    <use x="240" xlink:href="#aC" y="504"/>
    <use x="252" xlink:href="#aH" y="504"/>
    <use x="264" xlink:href="#aE" y="504"/>
    <use x="276" xlink:href="#ar" y="504"/>
    <use x="288" xlink:href="#ar" y="504"/>
    <use x="300" xlink:href="#av" y="504"/>
    <use x="312" xlink:href="#aC" y="504"/>
    <use x="324" xlink:href="#aM" y="504"/>
    <use x="336" xlink:href="#aG" y="504"/>
    <use x="348" xlink:href="#aF" y="504"/>
    <use x="360" xlink:href="#aC" y="504"/>
  </g>
  <path d="m918 479h8v32h-8zm0 0" fill="#292929"/>
  <path d="m918 511h8v24h-8zm0 0" fill="#292929"/>
  <g fill="#bca9e1">
    <use x="8" xlink:href="#ao" y="558"/>
    <use x="20" xlink:href="#ao" y="558"/>
    <use x="32" xlink:href="#ap" y="558"/>
    <use x="44" xlink:href="#aN" y="558"/>
    <use x="56" xlink:href="#au" y="558"/>
    <use x="68" xlink:href="#aC" y="558"/>
    <use x="80" xlink:href="#aF" y="558"/>
    <use x="92" xlink:href="#ap" y="558"/>
  </g>
  <path d="m918 535h8v29h-8zm0 0" fill="#292929"/>
  <g fill="#d8d8d8">
    <use x="8" xlink:href="#Z" y="582"/>
    <use x="18" xlink:href="#q" y="582"/>
  </g>
  <path d="m37.33398 752v32 32 32h40v-32-32-32z" fill="#3d3d3d" transform="scale(.75)"/>
  <g fill="#d8d8d8">
    <use x="28" xlink:href="#M" y="582"/>
    <use x="38" xlink:href="#aa" y="582"/>
    <use x="48" xlink:href="#N" y="582"/>
  </g>
  <g fill="#d8d8d8">
    <use x="58" xlink:href="#q" y="582"/>
    <use x="68" xlink:href="#l" y="582"/>
    <use x="78" xlink:href="#B" y="582"/>
    <use x="88" xlink:href="#p" y="582"/>
    <use x="98" xlink:href="#v" y="582"/>
    <use x="108" xlink:href="#t" y="582"/>
    <use x="118" xlink:href="#D" y="582"/>
    <use x="128" xlink:href="#q" y="582"/>
    <use x="138" xlink:href="#ab" y="582"/>
    <use x="148" xlink:href="#q" y="582"/>
  </g>
  <path d="m918 564h8v24h-8zm0 0" fill="#292929"/>
  <g fill="#d8d8d8">
    <use x="8" xlink:href="#Z" y="606"/>
    <use x="18" xlink:href="#q" y="606"/>
  </g>
  <g fill="#d8d8d8">
    <use x="28" xlink:href="#M" y="606"/>
    <use x="38" xlink:href="#q" y="606"/>
    <use x="48" xlink:href="#N" y="606"/>
  </g>
  <g fill="#d8d8d8">
    <use x="58" xlink:href="#q" y="606"/>
    <use x="68" xlink:href="#l" y="606"/>
    <use x="78" xlink:href="#B" y="606"/>
    <use x="88" xlink:href="#p" y="606"/>
    <use x="98" xlink:href="#v" y="606"/>
    <use x="108" xlink:href="#t" y="606"/>
    <use x="118" xlink:href="#D" y="606"/>
    <use x="128" xlink:href="#q" y="606"/>
    <use x="138" xlink:href="#ac" y="606"/>
    <use x="148" xlink:href="#q" y="606"/>
  </g>
  <path d="m918 588h8v24h-8zm0 0" fill="#292929"/>
  <g fill="#d8d8d8">
    <use x="8" xlink:href="#Z" y="630"/>
    <use x="18" xlink:href="#q" y="630"/>
  </g>
  <g fill="#d8d8d8">
    <use x="28" xlink:href="#M" y="630"/>
    <use x="38" xlink:href="#q" y="630"/>
    <use x="48" xlink:href="#N" y="630"/>
  </g>
  <g fill="#d8d8d8">
    <use x="58" xlink:href="#q" y="630"/>
    <use x="68" xlink:href="#l" y="630"/>
    <use x="78" xlink:href="#B" y="630"/>
    <use x="88" xlink:href="#p" y="630"/>
    <use x="98" xlink:href="#v" y="630"/>
    <use x="108" xlink:href="#t" y="630"/>
    <use x="118" xlink:href="#D" y="630"/>
    <use x="128" xlink:href="#q" y="630"/>
    <use x="138" xlink:href="#ad" y="630"/>
    <use x="148" xlink:href="#q" y="630"/>
  </g>
  <path d="m918 612h8v24h-8zm0 0" fill="#292929"/>
  <path d="m918 636h8v24h-8zm0 0" fill="#292929"/>
  <g fill="#bca9e1">
    <use x="8" xlink:href="#ao" y="683"/>
    <use x="20" xlink:href="#ao" y="683"/>
    <use x="32" xlink:href="#ap" y="683"/>
    <use x="44" xlink:href="#az" y="683"/>
    <use x="56" xlink:href="#as" y="683"/>
    <use x="68" xlink:href="#aO" y="683"/>
    <use x="80" xlink:href="#aP" y="683"/>
    <use x="92" xlink:href="#ar" y="683"/>
  </g>
  <path d="m918 660h8v29h-8zm0 0" fill="#292929"/>
  <path d="m10.66602 918.66602v32 32h413.33398v-32h-13.33398v-32h-13.33204-40-13.33398-13.33398-13.33204-40-13.33398-13.33398-13.33204-40-13.33398-13.33398-13.33204-40-13.33398-13.33398-13.33204-40-13.33398z" fill="#353535" transform="scale(.75)"/>
  <g fill="#d8d8d8">
    <use x="8" xlink:href="#ae" y="707"/>
    <g>
      <use x="28" xlink:href="#q" y="707"/>
      <use x="38" xlink:href="#q" y="707"/>
      <use x="48" xlink:href="#i" y="707"/>
    </g>
    <use x="68" xlink:href="#ae" y="707"/>
    <g>
      <use x="88" xlink:href="#q" y="707"/>
      <use x="98" xlink:href="#q" y="707"/>
      <use x="108" xlink:href="#af" y="707"/>
    </g>
    <use x="128" xlink:href="#ae" y="707"/>
    <g>
      <use x="148" xlink:href="#q" y="707"/>
      <use x="158" xlink:href="#q" y="707"/>
      <use x="168" xlink:href="#ag" y="707"/>
    </g>
    <use x="188" xlink:href="#ae" y="707"/>
    <g>
      <use x="208" xlink:href="#q" y="707"/>
      <use x="218" xlink:href="#q" y="707"/>
      <use x="228" xlink:href="#ah" y="707"/>
    </g>
    <use x="248" xlink:href="#ae" y="707"/>
    <g>
      <use x="268" xlink:href="#q" y="707"/>
      <use x="278" xlink:href="#q" y="707"/>
      <use x="288" xlink:href="#g" y="707"/>
    </g>
  </g>
  <path d="m308 689h10v24h-10zm0 0" fill="#373737"/>
  <use fill="#d8d8d8" x="308" xlink:href="#ae" y="707"/>
  <path d="m918 689h8v24h-8zm0 0" fill="#292929"/>
  <g clip-path="url(#a)">
    <g fill="#d8d8d8">
      <use x="8" xlink:href="#ae" y="731"/>
      <use x="18" xlink:href="#Z" y="731"/>
      <use x="28" xlink:href="#Z" y="731"/>
      <use x="38" xlink:href="#Z" y="731"/>
      <use x="48" xlink:href="#Z" y="731"/>
      <use x="58" xlink:href="#Z" y="731"/>
      <use x="68" xlink:href="#c" y="731"/>
      <use x="78" xlink:href="#Z" y="731"/>
      <use x="88" xlink:href="#Z" y="731"/>
      <use x="98" xlink:href="#Z" y="731"/>
      <use x="108" xlink:href="#Z" y="731"/>
      <use x="118" xlink:href="#Z" y="731"/>
      <use x="128" xlink:href="#c" y="731"/>
      <use x="138" xlink:href="#Z" y="731"/>
      <use x="148" xlink:href="#Z" y="731"/>
      <use x="158" xlink:href="#Z" y="731"/>
      <use x="168" xlink:href="#Z" y="731"/>
      <use x="178" xlink:href="#Z" y="731"/>
      <use x="188" xlink:href="#c" y="731"/>
      <use x="198" xlink:href="#Z" y="731"/>
      <use x="208" xlink:href="#Z" y="731"/>
      <use x="218" xlink:href="#Z" y="731"/>
      <use x="228" xlink:href="#Z" y="731"/>
      <use x="238" xlink:href="#Z" y="731"/>
      <use x="248" xlink:href="#c" y="731"/>
      <use x="258" xlink:href="#Z" y="731"/>
      <use x="268" xlink:href="#Z" y="731"/>
      <use x="278" xlink:href="#Z" y="731"/>
      <use x="288" xlink:href="#Z" y="731"/>
      <use x="298" xlink:href="#Z" y="731"/>
      <use x="308" xlink:href="#ae" y="731"/>
    </g>
  </g>
  <path d="m918 713h8v15h-8zm0 0" fill="#292929"/>
  <path d="m0 970.66602v10.66796 32.00002 10.666h10.66602 13.33398 26.66602 53.33398 120 386.66602 610.66798 13.332v-10.666-32.00002-10.66796h-13.332-610.66798-386.66602-120-53.33398-26.66602-13.33398z" fill="#3a4a73" transform="scale(.75)"/>
  <g fill="#d8d8d8">
    <use x="18" xlink:href="#K" y="754"/>
    <use x="28" xlink:href="#q" y="754"/>
  </g>
  <g fill="#9a9fb0">
    <use x="38" xlink:href="#j" y="754"/>
    <use x="48" xlink:href="#h" y="754"/>
    <use x="58" xlink:href="#q" y="754"/>
    <use x="68" xlink:href="#q" y="754"/>
  </g>
  <g fill="#d8d8d8">
    <use x="78" xlink:href="#p" y="754"/>
    <use x="88" xlink:href="#n" y="754"/>
    <use x="98" xlink:href="#o" y="754"/>
    <use x="108" xlink:href="#p" y="754"/>
    <use x="118" xlink:href="#F" y="754"/>
    <use x="128" xlink:href="#t" y="754"/>
    <use x="138" xlink:href="#u" y="754"/>
    <use x="148" xlink:href="#I" y="754"/>
    <use x="158" xlink:href="#q" y="754"/>
  </g>
  <g fill="#9a9fb0">
    <use x="168" xlink:href="#q" y="754"/>
    <use x="178" xlink:href="#q" y="754"/>
    <use x="188" xlink:href="#q" y="754"/>
    <use x="198" xlink:href="#q" y="754"/>
    <use x="208" xlink:href="#ab" y="754"/>
    <use x="218" xlink:href="#T" y="754"/>
    <use x="228" xlink:href="#h" y="754"/>
    <use x="238" xlink:href="#ad" y="754"/>
    <use x="248" xlink:href="#ai" y="754"/>
    <use x="258" xlink:href="#q" y="754"/>
    <use x="268" xlink:href="#q" y="754"/>
    <use x="278" xlink:href="#q" y="754"/>
    <use x="288" xlink:href="#d" y="754"/>
    <use x="298" xlink:href="#t" y="754"/>
    <use x="308" xlink:href="#B" y="754"/>
    <use x="318" xlink:href="#q" y="754"/>
    <use x="328" xlink:href="#q" y="754"/>
    <use x="338" xlink:href="#q" y="754"/>
    <use x="348" xlink:href="#l" y="754"/>
    <use x="358" xlink:href="#u" y="754"/>
    <use x="368" xlink:href="#I" y="754"/>
    <use x="378" xlink:href="#q" y="754"/>
    <use x="388" xlink:href="#q" y="754"/>
    <use x="398" xlink:href="#q" y="754"/>
    <use x="408" xlink:href="#q" y="754"/>
    <use x="418" xlink:href="#q" y="754"/>
    <use x="428" xlink:href="#q" y="754"/>
    <use x="438" xlink:href="#q" y="754"/>
    <use x="448" xlink:href="#q" y="754"/>
  </g>
  <path d="m348 226h10v24h-10zm0 0" fill="#72ace5"/>
  <path d="m918 768h8v24h-8zm0 0" fill="#292929"/>
</svg>
