<svg width="1092" height="586pt" viewBox="0 0 819 586" xmlns:xlink="http://www.w3.org/1999/xlink" xmlns="http://www.w3.org/2000/svg">
    <defs>
        <path d="m1.25 0 .578-3.156H.531v-.969H2l.5-2.703H1.047v-.969h1.625l.578-3.156h1.063l-.594 3.156h2.406l.578-3.156H7.75l-.578 3.156h1.297v.969H7l-.5 2.703h1.453v.969H6.328L5.75 0H4.687l.594-3.156H2.875L2.297 0Zm1.797-4.125h2.39l.516-2.703h-2.39Zm0 0" id="a"/>
        <path d="M3.844-1.422v-2.922H.969v-1.203h2.875v-2.922h1.312v2.922h2.875v1.203H5.156v2.922Zm0 0" id="b"/>
        <path d="M3.828 0v-9.719h-3v-1.234h7.344v1.234h-3V0Zm0 0" id="c"/>
        <path d="M1.578 0v-1.234h2.234V-9.72H1.579v-1.234h5.844v1.234H5.188v8.485h2.234V0Zm0 0" id="d"/>
        <path d="M1.953 0v-10.953h1.344v9.719H8.25V0Zm0 0" id="e"/>
        <path d="M1.5 0v-10.953h6.297v1.234H2.828v3.39h4.453v1.204H2.828v3.89h4.969V0Zm0 0" id="f"/>
        <path d="M4.5-6.156c-.375 0-.68-.098-.906-.297-.23-.207-.344-.484-.344-.828 0-.332.113-.602.344-.813.226-.207.531-.312.906-.312s.676.105.906.312c.227.211.344.48.344.813 0 .343-.117.62-.344.828-.23.2-.531.297-.906.297Zm0 6.312c-.375 0-.68-.105-.906-.312-.23-.207-.344-.477-.344-.813 0-.344.113-.613.344-.812.226-.207.531-.313.906-.313s.676.106.906.313c.227.199.344.468.344.812 0 .336-.117.606-.344.813-.23.207-.531.312-.906.312Zm0 0" id="g"/>
        <path d="m.75 0 2.844-10.953h1.828L8.25 0H6.89l-.718-2.906H2.844L2.125 0Zm2.375-4.047h2.75l-.828-3.375a42.178 42.178 0 0 1-.39-1.61 18.087 18.087 0 0 1-.157-.843c-.023.137-.078.418-.172.844-.086.43-.21.96-.375 1.594Zm0 0" id="m"/>
        <path d="M4.5.156c-1.023 0-1.805-.281-2.344-.844-.543-.57-.812-1.343-.812-2.312v-7.953h1.36V-3c0 .605.144 1.086.437 1.438.289.343.742.515 1.359.515.602 0 1.05-.172 1.344-.516.3-.351.453-.832.453-1.437v-7.953h1.36V-3c0 .98-.274 1.75-.813 2.313C6.312-.125 5.53.155 4.5.155Zm0 0" id="n"/>
        <path d="M1.39 0v-10.953h1.36v4.687h3.5v-4.687h1.36V0H6.25v-5.047h-3.5V0Zm0 0" id="o"/>
        <path d="M4.5.156c-.98 0-1.758-.281-2.328-.844-.574-.562-.86-1.332-.86-2.312v-4.953c0-.977.286-1.742.86-2.297.57-.563 1.348-.844 2.328-.844.977 0 1.754.278 2.328.828.57.555.86 1.32.86 2.297V-3c0 .98-.29 1.75-.86 2.313-.574.562-1.351.843-2.328.843Zm0-1.218c.594 0 1.047-.165 1.36-.5.312-.333.468-.813.468-1.438v-4.953c0-.613-.156-1.086-.469-1.422-.312-.344-.765-.516-1.359-.516-.586 0-1.04.172-1.36.516-.312.336-.468.809-.468 1.422V-3c0 .625.156 1.105.469 1.438.32.335.773.5 1.359.5Zm0 0" id="p"/>
        <path d="M1.375 0v-10.953h3.39c.657 0 1.227.137 1.72.406.488.262.867.625 1.14 1.094.27.469.406 1.023.406 1.656 0 .742-.195 1.375-.578 1.906a2.912 2.912 0 0 1-1.578 1.094L8.172 0H6.578L4.484-4.656h-1.75V0Zm1.36-5.86h2.03c.563 0 1.008-.175 1.344-.53.344-.364.516-.833.516-1.407 0-.594-.172-1.062-.516-1.406-.336-.352-.78-.531-1.343-.531H2.734Zm0 0" id="q"/>
        <path d="M4.484.156c-.949 0-1.71-.281-2.28-.844-.575-.57-.86-1.343-.86-2.312v-5.25h1.36V-3c0 .625.155 1.11.468 1.453.32.344.758.516 1.312.516.563 0 1.004-.172 1.329-.516.32-.344.484-.828.484-1.453v-5.25h1.36V-3c0 .969-.294 1.742-.876 2.313-.586.562-1.351.843-2.297.843Zm0 0" id="r"/>
        <path d="M5.406 0c-.687 0-1.234-.195-1.64-.594-.407-.394-.61-.922-.61-1.578v-4.844H.828V-8.25h2.328v-2.328H4.5v2.328h3.297v1.234H4.5v4.844c0 .281.082.512.25.688.164.168.383.25.656.25h2.25V0Zm0 0" id="s"/>
        <path d="M1.375 0v-10.953h1.36v4.281h.015c.063-.55.281-.976.656-1.281.383-.3.895-.453 1.531-.453.833 0 1.493.258 1.985.765.488.512.734 1.211.734 2.094V0h-1.36v-5.406c0-.582-.155-1.035-.468-1.36-.312-.332-.742-.5-1.281-.5-.563 0-1.008.18-1.328.532-.324.355-.485.851-.485 1.484V0Zm0 0" id="t"/>
        <path d="M4.5.125c-1 0-1.79-.281-2.36-.844-.574-.57-.859-1.344-.859-2.312V-5.22c0-.976.285-1.75.86-2.312.57-.563 1.359-.844 2.359-.844s1.785.281 2.36.844c.57.562.859 1.328.859 2.297v2.203c0 .969-.29 1.742-.86 2.312C6.285-.156 5.5.125 4.5.125Zm0-1.203c.594 0 1.05-.16 1.375-.484.332-.333.5-.82.5-1.47v-2.187c0-.644-.168-1.129-.5-1.453-.324-.332-.781-.5-1.375-.5-.586 0-1.043.168-1.375.5-.336.324-.5.809-.5 1.453v2.188c0 .648.164 1.136.5 1.469.332.324.79.484 1.375.484Zm0 0" id="u"/>
        <path d="M1.64 0v-8.25h1.344v1.578H3c.07-.55.297-.976.672-1.281.383-.3.89-.453 1.515-.453.864 0 1.551.277 2.063.828.508.543.766 1.277.766 2.203v.578h-1.36v-.453c0-.625-.164-1.11-.484-1.453-.313-.352-.777-.531-1.39-.531-1.2 0-1.798.664-1.798 1.984V0Zm0 0" id="v"/>
        <path d="M1.281 0v-1.234h2.922v-5.782H1.578V-8.25h3.969v7.016h2.781V0ZM4.72-9.734c-.336 0-.594-.082-.782-.25-.187-.176-.28-.41-.28-.704a.93.93 0 0 1 .28-.703c.188-.175.446-.265.782-.265.332 0 .593.09.781.265a.93.93 0 0 1 .281.704c0 .292-.093.527-.281.703-.188.168-.45.25-.781.25Zm0 0" id="F"/>
        <path d="M4.25.125c-.855 0-1.555-.191-2.094-.578-.543-.395-.812-.93-.812-1.61h1.39c0 .305.145.543.438.72.289.179.66.265 1.11.265h.624c.532 0 .926-.102 1.188-.313.258-.218.39-.507.39-.875 0-.351-.125-.629-.375-.828-.242-.207-.59-.347-1.046-.422l-1.125-.171c-.813-.145-1.418-.407-1.813-.782-.387-.383-.578-.91-.578-1.578 0-.75.238-1.32.719-1.719.488-.406 1.187-.609 2.093-.609h.579c.832 0 1.5.188 2 .563.507.375.765.875.765 1.5H6.328c0-.258-.133-.47-.39-.625-.25-.157-.594-.235-1.032-.235h-.578c-.469 0-.836.102-1.094.297-.25.2-.375.477-.375.828 0 .606.426.977 1.282 1.11l1.109.187c.883.137 1.531.398 1.938.781.406.375.609.922.609 1.64 0 .763-.246 1.36-.734 1.798-.481.437-1.211.656-2.188.656Zm0 0" id="G"/>
        <path d="M3.781.156c-.875 0-1.562-.222-2.062-.672-.5-.445-.75-1.05-.75-1.812 0-.77.25-1.375.75-1.813.5-.437 1.176-.656 2.031-.656h2.547v-.828c0-.5-.152-.89-.453-1.172-.305-.281-.727-.422-1.266-.422-.48 0-.887.11-1.219.328-.336.211-.539.48-.609.813H1.39c.051-.457.22-.86.5-1.203.29-.352.665-.63 1.126-.828a4.021 4.021 0 0 1 1.562-.297c.945 0 1.695.246 2.25.734.55.492.828 1.156.828 2V0H6.328v-1.578h-.016c-.062.531-.324.953-.78 1.266C5.081 0 4.5.156 3.781.156ZM4.11-.922c.633 0 1.157-.156 1.563-.469.414-.32.625-.734.625-1.234v-1.172H3.78c-.449 0-.804.125-1.062.375-.262.25-.39.59-.39 1.016 0 .469.155.836.468 1.094.312.261.75.39 1.312.39Zm0 0" id="H"/>
        <path d="M4.563.156c-1 0-1.797-.281-2.391-.844-.594-.562-.89-1.332-.89-2.312v-2.25c0-.977.296-1.75.89-2.313.594-.562 1.39-.843 2.39-.843.946 0 1.708.258 2.282.765.582.512.89 1.211.922 2.094H6.422c-.031-.531-.211-.937-.531-1.219-.325-.289-.766-.437-1.329-.437-.593 0-1.07.172-1.421.516-.344.335-.516.808-.516 1.421V-3c0 .625.172 1.11.516 1.453.351.336.828.5 1.421.5.563 0 1.004-.144 1.329-.437.32-.29.5-.696.53-1.22h1.345c-.032.888-.34 1.587-.922 2.095-.574.511-1.336.765-2.282.765Zm0 0" id="I"/>
        <path d="M4.016.156c-.813 0-1.477-.273-1.985-.828-.5-.55-.75-1.297-.75-2.234v-2.422c0-.945.25-1.695.75-2.25.5-.55 1.16-.828 1.985-.828.625 0 1.132.156 1.53.469.407.312.641.734.704 1.265h.047l-.031-1.875v-2.406h1.359V0h-1.36v-1.578H6.25c-.063.543-.297.969-.703 1.281-.399.3-.906.453-1.531.453Zm.453-1.172c.562 0 1-.171 1.312-.515.32-.352.485-.844.485-1.469v-2.25c0-.625-.164-1.11-.485-1.453-.312-.352-.75-.531-1.312-.531-.574 0-1.028.171-1.36.515-.324.344-.484.836-.484 1.469V-3c0 .637.16 1.125.484 1.469.332.343.786.515 1.36.515Zm0 0" id="J"/>
        <path d="M4.5.156c-.648 0-1.215-.133-1.703-.39a2.636 2.636 0 0 1-1.125-1.11C1.41-1.82 1.282-2.375 1.282-3v-2.25c0-.633.128-1.188.39-1.656a2.68 2.68 0 0 1 1.125-1.11c.488-.257 1.055-.39 1.703-.39.645 0 1.21.133 1.703.39.488.262.863.633 1.125 1.11.258.468.39 1.023.39 1.656v1.453H2.595V-3c0 .648.16 1.148.484 1.5.332.344.805.516 1.422.516.52 0 .938-.094 1.25-.282.32-.187.52-.46.594-.828h1.343c-.085.688-.417 1.235-1 1.64-.585.407-1.312.61-2.187.61ZM2.594-4.812h3.812v-.438c0-.645-.164-1.145-.484-1.5-.324-.352-.797-.531-1.422-.531-.617 0-1.09.18-1.422.531-.324.355-.484.855-.484 1.5Zm0 0" id="K"/>
        <path d="m.75 0 2.922-4.25-2.735-4h1.579l1.64 2.547c.07.117.14.242.203.375.063.125.114.226.157.297.03-.07.078-.172.14-.297.063-.133.13-.258.203-.375L6.516-8.25h1.562L5.344-4.234 8.25 0H6.656L4.891-2.703a1.857 1.857 0 0 1-.204-.375 4.625 4.625 0 0 0-.171-.36 18.96 18.96 0 0 1-.172.36 2.07 2.07 0 0 1-.235.375L2.33 0Zm0 0" id="L"/>
        <path d="M.906 0v-8.25h1.172v.984h.094a1.44 1.44 0 0 1 .469-.812c.25-.219.554-.328.921-.328.32 0 .602.105.844.312.239.211.41.485.516.828h.094c.062-.332.218-.601.468-.812.25-.219.563-.328.938-.328.5 0 .898.199 1.203.594.313.398.469.914.469 1.546V0H6.859v-6.281c0-.352-.078-.617-.234-.797-.156-.188-.383-.281-.672-.281-.293 0-.516.093-.672.28-.156.18-.234.438-.234.782V0H3.953v-6.281c0-.352-.086-.617-.25-.797-.156-.188-.383-.281-.672-.281-.281 0-.5.093-.656.28-.156.18-.234.438-.234.782V0Zm0 0" id="M"/>
        <path d="M1.39 2.703V-8.25h1.36v1.578h.016c.062-.539.296-.96.703-1.266.406-.312.922-.468 1.547-.468.82 0 1.476.277 1.968.828.5.543.75 1.289.75 2.234v2.422c0 .95-.25 1.7-.75 2.25-.492.555-1.148.828-1.968.828C4.39.156 3.875 0 3.469-.313c-.399-.312-.633-.734-.703-1.265h-.047L2.75.297v2.406Zm3.173-3.719c.57 0 1.019-.171 1.343-.515.32-.344.485-.832.485-1.469v-2.25c0-.633-.164-1.125-.485-1.469-.324-.343-.773-.515-1.343-.515-.555 0-.997.18-1.329.53-.324.345-.484.829-.484 1.454V-3c0 .625.16 1.117.484 1.469.332.343.774.515 1.329.515Zm0 0" id="N"/>
        <path d="M5.703 0c-.73 0-1.312-.21-1.75-.64-.437-.426-.656-.989-.656-1.688v-7.39H.453v-1.235h4.203v8.625c0 .344.094.617.282.812.187.188.44.282.765.282H8.25V0Zm0 0" id="O"/>
        <path d="M1.375 0v-8.25h1.36v1.578h.015c.063-.55.281-.976.656-1.281.383-.3.895-.453 1.531-.453.833 0 1.493.258 1.985.765.488.512.734 1.211.734 2.094V0h-1.36v-5.406c0-.582-.155-1.032-.468-1.344-.312-.32-.742-.484-1.281-.484-.563 0-1.008.171-1.328.515-.324.344-.485.836-.485 1.469V0Zm0 0" id="aa"/>
        <path d="M7.719-.969 1.28-4.203v-1.5L7.72-8.922v1.297l-4.64 2.281a5.867 5.867 0 0 1-.532.235 3.71 3.71 0 0 1-.375.125c.094.023.223.07.39.14.165.063.336.137.516.219l4.64 2.297Zm0 0" id="ab"/>
        <path d="M4.5.156c-.375 0-.68-.11-.906-.328-.23-.226-.344-.523-.344-.89 0-.395.113-.708.344-.938.226-.227.531-.344.906-.344s.676.117.906.344c.227.23.344.543.344.938 0 .367-.117.664-.344.89-.23.219-.531.328-.906.328Zm0 0" id="ac"/>
        <path d="M1.281-.969V-2.28l4.64-2.281c.188-.083.364-.157.532-.22.164-.07.29-.116.375-.14a4.242 4.242 0 0 1-.906-.36l-4.64-2.296v-1.344l6.437 3.219v1.5Zm0 0" id="ad"/>
        <path d="M7.281 1.797C5.851 1.453 4.742.766 3.953-.266c-.781-1.03-1.172-2.289-1.172-3.78V-6.75c0-.977.18-1.863.547-2.656.363-.801.879-1.473 1.547-2.016.676-.55 1.477-.941 2.406-1.172v1.266a3.744 3.744 0 0 0-1.672.875 4.209 4.209 0 0 0-1.093 1.578c-.262.625-.391 1.336-.391 2.125v2.703c0 .774.125 1.477.375 2.11A4.181 4.181 0 0 0 5.594-.375C6.07.031 6.633.313 7.28.469Zm0 0" id="ae"/>
        <path d="M2.422 2.703V1.47h2.625c.8 0 1.203-.39 1.203-1.172V-.75l.031-1.5H6.25c-.043.531-.262.953-.656 1.266-.399.304-.907.453-1.532.453-.843 0-1.515-.274-2.015-.828-.492-.551-.735-1.297-.735-2.235v-1.75c0-.937.243-1.68.735-2.234.5-.55 1.172-.828 2.015-.828.625 0 1.133.156 1.532.469.394.312.613.734.656 1.265h.016V-8.25h1.343V.297c0 .738-.23 1.32-.687 1.75-.461.437-1.09.656-1.89.656Zm2.047-4.39c.562 0 1-.176 1.312-.532.32-.351.485-.836.485-1.453V-5.25c0-.625-.164-1.11-.485-1.453-.312-.352-.75-.531-1.312-.531-.574 0-1.016.171-1.328.515-.313.344-.47.836-.47 1.469v1.578c0 .637.157 1.125.47 1.469.312.344.754.515 1.328.515Zm0 0" id="af"/>
        <path d="m2.469 2.406 1.203-4.672h1.953L3.672 2.406Zm0 0" id="ag"/>
        <path d="m2.719-1.406-1.078-.75.796-1.172c.208-.281.454-.555.735-.828.289-.282.547-.508.765-.688l-.03-.11c-.282-.019-.622-.054-1.016-.109a5.46 5.46 0 0 1-1.047-.265L.53-5.812.97-7.048l1.328.484c.32.106.648.266.984.485.344.21.63.402.86.578l.078-.063a35.57 35.57 0 0 1-.25-1.03 5.558 5.558 0 0 1-.125-1.126v-1.437h1.312v1.437c0 .336-.047.711-.14 1.125-.086.407-.168.75-.25 1.032l.078.062c.226-.176.515-.367.86-.578a4.57 4.57 0 0 1 .984-.484l1.343-.485.438 1.234-1.328.485a5.536 5.536 0 0 1-1.047.266c-.375.054-.711.09-1 .109l-.047.125c.226.18.484.406.766.687.28.274.519.543.718.813l.813 1.172-1.078.75-.829-1.172a5.294 5.294 0 0 1-.515-.953 16.52 16.52 0 0 1-.375-.969h-.11a16.52 16.52 0 0 1-.375.969 4.865 4.865 0 0 1-.53.953Zm0 0" id="ah"/>
        <path d="M3.61 0 .75-8.25h1.39l1.922 5.547c.114.336.208.652.282.953.082.305.144.543.187.719.051-.176.11-.414.172-.719.07-.3.164-.617.281-.953l1.86-5.547H8.25L5.39 0Zm0 0" id="ai"/>
        <path d="M3.078 1.656v-14.11H6.75v1.204H4.422V.453H6.75v1.203Zm0 0" id="aj"/>
        <path d="M2.25 1.656V.453h2.328V-11.25H2.25v-1.203h3.672v14.11Zm0 0" id="ak"/>
        <path d="M1.719 1.797V.469a3.915 3.915 0 0 0 1.687-.844 4.061 4.061 0 0 0 1.078-1.563c.258-.632.391-1.335.391-2.109V-6.75c0-.79-.133-1.5-.39-2.125a4.254 4.254 0 0 0-1.094-1.578 3.765 3.765 0 0 0-1.672-.875v-1.266c.937.23 1.738.621 2.406 1.172a5.556 5.556 0 0 1 1.547 2.016c.363.793.547 1.68.547 2.656v2.703c0 1.492-.399 2.75-1.188 3.781C4.25.766 3.145 1.454 1.72 1.797Zm0 0" id="al"/>
        <path d="M6.906 1.656c-.886 0-1.59-.218-2.11-.656-.523-.438-.745-1.05-.671-1.844l.219-2.453c.05-.531-.024-.91-.219-1.14-.2-.239-.625-.36-1.281-.36H1.125V-6h1.719c.656 0 1.082-.113 1.281-.344.195-.238.27-.625.219-1.156l-.219-2.453c-.074-.79.148-1.406.672-1.844.52-.437 1.223-.656 2.11-.656h.671v1.203h-.672c-.48 0-.851.11-1.11.328-.25.211-.359.531-.327.969L5.703-7.5c.05.574-.062 1.04-.344 1.39-.273.356-.656.575-1.156.657.5.086.883.324 1.156.719.282.386.395.867.344 1.437L5.47-.844c-.032.438.078.762.328.969.258.219.629.328 1.11.328h.671v1.203Zm0 0" id="am"/>
        <path d="M3.297 0v-6.188H.907v-1.234h2.39v-1.422c0-.656.203-1.172.61-1.547.413-.375.984-.562 1.702-.562h2.422v1.234H5.61c-.636 0-.953.293-.953.875v1.422h3.375v1.234H4.656V0Zm0 0" id="an"/>
        <path d="M1.281-6.156v-1.188H7.72v1.188Zm0 3.61V-3.75H7.72v1.203Zm0 0" id="ao"/>
        <path d="M4.5.156c-1.012 0-1.813-.289-2.406-.875-.594-.594-.89-1.379-.89-2.36v-4.796c0-.977.296-1.758.89-2.344.594-.582 1.394-.875 2.406-.875 1.008 0 1.813.293 2.406.875.594.586.89 1.367.89 2.344v4.797c0 .656-.136 1.23-.405 1.719-.274.48-.657.855-1.157 1.125-.492.257-1.07.39-1.734.39ZM4.5-1c.602 0 1.086-.191 1.453-.578.363-.383.547-.883.547-1.5v-4.797c0-.613-.184-1.11-.547-1.484-.367-.383-.851-.579-1.453-.579-.605 0-1.09.196-1.453.579-.367.375-.547.87-.547 1.484v4.797c0 .617.18 1.117.547 1.5C3.41-1.191 3.895-1 4.5-1Zm0-3.594c-.273 0-.492-.082-.656-.25-.168-.164-.25-.39-.25-.672 0-.27.082-.488.25-.656.164-.164.383-.25.656-.25.27 0 .488.086.656.25.164.168.25.387.25.656 0 .282-.086.508-.25.672-.168.168-.386.25-.656.25Zm0 0" id="ap"/>
        <path d="M4.344-6.156a1.12 1.12 0 0 1-.813-.313c-.21-.207-.312-.476-.312-.812 0-.313.11-.578.328-.797.219-.219.484-.328.797-.328h.312c.313 0 .578.11.797.328.219.219.328.484.328.797 0 .336-.11.605-.328.812-.21.211-.476.313-.797.313ZM2.547 2.406 3.75-2.266h1.953L3.75 2.406Zm0 0" id="aq"/>
        <path d="m5.469-6.453-.172-3.14v-1.36H6.75v1.36l-.172 3.14Zm-3.032 0-.187-3.14v-1.36h1.453v1.36l-.156 3.14Zm0 0" id="ar"/>
        <path d="M2.328-6C1.691-6 1.18-6.176.797-6.531c-.375-.364-.563-.864-.563-1.5V-9c0-.625.188-1.117.563-1.484.383-.364.894-.547 1.531-.547.625 0 1.125.183 1.5.547.383.367.578.859.578 1.484v.969c0 .636-.195 1.136-.578 1.5-.375.355-.875.531-1.5.531ZM.203 0l7.484-10.953h1.11L1.312 0Zm2.125-7.016c.645 0 .969-.336.969-1.015V-9c0-.664-.324-1-.969-1-.656 0-.984.336-.984 1v.969c0 .68.328 1.015.984 1.015ZM6.672.078c-.625 0-1.133-.176-1.516-.531-.375-.363-.562-.863-.562-1.5v-.969c0-.633.187-1.129.562-1.484.383-.364.89-.547 1.516-.547.633 0 1.14.183 1.516.547.382.355.578.851.578 1.484v.969c0 .637-.196 1.137-.579 1.5-.374.355-.882.531-1.515.531Zm0-1.031c.656 0 .984-.332.984-1v-.969c0-.676-.328-1.015-.984-1.015-.649 0-.969.34-.969 1.015v.969c0 .668.32 1 .969 1Zm0 0" id="as"/>
        <path d="m6.453 1.656-5.328-14.11h1.422l5.328 14.11Zm0 0" id="at"/>
        <path d="M1.422 1.656V.453h.672c.476 0 .844-.11 1.094-.328.257-.207.374-.531.343-.969l-.234-2.453c-.055-.57.055-1.055.328-1.453.281-.395.672-.633 1.172-.719-.5-.082-.89-.297-1.172-.64-.273-.352-.383-.817-.328-1.391l.234-2.453c.031-.438-.086-.758-.344-.969-.25-.219-.617-.328-1.093-.328h-.672v-1.203h.672c.894 0 1.601.219 2.125.656.52.438.738 1.055.656 1.844L4.656-7.5c-.043.531.032.918.219 1.156.195.23.625.344 1.281.344h1.719v1.203H6.156c-.648 0-1.07.121-1.265.36-.2.23-.278.609-.235 1.14l.219 2.453C4.957-.05 4.738.562 4.219 1c-.524.438-1.23.656-2.125.656Zm0 0" id="au"/>
        <path d="M1.375 0v-10.953h2.844c.707 0 1.316.137 1.828.406.52.274.922.652 1.203 1.14.29.493.438 1.071.438 1.735v4.375c0 .668-.149 1.25-.438 1.75a2.875 2.875 0 0 1-1.203 1.14C5.535-.132 4.926 0 4.219 0Zm1.36-1.203h1.484c.656 0 1.172-.18 1.547-.547.375-.375.562-.89.562-1.547v-4.375c0-.644-.187-1.148-.562-1.516-.375-.374-.891-.562-1.547-.562H2.734Zm0 0" id="ax"/>
        <path d="M2.094-4.344v-1.203h4.812v1.203Zm0 0" id="aA"/>
        <path d="M1.344 0v-1.234h2.968v-8.594L1.345-7.61v-1.5l2.484-1.844h1.844v9.719h2.422V0Zm0 0" id="aB"/>
        <path d="M.594 0 3.75-5.547.766-10.953h1.562l1.688 3.25c.093.168.187.351.28.547.095.187.173.34.235.453.051-.113.125-.266.219-.453.094-.196.188-.38.281-.547l1.719-3.25h1.484L5.25-5.641 8.406 0H6.86L4.984-3.484a9.092 9.092 0 0 1-.5-1.016 10.978 10.978 0 0 1-.5 1L2.094 0Zm0 0" id="aC"/>
        <path d="M1.375 0v-1.328l3.5-3.813c.52-.562.895-1.062 1.125-1.5.238-.445.36-.879.36-1.296 0-.594-.18-1.067-.532-1.422-.344-.364-.82-.547-1.422-.547-.605 0-1.086.183-1.437.547-.356.367-.531.859-.531 1.484h-1.36c.031-.988.344-1.77.938-2.344.601-.582 1.398-.875 2.39-.875 1.008 0 1.813.29 2.407.86.593.562.89 1.336.89 2.312 0 .524-.152 1.07-.453 1.64-.305.563-.793 1.22-1.469 1.97l-2.86 3.078h4.97V0Zm0 0" id="aD"/>
        <path d="M4.328.156c-.656 0-1.234-.133-1.734-.39a2.887 2.887 0 0 1-1.14-1.11C1.18-1.82 1.046-2.375 1.046-3h1.36c0 .617.171 1.094.515 1.438.344.343.816.515 1.422.515.625 0 1.101-.176 1.437-.531.344-.363.516-.836.516-1.422v-.75c0-.625-.172-1.102-.516-1.438-.336-.343-.812-.515-1.437-.515H3.172v-1.172l2.61-2.844H1.5v-1.234h5.813v1.265L4.733-6.89c.895.075 1.602.391 2.125.954.532.562.797 1.292.797 2.187V-3c0 .625-.14 1.18-.422 1.656-.273.469-.656.84-1.156 1.11-.5.257-1.086.39-1.75.39Zm0 0" id="aE"/>
        <path d="m3 0 2.938-5.063-.063-.03c-.18.273-.434.484-.766.64-.324.156-.703.234-1.14.234-.594 0-1.121-.14-1.578-.422a2.942 2.942 0 0 1-1.063-1.171c-.25-.5-.375-1.079-.375-1.735 0-.707.145-1.328.438-1.86.3-.538.718-.956 1.25-1.25.53-.288 1.144-.437 1.843-.437.707 0 1.329.149 1.86.438.539.293.957.699 1.25 1.219.3.523.453 1.132.453 1.828 0 .48-.094.976-.281 1.484-.18.5-.422 1.027-.735 1.578L4.5 0Zm1.5-5.25c.645 0 1.172-.21 1.578-.64.406-.426.61-.989.61-1.688 0-.695-.204-1.258-.61-1.688-.406-.425-.933-.64-1.578-.64-.648 0-1.172.215-1.578.64-.406.43-.61.993-.61 1.688 0 .7.204 1.262.61 1.687.406.43.93.641 1.578.641Zm0 0" id="aF"/>
        <path d="M3.563 0v-9.25H.687v-1.703h7.625v1.703H5.438V0Zm0 0" id="h"/>
        <path d="M4.516.156c-.7 0-1.309-.136-1.829-.406A2.979 2.979 0 0 1 1.47-1.375c-.282-.488-.422-1.063-.422-1.719v-2.062c0-.657.14-1.223.422-1.703.289-.489.695-.868 1.218-1.141.52-.27 1.13-.406 1.829-.406.687 0 1.285.136 1.796.406.52.273.922.652 1.204 1.14.289.481.437 1.048.437 1.704v1.484H2.86v.578c0 1.18.555 1.766 1.672 1.766.852 0 1.36-.285 1.516-.86H7.89C7.754-1.477 7.375-.91 6.75-.484c-.617.43-1.36.64-2.234.64ZM2.859-5.156v.312l3.282-.015v-.313c0-.57-.137-1.008-.407-1.312-.273-.301-.68-.454-1.218-.454-.555 0-.97.157-1.25.47-.274.304-.407.741-.407 1.312Zm0 0" id="i"/>
        <path d="M4.188.14c-.637 0-1.196-.1-1.672-.296-.48-.196-.856-.473-1.125-.828C1.129-1.348 1-1.774 1-2.266h1.89c0 .293.114.516.344.672.239.157.563.235.97.235h.64c.468 0 .816-.082 1.047-.25a.862.862 0 0 0 .343-.72c0-.57-.421-.921-1.265-1.046l-1.157-.156C2.083-3.781 1.22-4.601 1.22-6c0-.781.258-1.375.781-1.781.531-.407 1.297-.61 2.297-.61h.562c.926 0 1.672.211 2.235.625.57.418.86.965.86 1.641H6.062a.642.642 0 0 0-.313-.563c-.21-.132-.512-.203-.906-.203H4.28c-.824 0-1.234.297-1.234.891 0 .512.363.824 1.094.938l1.171.171c.926.137 1.614.407 2.063.813.457.406.688.976.688 1.703 0 .793-.274 1.414-.813 1.86-.543.437-1.344.656-2.406.656Zm0 0" id="j"/>
        <path d="M5.406 0C4.633 0 4.02-.219 3.563-.656c-.461-.446-.688-1.051-.688-1.813v-4.094H.641V-8.25h2.234v-2.328h1.89v2.328h3.173v1.688H4.765v4.046c0 .243.066.438.203.594.133.156.32.234.562.234h2.25V0Zm0 0" id="k"/>
        <path d="m2.844-1.313-1.375-.953.61-.89c.155-.207.343-.414.562-.625.218-.219.441-.414.671-.594.227-.188.426-.336.594-.453l-.031-.094c-.21 0-.46-.008-.75-.031-.293-.031-.59-.067-.89-.11a3.125 3.125 0 0 1-.782-.203l-1-.359.578-1.594 1 .36c.239.093.489.218.75.375.258.156.504.32.735.484.238.168.437.324.593.469l.079-.063a29.463 29.463 0 0 1-.22-.718c-.085-.29-.155-.594-.218-.907a4.345 4.345 0 0 1-.094-.843v-1.094h1.688v1.094c0 .25-.032.53-.094.843-.063.313-.137.617-.219.907-.086.28-.164.523-.234.718l.078.047c.156-.133.348-.285.578-.453.238-.164.488-.328.75-.484.258-.157.508-.282.75-.375l1.016-.36.578 1.594-1.016.36A4.464 4.464 0 0 1 6.297-5c-.461.043-.852.07-1.172.078l-.031.094c.164.117.36.266.578.453.226.188.453.387.672.594.218.21.406.418.562.625l.61.89-1.375.954-.625-.875a4.161 4.161 0 0 1-.407-.735c-.125-.289-.234-.578-.328-.86l-.234-.702h-.094l-.234.703c-.094.281-.203.57-.328.86a3.737 3.737 0 0 1-.422.733Zm0 0" id="x"/>
        <path d="M1.156 0v-10.953h1.875v4.39H5.97v-4.39h1.875V0H5.969v-4.86H3.03V0Zm0 0" id="y"/>
        <path d="M3.578.156c-.844 0-1.512-.222-2-.672C1.086-.96.844-1.57.844-2.344c0-.812.273-1.437.828-1.875.562-.445 1.344-.672 2.344-.672H6v-.687c0-.406-.133-.719-.39-.938-.262-.218-.626-.328-1.094-.328-.43 0-.782.094-1.063.282-.273.18-.422.417-.453.718H1.219c.039-.77.367-1.39.984-1.86.613-.468 1.406-.702 2.375-.702 1.02 0 1.82.25 2.406.75.594.5.891 1.187.891 2.062V0H6.062v-1.39h-.03a1.85 1.85 0 0 1-.813 1.14c-.43.27-.977.406-1.64.406Zm.625-1.406c.531 0 .961-.129 1.297-.39.332-.27.5-.626.5-1.063v-.985H4.062c-.417 0-.746.11-.984.329-.242.21-.36.5-.36.875 0 .386.13.687.391.906.27.219.633.328 1.094.328Zm0 0" id="z"/>
        <path d="M3.75.156c-.805 0-1.453-.285-1.953-.86-.5-.57-.75-1.335-.75-2.296v-2.234c0-.97.242-1.739.734-2.313.5-.57 1.157-.86 1.969-.86.57 0 1.05.15 1.438.438.394.282.664.684.812 1.203h.031L5.97-8.64v-2.312h1.875V0H6.016v-1.484H6c-.148.523-.414.93-.797 1.218-.387.282-.871.422-1.453.422Zm.703-1.625c.477 0 .848-.144 1.11-.437.269-.29.406-.703.406-1.235v-1.968c0-.532-.137-.942-.407-1.235-.261-.289-.632-.437-1.109-.437-.48 0-.855.14-1.125.422-.273.28-.406.683-.406 1.203v2.062c0 .524.133.922.406 1.203.27.282.645.422 1.125.422Zm0 0" id="A"/>
        <path d="M1.14 0v-1.688h2.813v-4.875H1.438V-8.25h4.39v6.563h2.547V0Zm3.626-9.625c-.375 0-.68-.098-.907-.297-.218-.195-.328-.457-.328-.781 0-.332.11-.598.328-.797.227-.195.532-.297.907-.297s.671.102.89.297c.227.2.344.465.344.797a.985.985 0 0 1-.344.781c-.218.2-.515.297-.89.297Zm0 0" id="B"/>
        <path d="M1.156 0v-8.25h1.828v1.578h.032c.093-.539.328-.96.703-1.266.383-.312.879-.468 1.484-.468.813 0 1.457.273 1.938.812.488.543.734 1.266.734 2.172V0H6v-5.219c0-.5-.137-.883-.406-1.156-.262-.27-.617-.406-1.063-.406-.468 0-.84.14-1.11.422-.26.28-.39.683-.39 1.203V0Zm0 0" id="C"/>
        <path d="M2.281 2.703V1.141H4.72c.843 0 1.265-.399 1.265-1.188v-.61l.032-1.546h-.032c-.086.543-.32.965-.703 1.265-.375.305-.86.454-1.453.454-.844 0-1.515-.282-2.015-.844-.493-.57-.735-1.344-.735-2.313V-5.25c0-.957.242-1.723.734-2.297.5-.57 1.172-.86 2.016-.86.594 0 1.078.157 1.453.47.383.304.617.726.703 1.265h.032L5.969-8.25h1.875V0c0 .844-.278 1.504-.828 1.984-.555.477-1.309.72-2.266.72Zm2.172-4.797c.477 0 .848-.14 1.11-.422.269-.289.406-.691.406-1.203v-1.437c0-.508-.137-.907-.407-1.188-.261-.289-.632-.437-1.109-.437-.48 0-.851.14-1.11.422-.261.28-.39.683-.39 1.203v1.437c0 .524.129.922.39 1.203.259.282.63.422 1.11.422Zm0 0" id="D"/>
        <path d="M1.266 0v-1.688h2.843V-9.28L1.25-7.156v-1.985l2.516-1.812h2.218v9.265h2.297V0Zm0 0" id="E"/>
        <path d="M1.188 0v-1.703L4.89-5.547c.375-.406.656-.781.843-1.125.188-.351.282-.707.282-1.062 0-.532-.149-.942-.438-1.235-.293-.3-.683-.453-1.172-.453-.511 0-.914.156-1.203.469-.293.305-.437.726-.437 1.265H.89C.898-8.395 1.05-9 1.344-9.5c.289-.508.695-.898 1.218-1.172.532-.281 1.157-.422 1.876-.422 1.05 0 1.89.293 2.515.875.625.574.938 1.36.938 2.36 0 .586-.153 1.156-.454 1.718-.292.563-.761 1.172-1.406 1.829L3.484-1.688h4.547V0Zm0 0" id="aw"/>
        <path d="M1.203 0v-10.953h1.875v5.937h1.313L6.406-8.25h2.078L6-4.266 8.531 0H6.406L4.391-3.422H3.078V0Zm0 0" id="ay"/>
        <path d="M4.39.156c-.71 0-1.327-.133-1.859-.39a2.91 2.91 0 0 1-1.219-1.094C1.032-1.805.891-2.363.891-3h1.89c0 .492.14.875.422 1.156.281.274.68.407 1.203.407.52 0 .922-.141 1.203-.422.282-.282.422-.66.422-1.141v-.828c0-.488-.148-.867-.437-1.14-.282-.282-.68-.423-1.188-.423H3.125v-1.5L5.5-9.344H1.375v-1.61h6.156v1.548L5.11-6.937c.875.117 1.563.449 2.063 1 .5.554.75 1.257.75 2.109V-3c0 .637-.149 1.195-.438 1.672A2.928 2.928 0 0 1 6.25-.234c-.531.257-1.152.39-1.86.39Zm0 0" id="az"/>
        <path d="m.453 0 .828-2.406h-1l.11-.781h1.156l.812-2.391H1.203l.11-.781h1.312l.828-2.407h.875L3.5-6.359h1.875l.828-2.407h.875L6.25-6.359h1.016l-.125.78H5.984l-.812 2.391h1.172l-.125.782H4.906L4.078 0h-.875l.828-2.406H2.156L1.328 0Zm1.969-3.188h1.875l.812-2.39H3.234Zm0 0" id="P"/>
        <path d="m2.719-1.14.375-2.344H.797l.156-.954H3.25l.36-2.343h1.062l-.36 2.343h2.282l-.157.954h-2.28L3.78-1.141Zm0 0" id="Q"/>
        <path d="m.594 0 1.39-8.766H4.47c.789 0 1.379.204 1.765.61.395.398.536.953.422 1.672-.074.48-.25.882-.531 1.203a2.08 2.08 0 0 1-1.078.656c.445.137.773.398.984.781.207.375.27.844.188 1.406-.125.75-.453 1.344-.985 1.782C4.711-.22 4.051 0 3.25 0Zm1.844-5.031h1.421c.457 0 .836-.117 1.141-.36.313-.25.504-.586.578-1.015.063-.426-.023-.758-.25-1-.219-.25-.558-.375-1.016-.375H2.875ZM1.796-.97H3.28c.508 0 .93-.133 1.266-.406.332-.27.535-.633.61-1.094.07-.476-.016-.867-.266-1.172-.243-.3-.61-.453-1.11-.453H2.297Zm0 0" id="R"/>
        <path d="m.672 0 1.39-8.766H7.11l-.156.985H2.97l-.422 2.718h3.547l-.157.97H2.392l-.5 3.109h3.984L5.719 0Zm0 0" id="S"/>
        <path d="M3.094.125c-.805 0-1.403-.223-1.797-.672C.91-.992.78-1.613.907-2.407l.624-3.952c.133-.782.469-1.395 1-1.844.531-.445 1.196-.672 2-.672.782 0 1.364.227 1.75.672.395.45.535 1.062.422 1.844H5.61c.082-.5.016-.88-.203-1.141-.218-.27-.562-.406-1.031-.406-.48 0-.875.136-1.188.406-.304.262-.496.637-.578 1.125l-.625 3.969c-.074.5 0 .886.22 1.156.226.273.577.406 1.046.406.469 0 .852-.133 1.156-.406.313-.27.504-.656.578-1.156l.172-1.078H3.391l.156-.985H6.39l-.313 2.063a3.234 3.234 0 0 1-.531 1.36 2.824 2.824 0 0 1-1.031.874c-.418.195-.891.297-1.422.297Zm0 0" id="T"/>
        <path d="m.734 0 .157-.984h1.78L3.75-7.781H1.969l.156-.985h4.672l-.156.985H4.859L3.781-.984h1.781L5.407 0Zm0 0" id="U"/>
        <path d="m.547 0 1.39-8.766h1.438l1.5 7.5c.008-.195.023-.441.047-.734.031-.29.066-.598.11-.922.038-.32.081-.629.124-.922l.782-4.922h1.046L5.594 0H4.156L2.672-7.5c-.012.188-.031.43-.063.719-.03.293-.07.605-.109.937-.031.324-.074.633-.125.922L1.594 0Zm0 0" id="V"/>
        <path d="M0 1.203.14.297h5.766l-.14.906Zm0 0" id="W"/>
        <path d="M3.094.125c-.856 0-1.496-.21-1.922-.64C.754-.942.598-1.532.703-2.282h1.078c-.074.437.02.789.282 1.047.257.25.656.375 1.187.375.508 0 .926-.118 1.25-.36.32-.25.52-.593.594-1.031.05-.375.004-.691-.14-.953a1.191 1.191 0 0 0-.704-.563L3.125-4.14c-.563-.187-.98-.488-1.25-.906-.262-.426-.352-.926-.266-1.5.082-.476.254-.89.516-1.234a2.687 2.687 0 0 1 1.016-.813 3.258 3.258 0 0 1 1.406-.297c.77 0 1.351.215 1.75.641.394.43.539.996.437 1.703H5.656c.07-.426-.008-.758-.234-1-.219-.25-.563-.375-1.031-.375-.461 0-.84.117-1.141.344-.293.219-.469.531-.531.937-.063.368-.024.684.125.954.156.273.394.464.719.578l1.14.375c.55.187.953.5 1.203.937.258.43.348.934.266 1.516-.074.48-.258.902-.547 1.265a2.97 2.97 0 0 1-1.078.844c-.43.195-.914.297-1.453.297Zm0 0" id="X"/>
        <path d="m.578 0 1.39-8.766h2.72c.507 0 .94.11 1.296.329.364.21.625.5.782.874.156.375.191.82.109 1.329a2.848 2.848 0 0 1-.703 1.53 2.92 2.92 0 0 1-1.422.876L6.016 0H4.78l-1.14-3.719H2.25L1.656 0Zm1.828-4.688h1.625c.446 0 .828-.14 1.14-.421.321-.29.52-.664.595-1.125.07-.477-.008-.852-.235-1.125-.218-.282-.554-.422-1-.422h-1.64Zm0 0" id="Y"/>
        <path d="M3.094.125c-.805 0-1.403-.223-1.797-.672C.91-.992.78-1.613.907-2.407l.624-3.952c.133-.782.469-1.395 1-1.844.531-.445 1.196-.672 2-.672.782 0 1.364.227 1.75.672.395.45.535 1.062.422 1.844H5.61c.082-.5.016-.88-.203-1.141-.218-.27-.562-.406-1.031-.406-.48 0-.875.136-1.188.406-.304.262-.496.637-.578 1.125l-.625 3.969c-.074.5 0 .886.22 1.156.226.262.577.39 1.046.39.469 0 .852-.128 1.156-.39.313-.27.504-.656.578-1.156h1.094c-.137.781-.476 1.402-1.016 1.86-.53.448-1.187.671-1.968.671Zm0 0" id="Z"/>
        <path d="m.578 0 1.39-8.766h2.266c.852 0 1.489.243 1.907.72.425.48.578 1.12.453 1.921L6.03-2.641c-.074.532-.258 1-.547 1.407a2.988 2.988 0 0 1-1.109.921c-.45.211-.96.313-1.531.313Zm1.235-.953H3c.531 0 .969-.145 1.313-.438.351-.3.566-.718.64-1.25l.563-3.484c.082-.52-.008-.926-.266-1.219-.25-.3-.64-.453-1.172-.453H2.891Zm0 0" id="av"/>
    </defs>
    <path fill="#292929" style="stroke-width:.833333" d="M0 0h819v586H0z"/>
    <path fill="#292929" d="M125 376h9v23h-9ZM8 0h72v21H8Zm0 0"/>
    <g fill="#6F6F6F">
        <use xlink:href="#a" x="8" y="16"/>
        <use xlink:href="#b" x="17" y="16"/>
        <use xlink:href="#c" x="26" y="16"/>
        <use xlink:href="#d" x="35" y="16"/>
        <use xlink:href="#c" x="44" y="16"/>
        <use xlink:href="#e" x="53" y="16"/>
        <use xlink:href="#f" x="62" y="16"/>
        <use xlink:href="#g" x="71" y="16"/>
    </g>
    <path fill="#292929" d="M80 0h18v21H80ZM98 0h45v21H98Zm0 0"/>
    <g fill="#E7CC99">
        <use xlink:href="#h" x="98" y="16"/>
        <use xlink:href="#i" x="107" y="16"/>
        <use xlink:href="#j" x="116" y="16"/>
        <use xlink:href="#k" x="125" y="16"/>
        <use xlink:href="#l" x="134" y="16"/>
    </g>
    <path fill="#292929" d="M8 21h81v21H8Zm0 0"/>
    <g fill="#6F6F6F">
        <use xlink:href="#a" x="8" y="37"/>
        <use xlink:href="#b" x="17" y="37"/>
        <use xlink:href="#m" x="26" y="37"/>
        <use xlink:href="#n" x="35" y="37"/>
        <use xlink:href="#c" x="44" y="37"/>
        <use xlink:href="#o" x="53" y="37"/>
        <use xlink:href="#p" x="62" y="37"/>
        <use xlink:href="#q" x="71" y="37"/>
        <use xlink:href="#g" x="80" y="37"/>
    </g>
    <path fill="#292929" d="M89 21h9v21h-9ZM98 21h63v21H98Zm0 0"/>
    <g fill="#B49CE2">
        <use xlink:href="#m" x="98" y="37"/>
        <use xlink:href="#r" x="107" y="37"/>
        <use xlink:href="#s" x="116" y="37"/>
        <use xlink:href="#t" x="125" y="37"/>
        <use xlink:href="#u" x="134" y="37"/>
        <use xlink:href="#v" x="143" y="37"/>
        <use xlink:href="#w" x="152" y="37"/>
    </g>
    <path fill="#292929" d="M8 42h9v21H8ZM8 63h99v23H8Zm0 0"/>
    <g fill="#91B9E1">
        <use xlink:href="#x" x="8" y="81"/>
        <use xlink:href="#l" x="17" y="81"/>
        <use xlink:href="#y" x="26" y="81"/>
        <use xlink:href="#i" x="35" y="81"/>
        <use xlink:href="#z" x="44" y="81"/>
        <use xlink:href="#A" x="53" y="81"/>
        <use xlink:href="#B" x="62" y="81"/>
        <use xlink:href="#C" x="71" y="81"/>
        <use xlink:href="#D" x="80" y="81"/>
        <use xlink:href="#l" x="89" y="81"/>
        <use xlink:href="#E" x="98" y="81"/>
    </g>
    <path fill="#292929" d="M8 63h99v1H8ZM107 63h9v23h-9ZM8 86h216v21H8Zm0 0"/>
    <g fill="#D8D8D8">
        <use xlink:href="#c" x="8" y="102"/>
        <use xlink:href="#t" x="17" y="102"/>
        <use xlink:href="#F" x="26" y="102"/>
        <use xlink:href="#G" x="35" y="102"/>
        <use xlink:href="#w" x="44" y="102"/>
        <use xlink:href="#F" x="53" y="102"/>
        <use xlink:href="#G" x="62" y="102"/>
        <use xlink:href="#w" x="71" y="102"/>
        <use xlink:href="#H" x="80" y="102"/>
        <use xlink:href="#w" x="89" y="102"/>
        <use xlink:href="#I" x="98" y="102"/>
        <use xlink:href="#u" x="107" y="102"/>
        <use xlink:href="#J" x="116" y="102"/>
        <use xlink:href="#K" x="125" y="102"/>
        <use xlink:href="#w" x="134" y="102"/>
        <use xlink:href="#K" x="143" y="102"/>
        <use xlink:href="#L" x="152" y="102"/>
        <use xlink:href="#H" x="161" y="102"/>
        <use xlink:href="#M" x="170" y="102"/>
        <use xlink:href="#N" x="179" y="102"/>
        <use xlink:href="#O" x="188" y="102"/>
        <use xlink:href="#K" x="197" y="102"/>
        <use xlink:href="#g" x="206" y="102"/>
        <use xlink:href="#w" x="215" y="102"/>
    </g>
    <path fill="#373737" d="M8 107h803v202H8Zm0 0" style="stroke-width:9.86723"/>
    <use xlink:href="#P" x="8" y="120" fill="#6F6F6F"/>
    <use xlink:href="#Q" x="14.996" y="120" fill="#6F6F6F"/>
    <use xlink:href="#R" x="22.004" y="120" fill="#6F6F6F"/>
    <use xlink:href="#S" x="29" y="120" fill="#6F6F6F"/>
    <use xlink:href="#T" x="35.996" y="120" fill="#6F6F6F"/>
    <use xlink:href="#U" x="43.004" y="120" fill="#6F6F6F"/>
    <use xlink:href="#V" x="50" y="120" fill="#6F6F6F"/>
    <use xlink:href="#W" x="56.996" y="120" fill="#6F6F6F"/>
    <use xlink:href="#X" x="64.004" y="120" fill="#6F6F6F"/>
    <use xlink:href="#Y" x="71" y="120" fill="#6F6F6F"/>
    <use xlink:href="#Z" x="77.996" y="120" fill="#6F6F6F"/>
    <use xlink:href="#Z" x="92" y="120" fill="#6F6F6F"/>
    <g fill="#72ACE5">
        <use xlink:href="#a" x="26" y="140"/>
        <use xlink:href="#F" x="35" y="140"/>
        <use xlink:href="#aa" x="44" y="140"/>
        <use xlink:href="#I" x="53" y="140"/>
        <use xlink:href="#O" x="62" y="140"/>
        <use xlink:href="#r" x="71" y="140"/>
        <use xlink:href="#J" x="80" y="140"/>
        <use xlink:href="#K" x="89" y="140"/>
    </g>
    <g fill="#9ECA72">
        <use xlink:href="#ab" x="107" y="140"/>
        <use xlink:href="#G" x="116" y="140"/>
        <use xlink:href="#s" x="125" y="140"/>
        <use xlink:href="#J" x="134" y="140"/>
        <use xlink:href="#F" x="143" y="140"/>
        <use xlink:href="#u" x="152" y="140"/>
        <use xlink:href="#ac" x="161" y="140"/>
        <use xlink:href="#t" x="170" y="140"/>
        <use xlink:href="#ad" x="179" y="140"/>
    </g>
    <g fill="#B49CE2">
        <use xlink:href="#F" x="26" y="182"/>
        <use xlink:href="#aa" x="35" y="182"/>
        <use xlink:href="#s" x="44" y="182"/>
    </g>
    <g fill="#E59E8D">
        <use xlink:href="#M" x="62" y="182"/>
        <use xlink:href="#H" x="71" y="182"/>
        <use xlink:href="#F" x="80" y="182"/>
        <use xlink:href="#aa" x="89" y="182"/>
    </g>
    <use xlink:href="#ae" x="98" y="182" fill="#898989"/>
    <g fill="#B49CE2">
        <use xlink:href="#F" x="107" y="182"/>
        <use xlink:href="#aa" x="116" y="182"/>
        <use xlink:href="#s" x="125" y="182"/>
    </g>
    <g fill="#E7CC99">
        <use xlink:href="#H" x="143" y="182"/>
        <use xlink:href="#v" x="152" y="182"/>
        <use xlink:href="#af" x="161" y="182"/>
        <use xlink:href="#I" x="170" y="182"/>
    </g>
    <use xlink:href="#ag" x="179" y="182" fill="#898989"/>
    <g fill="#B49CE2">
        <use xlink:href="#I" x="197" y="182"/>
        <use xlink:href="#t" x="206" y="182"/>
        <use xlink:href="#H" x="215" y="182"/>
        <use xlink:href="#v" x="224" y="182"/>
    </g>
    <use xlink:href="#ah" x="242" y="182" fill="#72ACE5"/>
    <g fill="#D8D8D8">
        <use xlink:href="#H" x="251" y="182"/>
        <use xlink:href="#v" x="260" y="182"/>
        <use xlink:href="#af" x="269" y="182"/>
        <use xlink:href="#ai" x="278" y="182"/>
    </g>
    <g fill="#898989">
        <use xlink:href="#aj" x="287" y="182"/>
        <use xlink:href="#ak" x="296" y="182"/>
        <use xlink:href="#al" x="305" y="182"/>
    </g>
    <use xlink:href="#am" x="323" y="182" fill="#898989"/>
    <g fill="#72ACE5">
        <use xlink:href="#an" x="71" y="203"/>
        <use xlink:href="#u" x="80" y="203"/>
        <use xlink:href="#v" x="89" y="203"/>
    </g>
    <use xlink:href="#ae" x="107" y="203" fill="#898989"/>
    <g fill="#B49CE2">
        <use xlink:href="#F" x="116" y="203"/>
        <use xlink:href="#aa" x="125" y="203"/>
        <use xlink:href="#s" x="134" y="203"/>
    </g>
    <use xlink:href="#F" x="152" y="203" fill="#E7CC99"/>
    <use xlink:href="#ao" x="170" y="203" fill="#72ACE5"/>
    <use xlink:href="#ap" x="188" y="203" fill="#AAC4DE"/>
    <use xlink:href="#aq" x="197" y="203" fill="#898989"/>
    <g fill="#D8D8D8">
        <use xlink:href="#w" x="206" y="203"/>
        <use xlink:href="#F" x="215" y="203"/>
        <use xlink:href="#w" x="224" y="203"/>
    </g>
    <use xlink:href="#ab" x="233" y="203" fill="#72ACE5"/>
    <g fill="#D8D8D8">
        <use xlink:href="#w" x="242" y="203"/>
        <use xlink:href="#H" x="251" y="203"/>
        <use xlink:href="#v" x="260" y="203"/>
        <use xlink:href="#af" x="269" y="203"/>
        <use xlink:href="#I" x="278" y="203"/>
    </g>
    <use xlink:href="#aq" x="287" y="203" fill="#898989"/>
    <use xlink:href="#F" x="305" y="203" fill="#E7CC99"/>
    <g fill="#72ACE5">
        <use xlink:href="#b" x="314" y="203"/>
        <use xlink:href="#b" x="323" y="203"/>
    </g>
    <use xlink:href="#al" x="332" y="203" fill="#898989"/>
    <use xlink:href="#am" x="350" y="203" fill="#898989"/>
    <g fill="#E59E8D">
        <use xlink:href="#N" x="116" y="224"/>
        <use xlink:href="#v" x="125" y="224"/>
        <use xlink:href="#F" x="134" y="224"/>
        <use xlink:href="#aa" x="143" y="224"/>
        <use xlink:href="#s" x="152" y="224"/>
        <use xlink:href="#an" x="161" y="224"/>
    </g>
    <use xlink:href="#ae" x="170" y="224" fill="#898989"/>
    <g fill="#9ECA72">
        <use xlink:href="#ar" x="179" y="224"/>
        <use xlink:href="#H" x="188" y="224"/>
        <use xlink:href="#v" x="197" y="224"/>
        <use xlink:href="#af" x="206" y="224"/>
        <use xlink:href="#w" x="215" y="224"/>
        <use xlink:href="#as" x="224" y="224"/>
        <use xlink:href="#J" x="233" y="224"/>
        <use xlink:href="#g" x="242" y="224"/>
        <use xlink:href="#w" x="251" y="224"/>
        <use xlink:href="#as" x="260" y="224"/>
        <use xlink:href="#G" x="269" y="224"/>
        <use xlink:href="#at" x="278" y="224"/>
        <use xlink:href="#aa" x="287" y="224"/>
        <use xlink:href="#ar" x="296" y="224"/>
    </g>
    <use xlink:href="#ag" x="305" y="224" fill="#898989"/>
    <g fill="#D8D8D8">
        <use xlink:href="#w" x="314" y="224"/>
        <use xlink:href="#F" x="323" y="224"/>
    </g>
    <use xlink:href="#ag" x="332" y="224" fill="#898989"/>
    <g fill="#D8D8D8">
        <use xlink:href="#w" x="341" y="224"/>
        <use xlink:href="#H" x="350" y="224"/>
        <use xlink:href="#v" x="359" y="224"/>
        <use xlink:href="#af" x="368" y="224"/>
        <use xlink:href="#ai" x="377" y="224"/>
    </g>
    <use xlink:href="#aj" x="386" y="224" fill="#898989"/>
    <use xlink:href="#F" x="395" y="224" fill="#D8D8D8"/>
    <g fill="#898989">
        <use xlink:href="#ak" x="404" y="224"/>
        <use xlink:href="#al" x="413" y="224"/>
        <use xlink:href="#aq" x="422" y="224"/>
    </g>
    <use xlink:href="#au" x="71" y="245" fill="#898989"/>
    <g fill="#72ACE5">
        <use xlink:href="#v" x="71" y="266"/>
        <use xlink:href="#K" x="80" y="266"/>
        <use xlink:href="#s" x="89" y="266"/>
        <use xlink:href="#r" x="98" y="266"/>
        <use xlink:href="#v" x="107" y="266"/>
        <use xlink:href="#aa" x="116" y="266"/>
    </g>
    <use xlink:href="#ap" x="134" y="266" fill="#AAC4DE"/>
    <use xlink:href="#aq" x="143" y="266" fill="#898989"/>
    <use xlink:href="#au" x="26" y="287" fill="#898989"/>
    <use xlink:href="#P" x="8" y="305" fill="#6F6F6F"/>
    <use xlink:href="#Q" x="14.996" y="305" fill="#6F6F6F"/>
    <use xlink:href="#S" x="22.004" y="305" fill="#6F6F6F"/>
    <use xlink:href="#V" x="29" y="305" fill="#6F6F6F"/>
    <use xlink:href="#av" x="35.996" y="305" fill="#6F6F6F"/>
    <use xlink:href="#W" x="43.004" y="305" fill="#6F6F6F"/>
    <use xlink:href="#X" x="50" y="305" fill="#6F6F6F"/>
    <use xlink:href="#Y" x="56.996" y="305" fill="#6F6F6F"/>
    <use xlink:href="#Z" x="64.004" y="305" fill="#6F6F6F"/>
    <path fill="#292929" d="M8 309h9v21H8ZM8 330h99v23H8Zm0 0"/>
    <g fill="#91B9E1">
        <use xlink:href="#x" x="8" y="348"/>
        <use xlink:href="#l" x="17" y="348"/>
        <use xlink:href="#y" x="26" y="348"/>
        <use xlink:href="#i" x="35" y="348"/>
        <use xlink:href="#z" x="44" y="348"/>
        <use xlink:href="#A" x="53" y="348"/>
        <use xlink:href="#B" x="62" y="348"/>
        <use xlink:href="#C" x="71" y="348"/>
        <use xlink:href="#D" x="80" y="348"/>
        <use xlink:href="#l" x="89" y="348"/>
        <use xlink:href="#aw" x="98" y="348"/>
    </g>
    <path fill="#292929" d="M8 330h99v1H8ZM107 330h9v23h-9ZM8 353h27v23H8Zm0 0"/>
    <g fill="#BFAEDF">
        <use xlink:href="#x" x="8" y="371"/>
        <use xlink:href="#x" x="17" y="371"/>
        <use xlink:href="#l" x="26" y="371"/>
    </g>
    <path fill="#292929" d="M8 353h27v1H8Zm0 0"/>
    <path d="M35 354v22h36v-22H35z" style="fill:#584642;fill-opacity:1"/>
    <g fill="#E59E8D">
        <use xlink:href="#c" x="35" y="371"/>
        <use xlink:href="#p" x="44" y="371"/>
        <use xlink:href="#ax" x="53" y="371"/>
        <use xlink:href="#p" x="62" y="371"/>
    </g>
    <path fill="#292929" d="M71 353h54v23H71Zm0 0"/>
    <g fill="#BFAEDF">
        <use xlink:href="#l" x="71" y="371"/>
        <use xlink:href="#h" x="80" y="371"/>
        <use xlink:href="#z" x="89" y="371"/>
        <use xlink:href="#j" x="98" y="371"/>
        <use xlink:href="#ay" x="107" y="371"/>
        <use xlink:href="#E" x="116" y="371"/>
    </g>
    <path fill="#292929" d="M71 353h54v1H71ZM125 353h9v23h-9ZM8 376h27v23H8Zm0 0"/>
    <g fill="#BFAEDF">
        <use xlink:href="#x" x="8" y="394"/>
        <use xlink:href="#x" x="17" y="394"/>
        <use xlink:href="#l" x="26" y="394"/>
    </g>
    <path fill="#292929" d="M8 376h27v1H8Zm0 0"/>
    <path d="M35 377v22h36v-22H35z" style="fill:#584642;fill-opacity:1"/>
    <g fill="#E59E8D">
        <use xlink:href="#c" x="35" y="394"/>
        <use xlink:href="#p" x="44" y="394"/>
        <use xlink:href="#ax" x="53" y="394"/>
        <use xlink:href="#p" x="62" y="394"/>
    </g>
    <path fill="#292929" d="M71 376h54v23H71Zm0 0"/>
    <g fill="#BFAEDF">
        <use xlink:href="#l" x="71" y="394"/>
        <use xlink:href="#h" x="80" y="394"/>
        <use xlink:href="#z" x="89" y="394"/>
        <use xlink:href="#j" x="98" y="394"/>
        <use xlink:href="#ay" x="107" y="394"/>
        <use xlink:href="#aw" x="116" y="394"/>
    </g>
    <path fill="#292929" d="M71 376h54v1H71ZM125 376h9v23h-9ZM8 399h9v21H8ZM8 420h99v23H8Zm0 0"/>
    <g fill="#91B9E1">
        <use xlink:href="#x" x="8" y="438"/>
        <use xlink:href="#l" x="17" y="438"/>
        <use xlink:href="#y" x="26" y="438"/>
        <use xlink:href="#i" x="35" y="438"/>
        <use xlink:href="#z" x="44" y="438"/>
        <use xlink:href="#A" x="53" y="438"/>
        <use xlink:href="#B" x="62" y="438"/>
        <use xlink:href="#C" x="71" y="438"/>
        <use xlink:href="#D" x="80" y="438"/>
        <use xlink:href="#l" x="89" y="438"/>
        <use xlink:href="#az" x="98" y="438"/>
    </g>
    <path fill="#292929" d="M8 420h99v1H8ZM107 420h9v23h-9ZM8 443h18v21H8Zm0 0"/>
    <g fill="#D8D8D8">
        <use xlink:href="#aA" x="8" y="459"/>
        <use xlink:href="#w" x="17" y="459"/>
    </g>
    <path d="M26 443v63h27v-63H26z" style="fill:#3e3e3e;fill-opacity:1"/>
    <g fill="#D8D8D8">
        <use xlink:href="#aj" x="26" y="459"/>
        <use xlink:href="#w" x="35" y="459"/>
        <use xlink:href="#ak" x="44" y="459"/>
    </g>
    <path fill="#292929" d="M53 443h90v21H53Zm0 0"/>
    <g fill="#D8D8D8">
        <use xlink:href="#w" x="53" y="459"/>
        <use xlink:href="#p" x="62" y="459"/>
        <use xlink:href="#N" x="71" y="459"/>
        <use xlink:href="#s" x="80" y="459"/>
        <use xlink:href="#F" x="89" y="459"/>
        <use xlink:href="#u" x="98" y="459"/>
        <use xlink:href="#aa" x="107" y="459"/>
        <use xlink:href="#w" x="116" y="459"/>
        <use xlink:href="#aB" x="125" y="459"/>
        <use xlink:href="#w" x="134" y="459"/>
    </g>
    <path fill="#292929" d="M8 464h18v21H8Zm0 0"/>
    <g fill="#D8D8D8">
        <use xlink:href="#aA" x="8" y="480"/>
        <use xlink:href="#w" x="17" y="480"/>
    </g>
    <g fill="#D8D8D8">
        <use xlink:href="#aj" x="26" y="480"/>
        <use xlink:href="#aC" x="35" y="480"/>
        <use xlink:href="#ak" x="44" y="480"/>
    </g>
    <path fill="#292929" d="M53 464h90v21H53Zm0 0"/>
    <g fill="#D8D8D8">
        <use xlink:href="#w" x="53" y="480"/>
        <use xlink:href="#p" x="62" y="480"/>
        <use xlink:href="#N" x="71" y="480"/>
        <use xlink:href="#s" x="80" y="480"/>
        <use xlink:href="#F" x="89" y="480"/>
        <use xlink:href="#u" x="98" y="480"/>
        <use xlink:href="#aa" x="107" y="480"/>
        <use xlink:href="#w" x="116" y="480"/>
        <use xlink:href="#aD" x="125" y="480"/>
        <use xlink:href="#w" x="134" y="480"/>
    </g>
    <path fill="#292929" d="M8 485h18v21H8Zm0 0"/>
    <g fill="#D8D8D8">
        <use xlink:href="#aA" x="8" y="501"/>
        <use xlink:href="#w" x="17" y="501"/>
    </g>
    <g fill="#D8D8D8">
        <use xlink:href="#aj" x="26" y="501"/>
        <use xlink:href="#w" x="35" y="501"/>
        <use xlink:href="#ak" x="44" y="501"/>
    </g>
    <path fill="#292929" d="M53 485h90v21H53Zm0 0"/>
    <g fill="#D8D8D8">
        <use xlink:href="#w" x="53" y="501"/>
        <use xlink:href="#p" x="62" y="501"/>
        <use xlink:href="#N" x="71" y="501"/>
        <use xlink:href="#s" x="80" y="501"/>
        <use xlink:href="#F" x="89" y="501"/>
        <use xlink:href="#u" x="98" y="501"/>
        <use xlink:href="#aa" x="107" y="501"/>
        <use xlink:href="#w" x="116" y="501"/>
        <use xlink:href="#aE" x="125" y="501"/>
        <use xlink:href="#w" x="134" y="501"/>
    </g>
    <path style="fill:#3d4a74;fill-opacity:1" d="M0 528v37h819v-37H0z"/>
    <g fill="#9A9FB0">
        <use xlink:href="#w" x="8" y="552"/>
        <use xlink:href="#aA" x="17" y="552"/>
        <use xlink:href="#w" x="26" y="552"/>
        <use xlink:href="#n" x="35" y="552"/>
        <use xlink:href="#g" x="44" y="552"/>
        <use xlink:href="#w" x="53" y="552"/>
        <use xlink:href="#w" x="62" y="552"/>
    </g>
    <g fill="#D8D8D8">
        <use xlink:href="#s" x="71" y="552"/>
        <use xlink:href="#K" x="80" y="552"/>
        <use xlink:href="#G" x="89" y="552"/>
        <use xlink:href="#s" x="98" y="552"/>
        <use xlink:href="#ac" x="107" y="552"/>
        <use xlink:href="#u" x="116" y="552"/>
        <use xlink:href="#v" x="125" y="552"/>
        <use xlink:href="#af" x="134" y="552"/>
        <use xlink:href="#w" x="143" y="552"/>
    </g>
    <g fill="#9A9FB0">
        <use xlink:href="#w" x="152" y="552"/>
        <use xlink:href="#w" x="161" y="552"/>
        <use xlink:href="#w" x="170" y="552"/>
        <use xlink:href="#w" x="179" y="552"/>
        <use xlink:href="#aB" x="188" y="552"/>
        <use xlink:href="#aF" x="197" y="552"/>
        <use xlink:href="#g" x="206" y="552"/>
        <use xlink:href="#aB" x="215" y="552"/>
        <use xlink:href="#aE" x="224" y="552"/>
        <use xlink:href="#w" x="233" y="552"/>
        <use xlink:href="#w" x="242" y="552"/>
        <use xlink:href="#w" x="251" y="552"/>
        <use xlink:href="#m" x="260" y="552"/>
        <use xlink:href="#O" x="269" y="552"/>
        <use xlink:href="#O" x="278" y="552"/>
        <use xlink:href="#w" x="287" y="552"/>
        <use xlink:href="#w" x="296" y="552"/>
        <use xlink:href="#w" x="305" y="552"/>
        <use xlink:href="#p" x="314" y="552"/>
        <use xlink:href="#v" x="323" y="552"/>
        <use xlink:href="#af" x="332" y="552"/>
        <use xlink:href="#w" x="341" y="552"/>
        <use xlink:href="#w" x="350" y="552"/>
        <use xlink:href="#w" x="359" y="552"/>
        <use xlink:href="#w" x="368" y="552"/>
        <use xlink:href="#w" x="377" y="552"/>
        <use xlink:href="#w" x="386" y="552"/>
        <use xlink:href="#w" x="395" y="552"/>
        <use xlink:href="#w" x="404" y="552"/>
    </g>
    <path fill="#72ACE5" d="M125 376h9v23h-9Zm0 0"/>
    <path fill="#72ACE5" d="M125 378h9v21h-9Zm0 0"/>
</svg>
